<?xml version="1.0" encoding="utf-8"?>
<!-- Generator: Adobe Illustrator 18.1.1, SVG Export Plug-In . SVG Version: 6.00 Build 0)  -->
<svg version="1.1" id="Capa_1" xmlns="http://www.w3.org/2000/svg" xmlns:xlink="http://www.w3.org/1999/xlink" x="0px" y="0px"
	 viewBox="0 0 975 201" enable-background="new 0 0 975 201" xml:space="preserve">
<g opacity="0.6">
	<g>
		<defs>
			<rect id="SVGID_1_" y="0.2" width="305.4" height="46.2"/>
		</defs>
		<use xlink:href="#SVGID_1_"  overflow="visible" fill="#FFFFFF"/>
		<clipPath id="SVGID_2_">
			<use xlink:href="#SVGID_1_"  overflow="visible"/>
		</clipPath>
		<path clip-path="url(#SVGID_2_)" fill="#FFFFFF" d="M282.7,0.2H22.8C10.2,0.2,0,10.4,0,23v0.7c0,12.5,10.2,22.8,22.8,22.8h259.9
			c12.5,0,22.8-10.2,22.8-22.8V23C305.4,10.4,295.2,0.2,282.7,0.2"/>
	</g>
</g>
<g opacity="0.6">
	<g>
		<defs>
			<rect id="SVGID_3_" x="310.2" y="0.2" width="171.5" height="46.2"/>
		</defs>
		<use xlink:href="#SVGID_3_"  overflow="visible" fill="#FFFFFF"/>
		<clipPath id="SVGID_4_">
			<use xlink:href="#SVGID_3_"  overflow="visible"/>
		</clipPath>
		<path clip-path="url(#SVGID_4_)" fill="#FFFFFF" d="M458.9,0.2h-126c-12.5,0-22.8,10.2-22.8,22.8v0.7c0,12.5,10.2,22.8,22.8,22.8
			h126c12.5,0,22.8-10.2,22.8-22.8V23C481.7,10.4,471.5,0.2,458.9,0.2"/>
	</g>
</g>
<g opacity="0.6">
	<g>
		<defs>
			<rect id="SVGID_5_" y="52.5" width="305.4" height="46.2"/>
		</defs>
		<use xlink:href="#SVGID_5_"  overflow="visible" fill="#FFFFFF"/>
		<clipPath id="SVGID_6_">
			<use xlink:href="#SVGID_5_"  overflow="visible"/>
		</clipPath>
		<path clip-path="url(#SVGID_6_)" fill="#FFFFFF" d="M282.7,52.5H22.8C10.2,52.5,0,62.8,0,75.3V76c0,12.5,10.2,22.8,22.8,22.8
			h259.9c12.5,0,22.8-10.2,22.8-22.8v-0.7C305.4,62.8,295.2,52.5,282.7,52.5"/>
	</g>
</g>
<g opacity="0.6">
	<g>
		<defs>
			<rect id="SVGID_7_" x="310.2" y="52.5" width="171.5" height="46.2"/>
		</defs>
		<use xlink:href="#SVGID_7_"  overflow="visible" fill="#FFFFFF"/>
		<clipPath id="SVGID_8_">
			<use xlink:href="#SVGID_7_"  overflow="visible"/>
		</clipPath>
		<path clip-path="url(#SVGID_8_)" fill="#FFFFFF" d="M458.9,52.5h-126c-12.5,0-22.8,10.2-22.8,22.8V76c0,12.5,10.2,22.8,22.8,22.8
			h126c12.5,0,22.8-10.2,22.8-22.8v-0.7C481.7,62.8,471.5,52.5,458.9,52.5"/>
	</g>
</g>
<g opacity="0.6">
	<g>
		<defs>
			<rect id="SVGID_9_" y="104.9" width="305.4" height="46.2"/>
		</defs>
		<use xlink:href="#SVGID_9_"  overflow="visible" fill="#FFFFFF"/>
		<clipPath id="SVGID_10_">
			<use xlink:href="#SVGID_9_"  overflow="visible"/>
		</clipPath>
		<path clip-path="url(#SVGID_10_)" fill="#FFFFFF" d="M282.7,104.9H22.8C10.2,104.9,0,115.1,0,127.7v0.7
			c0,12.5,10.2,22.8,22.8,22.8h259.9c12.5,0,22.8-10.2,22.8-22.8v-0.7C305.4,115.1,295.2,104.9,282.7,104.9"/>
	</g>
</g>
<g opacity="0.6">
	<g>
		<defs>
			<rect id="SVGID_11_" x="310.2" y="104.9" width="171.5" height="46.2"/>
		</defs>
		<use xlink:href="#SVGID_11_"  overflow="visible" fill="#FFFFFF"/>
		<clipPath id="SVGID_12_">
			<use xlink:href="#SVGID_11_"  overflow="visible"/>
		</clipPath>
		<path clip-path="url(#SVGID_12_)" fill="#FFFFFF" d="M458.9,104.9h-126c-12.5,0-22.8,10.2-22.8,22.8v0.7
			c0,12.5,10.2,22.8,22.8,22.8h126c12.5,0,22.8-10.2,22.8-22.8v-0.7C481.7,115.1,471.5,104.9,458.9,104.9"/>
	</g>
</g>
<g opacity="0.6">
	<g>
		<defs>
			<rect id="SVGID_13_" y="155.6" width="305.4" height="46.2"/>
		</defs>
		<use xlink:href="#SVGID_13_"  overflow="visible" fill="#FFFFFF"/>
		<clipPath id="SVGID_14_">
			<use xlink:href="#SVGID_13_"  overflow="visible"/>
		</clipPath>
		<path clip-path="url(#SVGID_14_)" fill="#FFFFFF" d="M282.7,155.6H22.8C10.2,155.6,0,165.9,0,178.4v0.7
			c0,12.5,10.2,22.8,22.8,22.8h259.9c12.5,0,22.8-10.2,22.8-22.8v-0.7C305.4,165.9,295.2,155.6,282.7,155.6"/>
	</g>
</g>
<g opacity="0.6">
	<g>
		<defs>
			<rect id="SVGID_15_" x="310.2" y="155.6" width="171.5" height="46.2"/>
		</defs>
		<use xlink:href="#SVGID_15_"  overflow="visible" fill="#FFFFFF"/>
		<clipPath id="SVGID_16_">
			<use xlink:href="#SVGID_15_"  overflow="visible"/>
		</clipPath>
		<path clip-path="url(#SVGID_16_)" fill="#FFFFFF" d="M458.9,155.6h-126c-12.5,0-22.8,10.2-22.8,22.8v0.7
			c0,12.5,10.2,22.8,22.8,22.8h126c12.5,0,22.8-10.2,22.8-22.8v-0.7C481.7,165.9,471.5,155.6,458.9,155.6"/>
	</g>
</g>
<g opacity="0.6">
	<g>
		<defs>
			<rect id="SVGID_17_" x="493.3" y="52.5" width="305.4" height="46.2"/>
		</defs>
		<use xlink:href="#SVGID_17_"  overflow="visible" fill="#FFFFFF"/>
		<clipPath id="SVGID_18_">
			<use xlink:href="#SVGID_17_"  overflow="visible"/>
		</clipPath>
		<path clip-path="url(#SVGID_18_)" fill="#FFFFFF" d="M776,52.5H516.1c-12.5,0-22.8,10.2-22.8,22.8V76c0,12.5,10.2,22.8,22.8,22.8
			H776c12.5,0,22.8-10.2,22.8-22.8v-0.7C798.7,62.8,788.5,52.5,776,52.5"/>
	</g>
</g>
<g opacity="0.6">
	<g>
		<defs>
			<rect id="SVGID_19_" x="803.5" y="52.5" width="171.5" height="46.2"/>
		</defs>
		<use xlink:href="#SVGID_19_"  overflow="visible" fill="#FFFFFF"/>
		<clipPath id="SVGID_20_">
			<use xlink:href="#SVGID_19_"  overflow="visible"/>
		</clipPath>
		<path clip-path="url(#SVGID_20_)" fill="#FFFFFF" d="M952.2,52.5h-126c-12.5,0-22.8,10.2-22.8,22.8V76c0,12.5,10.2,22.8,22.8,22.8
			h126c12.5,0,22.8-10.2,22.8-22.8v-0.7C975,62.8,964.8,52.5,952.2,52.5"/>
	</g>
</g>
<g opacity="0.6">
	<g>
		<defs>
			<rect id="SVGID_21_" x="493.3" y="104.9" width="305.4" height="46.2"/>
		</defs>
		<use xlink:href="#SVGID_21_"  overflow="visible" fill="#FFFFFF"/>
		<clipPath id="SVGID_22_">
			<use xlink:href="#SVGID_21_"  overflow="visible"/>
		</clipPath>
		<path clip-path="url(#SVGID_22_)" fill="#FFFFFF" d="M776,104.9H516.1c-12.5,0-22.8,10.2-22.8,22.8v0.7
			c0,12.5,10.2,22.8,22.8,22.8H776c12.5,0,22.8-10.2,22.8-22.8v-0.7C798.7,115.1,788.5,104.9,776,104.9"/>
	</g>
</g>
<g opacity="0.6">
	<g>
		<defs>
			<rect id="SVGID_23_" x="803.5" y="105.4" width="171.5" height="46.2"/>
		</defs>
		<use xlink:href="#SVGID_23_"  overflow="visible" fill="#FFFFFF"/>
		<clipPath id="SVGID_24_">
			<use xlink:href="#SVGID_23_"  overflow="visible"/>
		</clipPath>
		<path clip-path="url(#SVGID_24_)" fill="#FFFFFF" d="M952.2,105.4h-126c-12.5,0-22.8,10.2-22.8,22.8v0.7
			c0,12.5,10.2,22.8,22.8,22.8h126c12.5,0,22.8-10.2,22.8-22.8v-0.7C975,115.6,964.8,105.4,952.2,105.4"/>
	</g>
</g>
<g opacity="0.6">
	<g>
		<defs>
			<rect id="SVGID_25_" x="493.3" y="155.6" width="305.4" height="46.2"/>
		</defs>
		<use xlink:href="#SVGID_25_"  overflow="visible" fill="#FFFFFF"/>
		<clipPath id="SVGID_26_">
			<use xlink:href="#SVGID_25_"  overflow="visible"/>
		</clipPath>
		<path clip-path="url(#SVGID_26_)" fill="#FFFFFF" d="M776,155.6H516.1c-12.5,0-22.8,10.2-22.8,22.8v0.7
			c0,12.5,10.2,22.8,22.8,22.8H776c12.5,0,22.8-10.2,22.8-22.8v-0.7C798.7,165.9,788.5,155.6,776,155.6"/>
	</g>
</g>
<g opacity="0.6">
	<g>
		<defs>
			<rect id="SVGID_27_" x="803.5" y="155.6" width="171.5" height="46.2"/>
		</defs>
		<use xlink:href="#SVGID_27_"  overflow="visible" fill="#FFFFFF"/>
		<clipPath id="SVGID_28_">
			<use xlink:href="#SVGID_27_"  overflow="visible"/>
		</clipPath>
		<path clip-path="url(#SVGID_28_)" fill="#FFFFFF" d="M952.2,155.6h-126c-12.5,0-22.8,10.2-22.8,22.8v0.7
			c0,12.5,10.2,22.8,22.8,22.8h126c12.5,0,22.8-10.2,22.8-22.8v-0.7C975,165.9,964.8,155.6,952.2,155.6"/>
	</g>
</g>
<g opacity="0.6">
	<g>
		<defs>
			<rect id="SVGID_29_" x="493.3" y="0.2" width="305.4" height="46.2"/>
		</defs>
		<use xlink:href="#SVGID_29_"  overflow="visible" fill="#FFFFFF"/>
		<clipPath id="SVGID_30_">
			<use xlink:href="#SVGID_29_"  overflow="visible"/>
		</clipPath>
		<path clip-path="url(#SVGID_30_)" fill="#FFFFFF" d="M776,0.2H516.1c-12.5,0-22.8,10.2-22.8,22.8v0.7c0,12.5,10.2,22.8,22.8,22.8
			H776c12.5,0,22.8-10.2,22.8-22.8V23C798.7,10.4,788.5,0.2,776,0.2"/>
	</g>
</g>
<g opacity="0.6">
	<g>
		<defs>
			<rect id="SVGID_31_" x="803.5" y="0.2" width="171.5" height="46.2"/>
		</defs>
		<use xlink:href="#SVGID_31_"  overflow="visible" fill="#FFFFFF"/>
		<clipPath id="SVGID_32_">
			<use xlink:href="#SVGID_31_"  overflow="visible"/>
		</clipPath>
		<path clip-path="url(#SVGID_32_)" fill="#FFFFFF" d="M952.2,0.2h-126c-12.5,0-22.8,10.2-22.8,22.8v0.7c0,12.5,10.2,22.8,22.8,22.8
			h126c12.5,0,22.8-10.2,22.8-22.8V23C975,10.4,964.8,0.2,952.2,0.2"/>
	</g>
</g>
<g>
	<path fill="#3C3C3B" d="M8.5,61.5h2.1c0.9,0,1.5,0.1,2,0.3c0.5,0.2,0.8,0.5,1.1,0.9c0.3,0.4,0.4,0.9,0.4,1.4c0,0.5-0.1,0.9-0.4,1.3
		c-0.2,0.4-0.6,0.7-1,1c0.6,0.2,1,0.4,1.3,0.7c0.3,0.3,0.5,0.6,0.7,0.9c0.2,0.4,0.3,0.8,0.3,1.2c0,0.9-0.3,1.6-1,2.2
		c-0.6,0.6-1.5,0.9-2.6,0.9h-3V61.5z M9.6,62.6v3.5h0.6c0.8,0,1.3-0.1,1.7-0.2c0.4-0.1,0.6-0.4,0.8-0.7c0.2-0.3,0.3-0.6,0.3-1
		c0-0.5-0.2-0.9-0.5-1.2c-0.3-0.3-0.9-0.4-1.7-0.4H9.6z M9.6,67.2v4.2H11c0.8,0,1.4-0.1,1.8-0.2c0.4-0.2,0.7-0.4,0.9-0.7
		c0.2-0.3,0.3-0.7,0.3-1.1c0-0.5-0.2-0.9-0.5-1.3c-0.3-0.4-0.8-0.6-1.3-0.7c-0.4-0.1-1-0.1-1.9-0.1H9.6z"/>
	<path fill="#3C3C3B" d="M17.8,61.2h1v11.2h-1V61.2z"/>
	<path fill="#3C3C3B" d="M21.8,64.3h1v3.8c0,0.9,0.1,1.6,0.1,1.9c0.1,0.5,0.4,0.9,0.9,1.2c0.4,0.3,0.9,0.4,1.5,0.4
		c0.6,0,1.1-0.1,1.5-0.4c0.4-0.3,0.7-0.6,0.8-1.1c0.1-0.3,0.2-1,0.2-2v-3.8h1.1v4c0,1.1-0.1,1.9-0.4,2.5c-0.3,0.6-0.6,1-1.2,1.3
		c-0.5,0.3-1.2,0.5-2,0.5c-0.8,0-1.4-0.2-2-0.5c-0.5-0.3-0.9-0.8-1.2-1.3c-0.3-0.6-0.4-1.4-0.4-2.6V64.3z"/>
	<path fill="#3C3C3B" d="M36.1,65.2l-0.7,0.7c-0.6-0.5-1.1-0.8-1.6-0.8c-0.3,0-0.6,0.1-0.9,0.3c-0.2,0.2-0.4,0.5-0.4,0.8
		c0,0.3,0.1,0.5,0.3,0.7c0.2,0.2,0.6,0.5,1.2,0.9c0.8,0.4,1.3,0.8,1.6,1.2c0.3,0.4,0.4,0.8,0.4,1.3c0,0.7-0.2,1.2-0.7,1.7
		c-0.5,0.5-1,0.7-1.7,0.7c-0.5,0-0.9-0.1-1.3-0.3c-0.4-0.2-0.8-0.5-1.1-0.8l0.7-0.7c0.5,0.6,1.1,0.9,1.7,0.9c0.4,0,0.8-0.1,1.1-0.4
		c0.3-0.3,0.4-0.6,0.4-0.9c0-0.3-0.1-0.6-0.3-0.8c-0.2-0.2-0.6-0.5-1.3-0.9c-0.7-0.4-1.2-0.7-1.5-1.1c-0.3-0.4-0.4-0.8-0.4-1.3
		c0-0.6,0.2-1.1,0.6-1.5c0.4-0.4,0.9-0.6,1.6-0.6C34.6,64.1,35.3,64.5,36.1,65.2z"/>
	<path fill="#3C3C3B" d="M46.9,64.3v8.1h-1V71c-0.4,0.5-0.9,0.9-1.5,1.2c-0.5,0.3-1.1,0.4-1.8,0.4c-1.1,0-2.1-0.4-2.9-1.2
		c-0.8-0.8-1.2-1.8-1.2-3c0-1.2,0.4-2.2,1.2-3c0.8-0.8,1.8-1.2,2.9-1.2c0.7,0,1.3,0.1,1.8,0.4c0.5,0.3,1,0.7,1.4,1.3v-1.5H46.9z
		 M42.7,65.1c-0.6,0-1.1,0.1-1.6,0.4c-0.5,0.3-0.9,0.7-1.2,1.2c-0.3,0.5-0.4,1.1-0.4,1.6c0,0.6,0.1,1.1,0.4,1.6
		c0.3,0.5,0.7,0.9,1.2,1.2c0.5,0.3,1,0.4,1.6,0.4c0.6,0,1.1-0.1,1.6-0.4c0.5-0.3,0.9-0.7,1.2-1.2c0.3-0.5,0.4-1,0.4-1.7
		c0-0.9-0.3-1.7-0.9-2.3C44.4,65.4,43.6,65.1,42.7,65.1z"/>
	<path fill="#3C3C3B" d="M54.1,65.2l-0.7,0.7c-0.6-0.5-1.1-0.8-1.6-0.8c-0.3,0-0.6,0.1-0.9,0.3c-0.2,0.2-0.4,0.5-0.4,0.8
		c0,0.3,0.1,0.5,0.3,0.7c0.2,0.2,0.6,0.5,1.2,0.9c0.8,0.4,1.3,0.8,1.6,1.2c0.3,0.4,0.4,0.8,0.4,1.3c0,0.7-0.2,1.2-0.7,1.7
		c-0.5,0.5-1,0.7-1.7,0.7c-0.5,0-0.9-0.1-1.3-0.3c-0.4-0.2-0.8-0.5-1.1-0.8l0.7-0.7c0.5,0.6,1.1,0.9,1.7,0.9c0.4,0,0.8-0.1,1.1-0.4
		c0.3-0.3,0.4-0.6,0.4-0.9c0-0.3-0.1-0.6-0.3-0.8c-0.2-0.2-0.6-0.5-1.3-0.9c-0.7-0.4-1.2-0.7-1.5-1.1c-0.3-0.4-0.4-0.8-0.4-1.3
		c0-0.6,0.2-1.1,0.6-1.5c0.4-0.4,0.9-0.6,1.6-0.6C52.6,64.1,53.4,64.5,54.1,65.2z"/>
	<path fill="#3C3C3B" d="M57.9,70.4l1,0.5l-1.5,2.8l-0.7-0.3L57.9,70.4z"/>
	<path fill="#3C3C3B" d="M67.3,61.5h2.1c0.9,0,1.5,0.1,2,0.3c0.5,0.2,0.8,0.5,1.1,0.9c0.3,0.4,0.4,0.9,0.4,1.4
		c0,0.5-0.1,0.9-0.4,1.3c-0.2,0.4-0.6,0.7-1,1c0.6,0.2,1,0.4,1.3,0.7c0.3,0.3,0.5,0.6,0.7,0.9c0.2,0.4,0.3,0.8,0.3,1.2
		c0,0.9-0.3,1.6-1,2.2c-0.6,0.6-1.5,0.9-2.6,0.9h-3V61.5z M68.4,62.6v3.5H69c0.8,0,1.3-0.1,1.7-0.2c0.4-0.1,0.6-0.4,0.8-0.7
		c0.2-0.3,0.3-0.6,0.3-1c0-0.5-0.2-0.9-0.5-1.2c-0.3-0.3-0.9-0.4-1.7-0.4H68.4z M68.4,67.2v4.2h1.4c0.8,0,1.4-0.1,1.8-0.2
		c0.4-0.2,0.7-0.4,0.9-0.7c0.2-0.3,0.3-0.7,0.3-1.1c0-0.5-0.2-0.9-0.5-1.3c-0.3-0.4-0.8-0.6-1.3-0.7c-0.4-0.1-1-0.1-1.9-0.1H68.4z"
		/>
	<path fill="#3C3C3B" d="M76.6,61.2h1v11.2h-1V61.2z"/>
	<path fill="#3C3C3B" d="M80.5,64.3h1v3.8c0,0.9,0,1.6,0.1,1.9c0.1,0.5,0.4,0.9,0.9,1.2c0.4,0.3,0.9,0.4,1.5,0.4
		c0.6,0,1.1-0.1,1.5-0.4c0.4-0.3,0.7-0.6,0.8-1.1c0.1-0.3,0.2-1,0.2-2v-3.8h1.1v4c0,1.1-0.1,1.9-0.4,2.5c-0.3,0.6-0.7,1-1.2,1.3
		c-0.5,0.3-1.2,0.5-2,0.5s-1.4-0.2-2-0.5c-0.5-0.3-0.9-0.8-1.2-1.3s-0.4-1.4-0.4-2.6V64.3z"/>
	<path fill="#3C3C3B" d="M94.8,65.2l-0.7,0.7c-0.6-0.5-1.1-0.8-1.6-0.8c-0.3,0-0.6,0.1-0.9,0.3c-0.2,0.2-0.4,0.5-0.4,0.8
		c0,0.3,0.1,0.5,0.3,0.7c0.2,0.2,0.6,0.5,1.2,0.9c0.8,0.4,1.3,0.8,1.6,1.2c0.3,0.4,0.4,0.8,0.4,1.3c0,0.7-0.2,1.2-0.7,1.7
		c-0.5,0.5-1,0.7-1.7,0.7c-0.5,0-0.9-0.1-1.3-0.3c-0.4-0.2-0.8-0.5-1.1-0.8l0.7-0.7c0.5,0.6,1.1,0.9,1.7,0.9c0.4,0,0.8-0.1,1.1-0.4
		c0.3-0.3,0.4-0.6,0.4-0.9c0-0.3-0.1-0.6-0.3-0.8c-0.2-0.2-0.6-0.5-1.3-0.9c-0.7-0.4-1.2-0.7-1.5-1.1c-0.3-0.4-0.4-0.8-0.4-1.3
		c0-0.6,0.2-1.1,0.6-1.5c0.4-0.4,0.9-0.6,1.6-0.6C93.3,64.1,94.1,64.5,94.8,65.2z"/>
	<path fill="#3C3C3B" d="M101.4,64.1c1.2,0,2.3,0.5,3.1,1.3c0.7,0.8,1.1,1.8,1.1,2.9c0,1.1-0.4,2.1-1.2,3c-0.8,0.8-1.8,1.3-3,1.3
		c-1.2,0-2.2-0.4-3-1.3c-0.8-0.8-1.2-1.8-1.2-3c0-1.1,0.4-2.1,1.1-2.9C99.1,64.6,100.1,64.1,101.4,64.1z M101.4,65.1
		c-0.9,0-1.6,0.3-2.2,1c-0.6,0.6-0.9,1.4-0.9,2.3c0,0.6,0.1,1.1,0.4,1.6c0.3,0.5,0.7,0.9,1.1,1.2c0.5,0.3,1,0.4,1.6,0.4
		c0.6,0,1.1-0.1,1.6-0.4c0.5-0.3,0.9-0.7,1.1-1.2c0.3-0.5,0.4-1,0.4-1.6c0-0.9-0.3-1.7-0.9-2.3C103,65.5,102.2,65.1,101.4,65.1z"/>
	<path fill="#3C3C3B" d="M108.4,64.3h1v1.4c0.4-0.6,0.9-1,1.4-1.2c0.5-0.3,1.1-0.4,1.6-0.4c0.6,0,1.1,0.2,1.6,0.5
		c0.5,0.3,0.8,0.7,1,1.2c0.2,0.5,0.3,1.3,0.3,2.4v4.2h-1v-3.8c0-0.9,0-1.5-0.1-1.9c-0.1-0.5-0.4-0.9-0.7-1.2
		c-0.3-0.3-0.8-0.4-1.3-0.4c-0.6,0-1.2,0.2-1.7,0.6c-0.5,0.4-0.8,0.9-1,1.5c-0.1,0.4-0.1,1.1-0.1,2.2v3h-1V64.3z"/>
	<path fill="#3C3C3B" d="M119.6,70.4l1,0.5l-1.5,2.8l-0.7-0.3L119.6,70.4z"/>
	<path fill="#3C3C3B" d="M129,61.5h2.1c0.9,0,1.5,0.1,2,0.3c0.5,0.2,0.8,0.5,1.1,0.9c0.3,0.4,0.4,0.9,0.4,1.4c0,0.5-0.1,0.9-0.4,1.3
		c-0.2,0.4-0.6,0.7-1,1c0.6,0.2,1,0.4,1.3,0.7c0.3,0.3,0.5,0.6,0.7,0.9c0.2,0.4,0.3,0.8,0.3,1.2c0,0.9-0.3,1.6-1,2.2
		c-0.6,0.6-1.5,0.9-2.6,0.9h-3V61.5z M130.1,62.6v3.5h0.6c0.8,0,1.3-0.1,1.7-0.2c0.4-0.1,0.6-0.4,0.8-0.7c0.2-0.3,0.3-0.6,0.3-1
		c0-0.5-0.2-0.9-0.5-1.2c-0.3-0.3-0.9-0.4-1.7-0.4H130.1z M130.1,67.2v4.2h1.4c0.8,0,1.4-0.1,1.8-0.2c0.4-0.2,0.7-0.4,0.9-0.7
		c0.2-0.3,0.3-0.7,0.3-1.1c0-0.5-0.2-0.9-0.5-1.3c-0.3-0.4-0.8-0.6-1.3-0.7c-0.4-0.1-1-0.1-1.9-0.1H130.1z"/>
	<path fill="#3C3C3B" d="M142.3,64.1c1.2,0,2.3,0.5,3.1,1.3c0.7,0.8,1.1,1.8,1.1,2.9c0,1.1-0.4,2.1-1.2,3c-0.8,0.8-1.8,1.3-3,1.3
		c-1.2,0-2.2-0.4-3-1.3c-0.8-0.8-1.2-1.8-1.2-3c0-1.1,0.4-2.1,1.1-2.9C140,64.6,141,64.1,142.3,64.1z M142.2,65.1
		c-0.9,0-1.6,0.3-2.2,1c-0.6,0.6-0.9,1.4-0.9,2.3c0,0.6,0.1,1.1,0.4,1.6c0.3,0.5,0.7,0.9,1.1,1.2c0.5,0.3,1,0.4,1.6,0.4
		c0.6,0,1.1-0.1,1.6-0.4c0.5-0.3,0.9-0.7,1.1-1.2c0.3-0.5,0.4-1,0.4-1.6c0-0.9-0.3-1.7-0.9-2.3C143.8,65.5,143.1,65.1,142.2,65.1z"
		/>
	<path fill="#3C3C3B" d="M157.3,61.2v11.2h-1V71c-0.4,0.5-0.9,0.9-1.5,1.2c-0.5,0.3-1.1,0.4-1.8,0.4c-1.1,0-2.1-0.4-2.9-1.2
		c-0.8-0.8-1.2-1.8-1.2-3c0-1.2,0.4-2.2,1.2-3c0.8-0.8,1.8-1.2,2.9-1.2c0.7,0,1.3,0.1,1.8,0.4c0.5,0.3,1,0.7,1.4,1.3v-4.6H157.3z
		 M153.2,65.1c-0.6,0-1.1,0.1-1.6,0.4c-0.5,0.3-0.9,0.7-1.2,1.2c-0.3,0.5-0.4,1.1-0.4,1.6c0,0.6,0.1,1.1,0.4,1.6
		c0.3,0.5,0.7,0.9,1.2,1.2c0.5,0.3,1,0.4,1.6,0.4c0.6,0,1.1-0.1,1.6-0.4c0.5-0.3,0.9-0.7,1.2-1.2c0.3-0.5,0.4-1,0.4-1.7
		c0-0.9-0.3-1.7-0.9-2.3C154.8,65.4,154.1,65.1,153.2,65.1z"/>
	<path fill="#3C3C3B" d="M159.7,64.3h1.1l2.8,6.2l2.7-6.2h1.1l-4.8,11h-1.1l1.6-3.6L159.7,64.3z"/>
	<path fill="#3C3C3B" d="M170.6,70.4l1,0.5l-1.5,2.8l-0.7-0.3L170.6,70.4z"/>
	<path fill="#3C3C3B" d="M180,61.5h2.1c0.9,0,1.5,0.1,2,0.3c0.5,0.2,0.8,0.5,1.1,0.9c0.3,0.4,0.4,0.9,0.4,1.4c0,0.5-0.1,0.9-0.4,1.3
		c-0.2,0.4-0.6,0.7-1,1c0.6,0.2,1,0.4,1.3,0.7c0.3,0.3,0.5,0.6,0.7,0.9c0.2,0.4,0.3,0.8,0.3,1.2c0,0.9-0.3,1.6-1,2.2
		c-0.6,0.6-1.5,0.9-2.6,0.9h-3V61.5z M181.1,62.6v3.5h0.6c0.8,0,1.3-0.1,1.7-0.2c0.4-0.1,0.6-0.4,0.8-0.7c0.2-0.3,0.3-0.6,0.3-1
		c0-0.5-0.2-0.9-0.5-1.2c-0.4-0.3-0.9-0.4-1.7-0.4H181.1z M181.1,67.2v4.2h1.4c0.8,0,1.4-0.1,1.8-0.2c0.4-0.2,0.7-0.4,0.9-0.7
		c0.2-0.3,0.3-0.7,0.3-1.1c0-0.5-0.2-0.9-0.5-1.3s-0.8-0.6-1.3-0.7c-0.4-0.1-1-0.1-1.9-0.1H181.1z"/>
	<path fill="#3C3C3B" d="M189.3,64.3h1v3.8c0,0.9,0.1,1.6,0.1,1.9c0.1,0.5,0.4,0.9,0.9,1.2c0.4,0.3,0.9,0.4,1.5,0.4
		c0.6,0,1.1-0.1,1.5-0.4c0.4-0.3,0.7-0.6,0.8-1.1c0.1-0.3,0.2-1,0.2-2v-3.8h1.1v4c0,1.1-0.1,1.9-0.4,2.5c-0.3,0.6-0.6,1-1.2,1.3
		c-0.5,0.3-1.2,0.5-2,0.5c-0.8,0-1.4-0.2-2-0.5c-0.5-0.3-0.9-0.8-1.2-1.3c-0.3-0.6-0.4-1.4-0.4-2.6V64.3z"/>
	<path fill="#3C3C3B" d="M203.6,65.2l-0.7,0.7c-0.6-0.5-1.1-0.8-1.6-0.8c-0.3,0-0.6,0.1-0.9,0.3c-0.2,0.2-0.4,0.5-0.4,0.8
		c0,0.3,0.1,0.5,0.3,0.7c0.2,0.2,0.6,0.5,1.2,0.9c0.8,0.4,1.3,0.8,1.6,1.2c0.3,0.4,0.4,0.8,0.4,1.3c0,0.7-0.2,1.2-0.7,1.7
		c-0.5,0.5-1,0.7-1.7,0.7c-0.5,0-0.9-0.1-1.3-0.3c-0.4-0.2-0.8-0.5-1.1-0.8l0.7-0.7c0.5,0.6,1.1,0.9,1.7,0.9c0.4,0,0.8-0.1,1.1-0.4
		c0.3-0.3,0.4-0.6,0.4-0.9c0-0.3-0.1-0.6-0.3-0.8c-0.2-0.2-0.6-0.5-1.3-0.9c-0.7-0.4-1.2-0.7-1.5-1.1c-0.3-0.4-0.4-0.8-0.4-1.3
		c0-0.6,0.2-1.1,0.6-1.5c0.4-0.4,0.9-0.6,1.6-0.6C202.1,64.1,202.9,64.5,203.6,65.2z"/>
	<path fill="#3C3C3B" d="M210.2,64.1c1.2,0,2.3,0.5,3.1,1.3c0.7,0.8,1.1,1.8,1.1,2.9c0,1.1-0.4,2.1-1.2,3c-0.8,0.8-1.8,1.3-3,1.3
		c-1.2,0-2.2-0.4-3-1.3c-0.8-0.8-1.2-1.8-1.2-3c0-1.1,0.4-2.1,1.1-2.9C207.9,64.6,209,64.1,210.2,64.1z M210.2,65.1
		c-0.9,0-1.6,0.3-2.2,1c-0.6,0.6-0.9,1.4-0.9,2.3c0,0.6,0.1,1.1,0.4,1.6c0.3,0.5,0.7,0.9,1.1,1.2c0.5,0.3,1,0.4,1.6,0.4
		c0.6,0,1.1-0.1,1.6-0.4c0.5-0.3,0.9-0.7,1.1-1.2c0.3-0.5,0.4-1,0.4-1.6c0-0.9-0.3-1.7-0.9-2.3C211.8,65.5,211.1,65.1,210.2,65.1z"
		/>
	<path fill="#3C3C3B" d="M221.3,65.2l-0.7,0.7c-0.6-0.5-1.1-0.8-1.6-0.8c-0.3,0-0.6,0.1-0.9,0.3c-0.2,0.2-0.4,0.5-0.4,0.8
		c0,0.3,0.1,0.5,0.3,0.7c0.2,0.2,0.6,0.5,1.2,0.9c0.8,0.4,1.3,0.8,1.6,1.2c0.3,0.4,0.4,0.8,0.4,1.3c0,0.7-0.2,1.2-0.7,1.7
		c-0.5,0.5-1,0.7-1.7,0.7c-0.5,0-0.9-0.1-1.3-0.3c-0.4-0.2-0.8-0.5-1.1-0.8l0.7-0.7c0.5,0.6,1.1,0.9,1.7,0.9c0.4,0,0.8-0.1,1.1-0.4
		c0.3-0.3,0.4-0.6,0.4-0.9c0-0.3-0.1-0.6-0.3-0.8c-0.2-0.2-0.6-0.5-1.3-0.9c-0.7-0.4-1.2-0.7-1.5-1.1c-0.3-0.4-0.4-0.8-0.4-1.3
		c0-0.6,0.2-1.1,0.6-1.5c0.4-0.4,0.9-0.6,1.6-0.6C219.8,64.1,220.5,64.5,221.3,65.2z"/>
	<path fill="#3C3C3B" d="M225.1,70.4l1,0.5l-1.5,2.8l-0.7-0.3L225.1,70.4z"/>
</g>
<g>
	<path fill="#3C3C3B" d="M18.7,79.5l-0.9,0.7c-0.5-0.6-1-1.1-1.7-1.4c-0.7-0.3-1.4-0.5-2.2-0.5c-0.9,0-1.7,0.2-2.4,0.6
		c-0.7,0.4-1.3,1-1.7,1.7c-0.4,0.7-0.6,1.5-0.6,2.4c0,1.3,0.5,2.4,1.4,3.3c0.9,0.9,2.1,1.3,3.5,1.3c1.5,0,2.8-0.6,3.8-1.8l0.9,0.7
		c-0.5,0.7-1.2,1.2-2,1.6c-0.8,0.4-1.7,0.6-2.7,0.6c-1.9,0-3.4-0.6-4.5-1.9C8.5,85.6,8,84.3,8,82.8c0-1.6,0.6-2.9,1.7-4
		s2.5-1.6,4.2-1.6c1,0,1.9,0.2,2.8,0.6C17.5,78.2,18.1,78.7,18.7,79.5z"/>
	<path fill="#3C3C3B" d="M29.6,80.3v8.1h-1V87c-0.4,0.5-0.9,0.9-1.5,1.2c-0.5,0.3-1.1,0.4-1.8,0.4c-1.1,0-2.1-0.4-2.9-1.2
		c-0.8-0.8-1.2-1.8-1.2-3c0-1.2,0.4-2.2,1.2-3c0.8-0.8,1.8-1.2,2.9-1.2c0.7,0,1.3,0.1,1.8,0.4c0.5,0.3,1,0.7,1.4,1.3v-1.5H29.6z
		 M25.5,81.1c-0.6,0-1.1,0.1-1.6,0.4c-0.5,0.3-0.9,0.7-1.2,1.2c-0.3,0.5-0.4,1.1-0.4,1.6c0,0.6,0.1,1.1,0.4,1.6
		c0.3,0.5,0.7,0.9,1.2,1.2c0.5,0.3,1,0.4,1.6,0.4c0.6,0,1.1-0.1,1.6-0.4c0.5-0.3,0.9-0.7,1.2-1.2c0.3-0.5,0.4-1,0.4-1.7
		c0-0.9-0.3-1.7-0.9-2.3C27.1,81.4,26.4,81.1,25.5,81.1z"/>
	<path fill="#3C3C3B" d="M32.9,80.3h1v1.4c0.4-0.5,0.7-0.9,1.1-1.1c0.5-0.3,1.1-0.5,1.7-0.5c0.4,0,0.8,0.1,1.1,0.2
		c0.4,0.2,0.6,0.4,0.9,0.6c0.2,0.3,0.4,0.6,0.6,1.1c0.3-0.6,0.8-1.1,1.3-1.4c0.5-0.3,1.1-0.5,1.7-0.5c0.6,0,1,0.1,1.5,0.4
		c0.4,0.3,0.7,0.7,1,1.2c0.2,0.5,0.3,1.3,0.3,2.3v4.4h-1.1v-4.4c0-0.9-0.1-1.5-0.2-1.8c-0.1-0.3-0.3-0.6-0.6-0.8
		c-0.3-0.2-0.7-0.3-1.1-0.3c-0.5,0-1,0.1-1.4,0.4c-0.4,0.3-0.7,0.7-0.9,1.2c-0.2,0.5-0.3,1.3-0.3,2.5v3.2h-1v-4.1c0-1-0.1-1.6-0.2-2
		c-0.1-0.3-0.3-0.6-0.6-0.8c-0.3-0.2-0.7-0.3-1.1-0.3c-0.5,0-0.9,0.1-1.3,0.4c-0.4,0.3-0.7,0.7-0.9,1.2c-0.2,0.5-0.3,1.2-0.3,2.2
		v3.4h-1V80.3z"/>
	<path fill="#3C3C3B" d="M48.4,77c0.2,0,0.4,0.1,0.6,0.3c0.2,0.2,0.3,0.4,0.3,0.6c0,0.2-0.1,0.4-0.3,0.6c-0.2,0.2-0.4,0.3-0.6,0.3
		c-0.2,0-0.4-0.1-0.6-0.3c-0.2-0.2-0.3-0.4-0.3-0.6c0-0.2,0.1-0.4,0.3-0.6C47.9,77,48.1,77,48.4,77z M47.9,80.3h1v8.1h-1V80.3z"/>
	<path fill="#3C3C3B" d="M56,81.2l-0.7,0.7c-0.6-0.5-1.1-0.8-1.6-0.8c-0.3,0-0.6,0.1-0.9,0.3c-0.2,0.2-0.4,0.5-0.4,0.8
		c0,0.3,0.1,0.5,0.3,0.7c0.2,0.2,0.6,0.5,1.2,0.9c0.8,0.4,1.3,0.8,1.6,1.2c0.3,0.4,0.4,0.8,0.4,1.3c0,0.7-0.2,1.2-0.7,1.7
		c-0.5,0.5-1,0.7-1.7,0.7c-0.5,0-0.9-0.1-1.3-0.3c-0.4-0.2-0.8-0.5-1.1-0.8l0.7-0.7c0.5,0.6,1.1,0.9,1.7,0.9c0.4,0,0.8-0.1,1.1-0.4
		c0.3-0.3,0.4-0.6,0.4-0.9c0-0.3-0.1-0.6-0.3-0.8c-0.2-0.2-0.6-0.5-1.3-0.9c-0.7-0.4-1.2-0.7-1.5-1.1c-0.3-0.4-0.4-0.8-0.4-1.3
		c0-0.6,0.2-1.1,0.6-1.5c0.4-0.4,0.9-0.6,1.6-0.6C54.5,80.1,55.2,80.4,56,81.2z"/>
	<path fill="#3C3C3B" d="M65.5,85.7l0.9,0.5c-0.3,0.6-0.6,1-1,1.4c-0.4,0.3-0.8,0.6-1.3,0.8c-0.5,0.2-1,0.3-1.6,0.3
		c-1.3,0-2.3-0.4-3.1-1.3c-0.7-0.9-1.1-1.8-1.1-2.9c0-1,0.3-1.9,0.9-2.7c0.8-1,1.9-1.5,3.2-1.5c1.4,0,2.5,0.5,3.3,1.6
		c0.6,0.7,0.9,1.7,0.9,2.8h-7.3c0,0.9,0.3,1.7,0.9,2.3c0.6,0.6,1.3,0.9,2.1,0.9c0.4,0,0.8-0.1,1.2-0.2c0.4-0.1,0.7-0.3,1-0.6
		C64.9,86.6,65.2,86.2,65.5,85.7z M65.5,83.5c-0.1-0.6-0.3-1-0.6-1.3c-0.3-0.3-0.6-0.6-1-0.8c-0.4-0.2-0.9-0.3-1.4-0.3
		c-0.8,0-1.5,0.3-2,0.8c-0.4,0.4-0.7,0.9-0.9,1.7H65.5z"/>
	<path fill="#3C3C3B" d="M69.1,80.3h1.1v1.2c0.3-0.5,0.7-0.8,1-1c0.4-0.2,0.7-0.3,1.1-0.3c0.3,0,0.6,0.1,0.9,0.3l-0.5,0.9
		c-0.2-0.1-0.4-0.1-0.5-0.1c-0.3,0-0.7,0.1-1,0.4c-0.3,0.3-0.6,0.7-0.7,1.3c-0.1,0.5-0.2,1.4-0.2,2.8v2.7h-1.1V80.3z"/>
	<path fill="#3C3C3B" d="M75.9,76.5h1.6l-2.2,2.3h-1L75.9,76.5z M74.8,80.3h1v8.1h-1V80.3z"/>
	<path fill="#3C3C3B" d="M87,80.3v8.1h-1V87c-0.4,0.5-0.9,0.9-1.5,1.2c-0.5,0.3-1.1,0.4-1.8,0.4c-1.1,0-2.1-0.4-2.9-1.2
		c-0.8-0.8-1.2-1.8-1.2-3c0-1.2,0.4-2.2,1.2-3c0.8-0.8,1.8-1.2,2.9-1.2c0.7,0,1.3,0.1,1.8,0.4c0.5,0.3,1,0.7,1.4,1.3v-1.5H87z
		 M82.8,81.1c-0.6,0-1.1,0.1-1.6,0.4c-0.5,0.3-0.9,0.7-1.2,1.2c-0.3,0.5-0.4,1.1-0.4,1.6c0,0.6,0.1,1.1,0.4,1.6
		c0.3,0.5,0.7,0.9,1.2,1.2c0.5,0.3,1,0.4,1.6,0.4c0.6,0,1.1-0.1,1.6-0.4c0.5-0.3,0.9-0.7,1.2-1.2c0.3-0.5,0.4-1,0.4-1.7
		c0-0.9-0.3-1.7-0.9-2.3C84.5,81.4,83.7,81.1,82.8,81.1z"/>
	<path fill="#3C3C3B" d="M91.2,86.3l1,0.5l-1.5,2.8L90,89.3L91.2,86.3z"/>
	<path fill="#3C3C3B" d="M100.6,77.4h5.5v1.1h-4.4v3.4h4.4V83h-4.4v5.4h-1.1V77.4z"/>
	<path fill="#3C3C3B" d="M116.7,80.3v8.1h-1V87c-0.4,0.5-0.9,0.9-1.5,1.2c-0.5,0.3-1.1,0.4-1.8,0.4c-1.1,0-2.1-0.4-2.9-1.2
		c-0.8-0.8-1.2-1.8-1.2-3c0-1.2,0.4-2.2,1.2-3c0.8-0.8,1.8-1.2,2.9-1.2c0.7,0,1.3,0.1,1.8,0.4c0.5,0.3,1,0.7,1.4,1.3v-1.5H116.7z
		 M112.6,81.1c-0.6,0-1.1,0.1-1.6,0.4c-0.5,0.3-0.9,0.7-1.2,1.2c-0.3,0.5-0.4,1.1-0.4,1.6c0,0.6,0.1,1.1,0.4,1.6
		c0.3,0.5,0.7,0.9,1.2,1.2c0.5,0.3,1,0.4,1.6,0.4c0.6,0,1.1-0.1,1.6-0.4c0.5-0.3,0.9-0.7,1.2-1.2c0.3-0.5,0.4-1,0.4-1.7
		c0-0.9-0.3-1.7-0.9-2.3C114.2,81.4,113.5,81.1,112.6,81.1z"/>
	<path fill="#3C3C3B" d="M119.8,77.2h1v11.2h-1V77.2z"/>
	<path fill="#3C3C3B" d="M131.9,77.2v11.2h-1V87c-0.4,0.5-0.9,0.9-1.5,1.2c-0.5,0.3-1.1,0.4-1.8,0.4c-1.1,0-2.1-0.4-2.9-1.2
		c-0.8-0.8-1.2-1.8-1.2-3c0-1.2,0.4-2.2,1.2-3c0.8-0.8,1.8-1.2,2.9-1.2c0.7,0,1.3,0.1,1.8,0.4c0.5,0.3,1,0.7,1.4,1.3v-4.6H131.9z
		 M127.8,81.1c-0.6,0-1.1,0.1-1.6,0.4c-0.5,0.3-0.9,0.7-1.2,1.2c-0.3,0.5-0.4,1.1-0.4,1.6c0,0.6,0.1,1.1,0.4,1.6
		c0.3,0.5,0.7,0.9,1.2,1.2c0.5,0.3,1,0.4,1.6,0.4c0.6,0,1.1-0.1,1.6-0.4c0.5-0.3,0.9-0.7,1.2-1.2c0.3-0.5,0.4-1,0.4-1.7
		c0-0.9-0.3-1.7-0.9-2.3C129.4,81.4,128.7,81.1,127.8,81.1z"/>
	<path fill="#3C3C3B" d="M143.2,80.3v8.1h-1V87c-0.4,0.5-0.9,0.9-1.5,1.2c-0.5,0.3-1.1,0.4-1.8,0.4c-1.1,0-2.1-0.4-2.9-1.2
		c-0.8-0.8-1.2-1.8-1.2-3c0-1.2,0.4-2.2,1.2-3c0.8-0.8,1.8-1.2,2.9-1.2c0.7,0,1.3,0.1,1.8,0.4c0.5,0.3,1,0.7,1.4,1.3v-1.5H143.2z
		 M139.1,81.1c-0.6,0-1.1,0.1-1.6,0.4c-0.5,0.3-0.9,0.7-1.2,1.2c-0.3,0.5-0.4,1.1-0.4,1.6c0,0.6,0.1,1.1,0.4,1.6
		c0.3,0.5,0.7,0.9,1.2,1.2c0.5,0.3,1,0.4,1.6,0.4c0.6,0,1.1-0.1,1.6-0.4c0.5-0.3,0.9-0.7,1.2-1.2c0.3-0.5,0.4-1,0.4-1.7
		c0-0.9-0.3-1.7-0.9-2.3C140.7,81.4,140,81.1,139.1,81.1z"/>
	<path fill="#3C3C3B" d="M150.5,81.2l-0.7,0.7c-0.6-0.5-1.1-0.8-1.6-0.8c-0.3,0-0.6,0.1-0.9,0.3c-0.2,0.2-0.4,0.5-0.4,0.8
		c0,0.3,0.1,0.5,0.3,0.7c0.2,0.2,0.6,0.5,1.2,0.9c0.8,0.4,1.3,0.8,1.6,1.2c0.3,0.4,0.4,0.8,0.4,1.3c0,0.7-0.2,1.2-0.7,1.7
		c-0.5,0.5-1,0.7-1.7,0.7c-0.5,0-0.9-0.1-1.3-0.3c-0.4-0.2-0.8-0.5-1.1-0.8l0.7-0.7c0.5,0.6,1.1,0.9,1.7,0.9c0.4,0,0.8-0.1,1.1-0.4
		c0.3-0.3,0.4-0.6,0.4-0.9c0-0.3-0.1-0.6-0.3-0.8c-0.2-0.2-0.6-0.5-1.3-0.9c-0.7-0.4-1.2-0.7-1.5-1.1c-0.3-0.4-0.4-0.8-0.4-1.3
		c0-0.6,0.2-1.1,0.6-1.5c0.4-0.4,0.9-0.6,1.6-0.6C149,80.1,149.7,80.4,150.5,81.2z"/>
	<path fill="#3C3C3B" d="M157.5,80.3h1.1l2.8,6.2l2.7-6.2h1.1l-4.8,11h-1.1l1.6-3.6L157.5,80.3z"/>
	<path fill="#3C3C3B" d="M171.8,77.4h1.2l3.6,8.4l3.7-8.4h1.2l-4.7,10.9h-0.2L171.8,77.4z"/>
	<path fill="#3C3C3B" d="M189.3,85.7l0.9,0.5c-0.3,0.6-0.6,1-1,1.4c-0.4,0.3-0.8,0.6-1.3,0.8c-0.5,0.2-1,0.3-1.6,0.3
		c-1.3,0-2.3-0.4-3.1-1.3c-0.7-0.9-1.1-1.8-1.1-2.9c0-1,0.3-1.9,0.9-2.7c0.8-1,1.9-1.5,3.2-1.5c1.4,0,2.5,0.5,3.3,1.6
		c0.6,0.7,0.9,1.7,0.9,2.8h-7.3c0,0.9,0.3,1.7,0.9,2.3c0.6,0.6,1.3,0.9,2.1,0.9c0.4,0,0.8-0.1,1.2-0.2c0.4-0.1,0.7-0.3,1-0.6
		C188.7,86.6,189,86.2,189.3,85.7z M189.3,83.5c-0.1-0.6-0.3-1-0.6-1.3c-0.3-0.3-0.6-0.6-1.1-0.8c-0.4-0.2-0.9-0.3-1.4-0.3
		c-0.8,0-1.5,0.3-2,0.8c-0.4,0.4-0.7,0.9-0.9,1.7H189.3z"/>
	<path fill="#3C3C3B" d="M197.4,81.2l-0.7,0.7c-0.6-0.5-1.1-0.8-1.6-0.8c-0.3,0-0.6,0.1-0.9,0.3c-0.2,0.2-0.4,0.5-0.4,0.8
		c0,0.3,0.1,0.5,0.3,0.7c0.2,0.2,0.6,0.5,1.2,0.9c0.8,0.4,1.3,0.8,1.6,1.2c0.3,0.4,0.4,0.8,0.4,1.3c0,0.7-0.2,1.2-0.7,1.7
		c-0.5,0.5-1,0.7-1.7,0.7c-0.5,0-0.9-0.1-1.3-0.3c-0.4-0.2-0.8-0.5-1.1-0.8l0.7-0.7c0.5,0.6,1.1,0.9,1.7,0.9c0.4,0,0.8-0.1,1.1-0.4
		c0.3-0.3,0.4-0.6,0.4-0.9c0-0.3-0.1-0.6-0.3-0.8c-0.2-0.2-0.6-0.5-1.3-0.9c-0.7-0.4-1.2-0.7-1.5-1.1c-0.3-0.4-0.4-0.8-0.4-1.3
		c0-0.6,0.2-1.1,0.6-1.5c0.4-0.4,0.9-0.6,1.6-0.6C195.9,80.1,196.6,80.4,197.4,81.2z"/>
	<path fill="#3C3C3B" d="M201,77.3h1v3h1.6v0.9H202v7.2h-1v-7.2h-1.4v-0.9h1.4V77.3z"/>
	<path fill="#3C3C3B" d="M206.5,77c0.2,0,0.4,0.1,0.6,0.3c0.2,0.2,0.3,0.4,0.3,0.6c0,0.2-0.1,0.4-0.3,0.6c-0.2,0.2-0.4,0.3-0.6,0.3
		c-0.2,0-0.4-0.1-0.6-0.3c-0.2-0.2-0.3-0.4-0.3-0.6c0-0.2,0.1-0.4,0.3-0.6C206.1,77,206.3,77,206.5,77z M206,80.3h1v8.1h-1V80.3z"/>
	<path fill="#3C3C3B" d="M218.1,77.2v11.2h-1V87c-0.4,0.5-0.9,0.9-1.5,1.2c-0.5,0.3-1.1,0.4-1.8,0.4c-1.1,0-2.1-0.4-2.9-1.2
		c-0.8-0.8-1.2-1.8-1.2-3c0-1.2,0.4-2.2,1.2-3c0.8-0.8,1.8-1.2,2.9-1.2c0.7,0,1.3,0.1,1.8,0.4c0.5,0.3,1,0.7,1.4,1.3v-4.6H218.1z
		 M214,81.1c-0.6,0-1.1,0.1-1.6,0.4c-0.5,0.3-0.9,0.7-1.2,1.2c-0.3,0.5-0.4,1.1-0.4,1.6c0,0.6,0.1,1.1,0.4,1.6
		c0.3,0.5,0.7,0.9,1.2,1.2c0.5,0.3,1,0.4,1.6,0.4c0.6,0,1.1-0.1,1.6-0.4c0.5-0.3,0.9-0.7,1.2-1.2c0.3-0.5,0.4-1,0.4-1.7
		c0-0.9-0.3-1.7-0.9-2.3C215.6,81.4,214.9,81.1,214,81.1z"/>
	<path fill="#3C3C3B" d="M225.2,80.1c1.2,0,2.3,0.5,3.1,1.3c0.7,0.8,1.1,1.8,1.1,2.9c0,1.1-0.4,2.1-1.2,3c-0.8,0.8-1.8,1.3-3,1.3
		c-1.2,0-2.2-0.4-3-1.3c-0.8-0.8-1.2-1.8-1.2-3c0-1.1,0.4-2.1,1.1-2.9C222.9,80.5,224,80.1,225.2,80.1z M225.2,81.1
		c-0.9,0-1.6,0.3-2.2,1c-0.6,0.6-0.9,1.4-0.9,2.3c0,0.6,0.1,1.1,0.4,1.6c0.3,0.5,0.7,0.9,1.1,1.2c0.5,0.3,1,0.4,1.6,0.4
		c0.6,0,1.1-0.1,1.6-0.4c0.5-0.3,0.9-0.7,1.1-1.2c0.3-0.5,0.4-1,0.4-1.6c0-0.9-0.3-1.7-0.9-2.3C226.8,81.4,226.1,81.1,225.2,81.1z"
		/>
	<path fill="#3C3C3B" d="M236.3,81.2l-0.7,0.7c-0.6-0.5-1.1-0.8-1.6-0.8c-0.3,0-0.6,0.1-0.9,0.3c-0.2,0.2-0.4,0.5-0.4,0.8
		c0,0.3,0.1,0.5,0.3,0.7c0.2,0.2,0.6,0.5,1.2,0.9c0.8,0.4,1.3,0.8,1.6,1.2c0.3,0.4,0.4,0.8,0.4,1.3c0,0.7-0.2,1.2-0.7,1.7
		c-0.5,0.5-1,0.7-1.7,0.7c-0.5,0-0.9-0.1-1.3-0.3c-0.4-0.2-0.8-0.5-1.1-0.8l0.7-0.7c0.5,0.6,1.1,0.9,1.7,0.9c0.4,0,0.8-0.1,1.1-0.4
		c0.3-0.3,0.4-0.6,0.4-0.9c0-0.3-0.1-0.6-0.3-0.8c-0.2-0.2-0.6-0.5-1.3-0.9c-0.7-0.4-1.2-0.7-1.5-1.1c-0.3-0.4-0.4-0.8-0.4-1.3
		c0-0.6,0.2-1.1,0.6-1.5c0.4-0.4,0.9-0.6,1.6-0.6C234.8,80.1,235.5,80.4,236.3,81.2z"/>
	<path fill="#3C3C3B" d="M240.2,86.7c0.3,0,0.5,0.1,0.6,0.3c0.2,0.2,0.3,0.4,0.3,0.7c0,0.3-0.1,0.5-0.3,0.6
		c-0.2,0.2-0.4,0.3-0.6,0.3c-0.3,0-0.5-0.1-0.6-0.3c-0.2-0.2-0.3-0.4-0.3-0.6c0-0.3,0.1-0.5,0.3-0.7
		C239.7,86.8,239.9,86.7,240.2,86.7z"/>
</g>
<g>
	<path fill="#3C3C3B" d="M8.5,121.3h2.1c0.9,0,1.5,0.1,2,0.3c0.5,0.2,0.8,0.5,1.1,0.9c0.3,0.4,0.4,0.9,0.4,1.4
		c0,0.5-0.1,0.9-0.4,1.3c-0.2,0.4-0.6,0.7-1,1c0.6,0.2,1,0.4,1.3,0.7c0.3,0.3,0.5,0.6,0.7,0.9c0.2,0.4,0.3,0.8,0.3,1.2
		c0,0.9-0.3,1.6-1,2.2c-0.6,0.6-1.5,0.9-2.6,0.9h-3V121.3z M9.6,122.4v3.5h0.6c0.8,0,1.3-0.1,1.7-0.2c0.4-0.1,0.6-0.4,0.8-0.7
		c0.2-0.3,0.3-0.6,0.3-1c0-0.5-0.2-0.9-0.5-1.2c-0.3-0.3-0.9-0.4-1.7-0.4H9.6z M9.6,126.9v4.2H11c0.8,0,1.4-0.1,1.8-0.2
		c0.4-0.2,0.7-0.4,0.9-0.7c0.2-0.3,0.3-0.7,0.3-1.1c0-0.5-0.2-0.9-0.5-1.3c-0.3-0.4-0.8-0.6-1.3-0.7c-0.4-0.1-1-0.1-1.9-0.1H9.6z"/>
	<path fill="#3C3C3B" d="M21.8,123.9c1.2,0,2.3,0.5,3.1,1.3c0.7,0.8,1.1,1.8,1.1,2.9c0,1.1-0.4,2.1-1.2,3c-0.8,0.8-1.8,1.3-3,1.3
		c-1.2,0-2.2-0.4-3-1.3c-0.8-0.8-1.2-1.8-1.2-3c0-1.1,0.4-2.1,1.1-2.9C19.5,124.4,20.5,123.9,21.8,123.9z M21.8,124.9
		c-0.9,0-1.6,0.3-2.2,1c-0.6,0.6-0.9,1.4-0.9,2.3c0,0.6,0.1,1.1,0.4,1.6c0.3,0.5,0.7,0.9,1.1,1.2c0.5,0.3,1,0.4,1.6,0.4
		c0.6,0,1.1-0.1,1.6-0.4c0.5-0.3,0.9-0.7,1.1-1.2c0.3-0.5,0.4-1,0.4-1.6c0-0.9-0.3-1.7-0.9-2.3C23.4,125.3,22.6,124.9,21.8,124.9z"
		/>
	<path fill="#3C3C3B" d="M28.7,121h1v11.2h-1V121z"/>
	<path fill="#3C3C3B" d="M36.8,125l-0.7,0.7c-0.6-0.5-1.1-0.8-1.6-0.8c-0.3,0-0.6,0.1-0.9,0.3c-0.2,0.2-0.4,0.5-0.4,0.8
		c0,0.3,0.1,0.5,0.3,0.7c0.2,0.2,0.6,0.5,1.2,0.9c0.8,0.4,1.3,0.8,1.6,1.2c0.3,0.4,0.4,0.8,0.4,1.3c0,0.7-0.2,1.2-0.7,1.7
		c-0.5,0.5-1,0.7-1.7,0.7c-0.5,0-0.9-0.1-1.3-0.3c-0.4-0.2-0.8-0.5-1.1-0.8l0.7-0.7c0.5,0.6,1.1,0.9,1.7,0.9c0.4,0,0.8-0.1,1.1-0.4
		c0.3-0.3,0.4-0.6,0.4-0.9c0-0.3-0.1-0.6-0.3-0.8c-0.2-0.2-0.6-0.5-1.3-0.9c-0.7-0.4-1.2-0.7-1.5-1.1c-0.3-0.4-0.4-0.8-0.4-1.3
		c0-0.6,0.2-1.1,0.6-1.5c0.4-0.4,0.9-0.6,1.6-0.6C35.3,123.9,36,124.3,36.8,125z"/>
	<path fill="#3C3C3B" d="M43.3,123.9c1.2,0,2.3,0.5,3.1,1.3c0.7,0.8,1.1,1.8,1.1,2.9c0,1.1-0.4,2.1-1.2,3c-0.8,0.8-1.8,1.3-3,1.3
		c-1.2,0-2.2-0.4-3-1.3c-0.8-0.8-1.2-1.8-1.2-3c0-1.1,0.4-2.1,1.1-2.9C41.1,124.4,42.1,123.9,43.3,123.9z M43.3,124.9
		c-0.9,0-1.6,0.3-2.2,1c-0.6,0.6-0.9,1.4-0.9,2.3c0,0.6,0.1,1.1,0.4,1.6c0.3,0.5,0.7,0.9,1.1,1.2c0.5,0.3,1,0.4,1.6,0.4
		c0.6,0,1.1-0.1,1.6-0.4c0.5-0.3,0.9-0.7,1.1-1.2c0.3-0.5,0.4-1,0.4-1.6c0-0.9-0.3-1.7-0.9-2.3C44.9,125.3,44.2,124.9,43.3,124.9z"
		/>
	<path fill="#3C3C3B" d="M54.4,125l-0.7,0.7c-0.6-0.5-1.1-0.8-1.6-0.8c-0.3,0-0.6,0.1-0.9,0.3c-0.2,0.2-0.4,0.5-0.4,0.8
		c0,0.3,0.1,0.5,0.3,0.7c0.2,0.2,0.6,0.5,1.2,0.9c0.8,0.4,1.3,0.8,1.6,1.2c0.3,0.4,0.4,0.8,0.4,1.3c0,0.7-0.2,1.2-0.7,1.7
		c-0.5,0.5-1,0.7-1.7,0.7c-0.5,0-0.9-0.1-1.3-0.3c-0.4-0.2-0.8-0.5-1.1-0.8l0.7-0.7c0.5,0.6,1.1,0.9,1.7,0.9c0.4,0,0.8-0.1,1.1-0.4
		s0.4-0.6,0.4-0.9c0-0.3-0.1-0.6-0.3-0.8c-0.2-0.2-0.6-0.5-1.3-0.9c-0.7-0.4-1.2-0.7-1.5-1.1c-0.3-0.4-0.4-0.8-0.4-1.3
		c0-0.6,0.2-1.1,0.6-1.5c0.4-0.4,0.9-0.6,1.6-0.6C52.9,123.9,53.7,124.3,54.4,125z"/>
	<path fill="#3C3C3B" d="M58.2,130.2l1,0.5l-1.5,2.8l-0.7-0.3L58.2,130.2z"/>
	<path fill="#3C3C3B" d="M77.7,123.3l-0.9,0.7c-0.5-0.6-1-1.1-1.7-1.4c-0.7-0.3-1.4-0.5-2.2-0.5c-0.9,0-1.7,0.2-2.4,0.6
		c-0.7,0.4-1.3,1-1.7,1.7c-0.4,0.7-0.6,1.5-0.6,2.4c0,1.3,0.5,2.4,1.4,3.3c0.9,0.9,2.1,1.3,3.5,1.3c1.5,0,2.8-0.6,3.8-1.8l0.9,0.7
		c-0.5,0.7-1.2,1.2-2,1.6c-0.8,0.4-1.7,0.6-2.7,0.6c-1.9,0-3.4-0.6-4.5-1.9c-0.9-1.1-1.4-2.4-1.4-3.9c0-1.6,0.6-2.9,1.7-4
		c1.1-1.1,2.5-1.6,4.2-1.6c1,0,1.9,0.2,2.8,0.6C76.5,122,77.2,122.6,77.7,123.3z"/>
	<path fill="#3C3C3B" d="M84.5,123.9c1.2,0,2.3,0.5,3.1,1.3c0.7,0.8,1.1,1.8,1.1,2.9c0,1.1-0.4,2.1-1.2,3c-0.8,0.8-1.8,1.3-3,1.3
		c-1.2,0-2.2-0.4-3-1.3c-0.8-0.8-1.2-1.8-1.2-3c0-1.1,0.4-2.1,1.1-2.9C82.2,124.4,83.2,123.9,84.5,123.9z M84.5,124.9
		c-0.9,0-1.6,0.3-2.2,1c-0.6,0.6-0.9,1.4-0.9,2.3c0,0.6,0.1,1.1,0.4,1.6c0.3,0.5,0.7,0.9,1.1,1.2c0.5,0.3,1,0.4,1.6,0.4
		c0.6,0,1.1-0.1,1.6-0.4c0.5-0.3,0.9-0.7,1.1-1.2c0.3-0.5,0.4-1,0.4-1.6c0-0.9-0.3-1.7-0.9-2.3S85.3,124.9,84.5,124.9z"/>
	<path fill="#3C3C3B" d="M91.1,124.1h1.1v1.2c0.3-0.5,0.7-0.8,1-1c0.4-0.2,0.7-0.3,1.1-0.3c0.3,0,0.6,0.1,0.9,0.3l-0.5,0.9
		c-0.2-0.1-0.4-0.1-0.5-0.1c-0.3,0-0.7,0.1-1,0.4c-0.3,0.3-0.6,0.7-0.7,1.3c-0.1,0.5-0.2,1.4-0.2,2.8v2.7h-1.1V124.1z"/>
	<path fill="#3C3C3B" d="M96.6,124.1h1.1v1.2c0.3-0.5,0.6-0.8,1-1c0.4-0.2,0.7-0.3,1.1-0.3c0.3,0,0.6,0.1,0.9,0.3l-0.5,0.9
		c-0.2-0.1-0.4-0.1-0.5-0.1c-0.3,0-0.7,0.1-1,0.4c-0.3,0.3-0.6,0.7-0.7,1.3c-0.1,0.5-0.2,1.4-0.2,2.8v2.7h-1.1V124.1z"/>
	<path fill="#3C3C3B" d="M109.2,129.5l0.9,0.5c-0.3,0.6-0.6,1-1,1.4c-0.4,0.3-0.8,0.6-1.3,0.8c-0.5,0.2-1,0.3-1.6,0.3
		c-1.3,0-2.3-0.4-3.1-1.3c-0.7-0.9-1.1-1.8-1.1-2.9c0-1,0.3-1.9,0.9-2.7c0.8-1,1.9-1.5,3.2-1.5c1.4,0,2.5,0.5,3.3,1.6
		c0.6,0.7,0.9,1.7,0.9,2.8h-7.3c0,0.9,0.3,1.7,0.9,2.3c0.6,0.6,1.3,0.9,2.1,0.9c0.4,0,0.8-0.1,1.2-0.2c0.4-0.1,0.7-0.3,1-0.6
		C108.6,130.4,108.9,130,109.2,129.5z M109.2,127.3c-0.1-0.6-0.3-1-0.6-1.3c-0.3-0.3-0.6-0.6-1.1-0.8c-0.4-0.2-0.9-0.3-1.4-0.3
		c-0.8,0-1.5,0.3-2,0.8c-0.4,0.4-0.7,0.9-0.9,1.7H109.2z"/>
	<path fill="#3C3C3B" d="M121.2,124.1v8.1h-1v-1.4c-0.4,0.5-0.9,0.9-1.5,1.2c-0.5,0.3-1.1,0.4-1.8,0.4c-1.1,0-2.1-0.4-2.9-1.2
		c-0.8-0.8-1.2-1.8-1.2-3c0-1.2,0.4-2.2,1.2-3c0.8-0.8,1.8-1.2,2.9-1.2c0.7,0,1.3,0.1,1.8,0.4c0.5,0.3,1,0.7,1.4,1.3v-1.5H121.2z
		 M117.1,124.9c-0.6,0-1.1,0.1-1.6,0.4c-0.5,0.3-0.9,0.7-1.2,1.2c-0.3,0.5-0.4,1.1-0.4,1.6c0,0.6,0.1,1.1,0.4,1.6
		c0.3,0.5,0.7,0.9,1.2,1.2c0.5,0.3,1,0.4,1.6,0.4c0.6,0,1.1-0.1,1.6-0.4c0.5-0.3,0.9-0.7,1.2-1.2c0.3-0.5,0.4-1,0.4-1.7
		c0-0.9-0.3-1.7-0.9-2.3C118.7,125.2,118,124.9,117.1,124.9z"/>
	<path fill="#3C3C3B" d="M128.5,125l-0.7,0.7c-0.6-0.5-1.1-0.8-1.6-0.8c-0.3,0-0.6,0.1-0.9,0.3c-0.2,0.2-0.4,0.5-0.4,0.8
		c0,0.3,0.1,0.5,0.3,0.7c0.2,0.2,0.6,0.5,1.2,0.9c0.8,0.4,1.3,0.8,1.6,1.2c0.3,0.4,0.4,0.8,0.4,1.3c0,0.7-0.2,1.2-0.7,1.7
		c-0.5,0.5-1,0.7-1.7,0.7c-0.5,0-0.9-0.1-1.3-0.3c-0.4-0.2-0.8-0.5-1.1-0.8l0.7-0.7c0.5,0.6,1.1,0.9,1.7,0.9c0.4,0,0.8-0.1,1.1-0.4
		c0.3-0.3,0.4-0.6,0.4-0.9c0-0.3-0.1-0.6-0.3-0.8c-0.2-0.2-0.6-0.5-1.3-0.9c-0.7-0.4-1.2-0.7-1.5-1.1c-0.3-0.4-0.4-0.8-0.4-1.3
		c0-0.6,0.2-1.1,0.6-1.5c0.4-0.4,0.9-0.6,1.6-0.6C127,123.9,127.7,124.3,128.5,125z"/>
	<path fill="#3C3C3B" d="M132.3,130.2l1,0.5l-1.5,2.8l-0.7-0.3L132.3,130.2z"/>
	<path fill="#3C3C3B" d="M141.7,121.3h2.1c0.9,0,1.5,0.1,2,0.3c0.5,0.2,0.8,0.5,1.1,0.9c0.3,0.4,0.4,0.9,0.4,1.4
		c0,0.5-0.1,0.9-0.4,1.3c-0.2,0.4-0.6,0.7-1,1c0.6,0.2,1,0.4,1.3,0.7c0.3,0.3,0.5,0.6,0.7,0.9c0.2,0.4,0.3,0.8,0.3,1.2
		c0,0.9-0.3,1.6-1,2.2c-0.6,0.6-1.5,0.9-2.6,0.9h-3V121.3z M142.7,122.4v3.5h0.6c0.8,0,1.3-0.1,1.7-0.2c0.4-0.1,0.6-0.4,0.8-0.7
		c0.2-0.3,0.3-0.6,0.3-1c0-0.5-0.2-0.9-0.5-1.2c-0.3-0.3-0.9-0.4-1.7-0.4H142.7z M142.7,126.9v4.2h1.4c0.8,0,1.4-0.1,1.8-0.2
		c0.4-0.2,0.7-0.4,0.9-0.7c0.2-0.3,0.3-0.7,0.3-1.1c0-0.5-0.2-0.9-0.5-1.3c-0.3-0.4-0.8-0.6-1.3-0.7c-0.4-0.1-1-0.1-1.9-0.1H142.7z"
		/>
	<path fill="#3C3C3B" d="M151.4,120.8c0.2,0,0.4,0.1,0.6,0.3c0.2,0.2,0.3,0.4,0.3,0.6c0,0.2-0.1,0.4-0.3,0.6
		c-0.2,0.2-0.4,0.3-0.6,0.3c-0.2,0-0.4-0.1-0.6-0.3c-0.2-0.2-0.3-0.4-0.3-0.6c0-0.2,0.1-0.4,0.3-0.6
		C151,120.9,151.2,120.8,151.4,120.8z M150.9,124.1h1v8.1h-1V124.1z"/>
	<path fill="#3C3C3B" d="M154.8,121h1v11.2h-1V121z"/>
	<path fill="#3C3C3B" d="M158.8,121h1v11.2h-1V121z"/>
	<path fill="#3C3C3B" d="M169.7,129.5l0.9,0.5c-0.3,0.6-0.6,1-1,1.4c-0.4,0.3-0.8,0.6-1.3,0.8c-0.5,0.2-1,0.3-1.6,0.3
		c-1.3,0-2.3-0.4-3.1-1.3c-0.7-0.9-1.1-1.8-1.1-2.9c0-1,0.3-1.9,0.9-2.7c0.8-1,1.9-1.5,3.2-1.5c1.4,0,2.5,0.5,3.3,1.6
		c0.6,0.7,0.9,1.7,0.9,2.8h-7.3c0,0.9,0.3,1.7,0.9,2.3c0.6,0.6,1.3,0.9,2.1,0.9c0.4,0,0.8-0.1,1.2-0.2c0.4-0.1,0.7-0.3,1-0.6
		C169,130.4,169.3,130,169.7,129.5z M169.7,127.3c-0.1-0.6-0.3-1-0.6-1.3c-0.3-0.3-0.6-0.6-1-0.8c-0.4-0.2-0.9-0.3-1.4-0.3
		c-0.8,0-1.5,0.3-2,0.8c-0.4,0.4-0.7,0.9-0.9,1.7H169.7z"/>
	<path fill="#3C3C3B" d="M174.5,121.1h1v3h1.6v0.9h-1.6v7.2h-1V125h-1.4v-0.9h1.4V121.1z"/>
	<path fill="#3C3C3B" d="M186.5,129.5l0.9,0.5c-0.3,0.6-0.6,1-1,1.4c-0.4,0.3-0.8,0.6-1.3,0.8c-0.5,0.2-1,0.3-1.6,0.3
		c-1.3,0-2.3-0.4-3.1-1.3c-0.7-0.9-1.1-1.8-1.1-2.9c0-1,0.3-1.9,0.9-2.7c0.8-1,1.9-1.5,3.2-1.5c1.4,0,2.5,0.5,3.3,1.6
		c0.6,0.7,0.9,1.7,0.9,2.8h-7.3c0,0.9,0.3,1.7,0.9,2.3c0.6,0.6,1.3,0.9,2.1,0.9c0.4,0,0.8-0.1,1.2-0.2c0.4-0.1,0.7-0.3,1-0.6
		C185.9,130.4,186.2,130,186.5,129.5z M186.5,127.3c-0.1-0.6-0.3-1-0.6-1.3c-0.3-0.3-0.6-0.6-1.1-0.8c-0.4-0.2-0.9-0.3-1.4-0.3
		c-0.8,0-1.5,0.3-2,0.8c-0.4,0.4-0.7,0.9-0.9,1.7H186.5z"/>
	<path fill="#3C3C3B" d="M190.1,124.1h1.1v1.2c0.3-0.5,0.6-0.8,1-1c0.4-0.2,0.7-0.3,1.1-0.3c0.3,0,0.6,0.1,0.9,0.3l-0.5,0.9
		c-0.2-0.1-0.4-0.1-0.5-0.1c-0.3,0-0.7,0.1-1,0.4c-0.3,0.3-0.6,0.7-0.7,1.3c-0.1,0.5-0.2,1.4-0.2,2.8v2.7h-1.1V124.1z"/>
	<path fill="#3C3C3B" d="M204,124.1v8.1h-1v-1.4c-0.4,0.5-0.9,0.9-1.5,1.2c-0.5,0.3-1.1,0.4-1.8,0.4c-1.1,0-2.1-0.4-2.9-1.2
		c-0.8-0.8-1.2-1.8-1.2-3c0-1.2,0.4-2.2,1.2-3s1.8-1.2,2.9-1.2c0.7,0,1.3,0.1,1.8,0.4c0.5,0.3,1,0.7,1.4,1.3v-1.5H204z M199.8,124.9
		c-0.6,0-1.1,0.1-1.6,0.4c-0.5,0.3-0.9,0.7-1.2,1.2c-0.3,0.5-0.4,1.1-0.4,1.6c0,0.6,0.1,1.1,0.4,1.6c0.3,0.5,0.7,0.9,1.2,1.2
		c0.5,0.3,1,0.4,1.6,0.4c0.6,0,1.1-0.1,1.6-0.4c0.5-0.3,0.9-0.7,1.2-1.2c0.3-0.5,0.4-1,0.4-1.7c0-0.9-0.3-1.7-0.9-2.3
		C201.5,125.2,200.7,124.9,199.8,124.9z"/>
	<path fill="#3C3C3B" d="M211.3,125l-0.7,0.7c-0.6-0.5-1.1-0.8-1.6-0.8c-0.3,0-0.6,0.1-0.9,0.3c-0.2,0.2-0.4,0.5-0.4,0.8
		c0,0.3,0.1,0.5,0.3,0.7c0.2,0.2,0.6,0.5,1.2,0.9c0.8,0.4,1.3,0.8,1.6,1.2c0.3,0.4,0.4,0.8,0.4,1.3c0,0.7-0.2,1.2-0.7,1.7
		c-0.5,0.5-1,0.7-1.7,0.7c-0.5,0-0.9-0.1-1.3-0.3c-0.4-0.2-0.8-0.5-1.1-0.8l0.7-0.7c0.5,0.6,1.1,0.9,1.7,0.9c0.4,0,0.8-0.1,1.1-0.4
		c0.3-0.3,0.4-0.6,0.4-0.9c0-0.3-0.1-0.6-0.3-0.8c-0.2-0.2-0.6-0.5-1.3-0.9c-0.7-0.4-1.2-0.7-1.5-1.1c-0.3-0.4-0.4-0.8-0.4-1.3
		c0-0.6,0.2-1.1,0.6-1.5c0.4-0.4,0.9-0.6,1.6-0.6C209.8,123.9,210.5,124.3,211.3,125z"/>
</g>
<g>
	<path fill="#3C3C3B" d="M8.5,164.4h2.2c1.2,0,2.1,0.1,2.5,0.2c0.6,0.2,1.1,0.5,1.5,0.9c0.4,0.5,0.6,1.1,0.6,1.8
		c0,0.7-0.2,1.3-0.6,1.8c-0.4,0.5-0.9,0.8-1.6,1c-0.5,0.1-1.4,0.2-2.8,0.2H9.6v5.1H8.5V164.4z M9.6,165.4v3.7l1.8,0
		c0.7,0,1.3-0.1,1.6-0.2c0.3-0.1,0.6-0.4,0.8-0.7c0.2-0.3,0.3-0.6,0.3-1c0-0.4-0.1-0.7-0.3-1c-0.2-0.3-0.5-0.5-0.8-0.6
		c-0.3-0.1-0.9-0.2-1.6-0.2H9.6z"/>
	<path fill="#3C3C3B" d="M26.3,167.2v8.1h-1v-1.4c-0.4,0.5-0.9,0.9-1.5,1.2c-0.5,0.3-1.1,0.4-1.8,0.4c-1.1,0-2.1-0.4-2.9-1.2
		c-0.8-0.8-1.2-1.8-1.2-3c0-1.2,0.4-2.2,1.2-3c0.8-0.8,1.8-1.2,2.9-1.2c0.7,0,1.3,0.1,1.8,0.4c0.5,0.3,1,0.7,1.4,1.3v-1.5H26.3z
		 M22.1,168c-0.6,0-1.1,0.1-1.6,0.4s-0.9,0.7-1.2,1.2c-0.3,0.5-0.4,1.1-0.4,1.6c0,0.6,0.1,1.1,0.4,1.6c0.3,0.5,0.7,0.9,1.2,1.2
		c0.5,0.3,1,0.4,1.6,0.4c0.6,0,1.1-0.1,1.6-0.4c0.5-0.3,0.9-0.7,1.2-1.2c0.3-0.5,0.4-1,0.4-1.7c0-0.9-0.3-1.7-0.9-2.3
		C23.8,168.3,23,168,22.1,168z"/>
	<path fill="#3C3C3B" d="M29.5,167.2h1v1.4c0.4-0.6,0.9-1,1.4-1.2c0.5-0.3,1.1-0.4,1.6-0.4c0.6,0,1.1,0.2,1.6,0.5
		c0.5,0.3,0.8,0.7,1,1.2c0.2,0.5,0.3,1.3,0.3,2.4v4.2h-1v-3.8c0-0.9,0-1.5-0.1-1.9c-0.1-0.5-0.4-0.9-0.7-1.2
		c-0.3-0.3-0.8-0.4-1.3-0.4c-0.6,0-1.2,0.2-1.7,0.6c-0.5,0.4-0.8,0.9-1,1.5c-0.1,0.4-0.1,1.1-0.1,2.2v3h-1V167.2z"/>
	<path fill="#3C3C3B" d="M40.6,164.2h1v3h1.6v0.9h-1.6v7.2h-1v-7.2h-1.4v-0.9h1.4V164.2z"/>
	<path fill="#3C3C3B" d="M53.8,167.2v8.1h-1v-1.4c-0.4,0.5-0.9,0.9-1.5,1.2c-0.5,0.3-1.1,0.4-1.8,0.4c-1.1,0-2.1-0.4-2.9-1.2
		c-0.8-0.8-1.2-1.8-1.2-3c0-1.2,0.4-2.2,1.2-3c0.8-0.8,1.8-1.2,2.9-1.2c0.7,0,1.3,0.1,1.8,0.4c0.5,0.3,1,0.7,1.4,1.3v-1.5H53.8z
		 M49.6,168c-0.6,0-1.1,0.1-1.6,0.4c-0.5,0.3-0.9,0.7-1.2,1.2c-0.3,0.5-0.4,1.1-0.4,1.6c0,0.6,0.1,1.1,0.4,1.6
		c0.3,0.5,0.7,0.9,1.2,1.2c0.5,0.3,1,0.4,1.6,0.4c0.6,0,1.1-0.1,1.6-0.4c0.5-0.3,0.9-0.7,1.2-1.2c0.3-0.5,0.4-1,0.4-1.7
		c0-0.9-0.3-1.7-0.9-2.3C51.3,168.3,50.5,168,49.6,168z"/>
	<path fill="#3C3C3B" d="M56.8,164.1h1v11.2h-1V164.1z"/>
	<path fill="#3C3C3B" d="M64.7,167c1.2,0,2.3,0.5,3.1,1.3c0.7,0.8,1.1,1.8,1.1,2.9c0,1.1-0.4,2.1-1.2,3c-0.8,0.8-1.8,1.3-3,1.3
		c-1.2,0-2.2-0.4-3-1.3c-0.8-0.8-1.2-1.8-1.2-3c0-1.1,0.4-2.1,1.1-2.9C62.5,167.4,63.5,167,64.7,167z M64.7,168
		c-0.9,0-1.6,0.3-2.2,1c-0.6,0.6-0.9,1.4-0.9,2.3c0,0.6,0.1,1.1,0.4,1.6c0.3,0.5,0.7,0.9,1.1,1.2c0.5,0.3,1,0.4,1.6,0.4
		c0.6,0,1.1-0.1,1.6-0.4c0.5-0.3,0.9-0.7,1.1-1.2c0.3-0.5,0.4-1,0.4-1.6c0-0.9-0.3-1.7-0.9-2.3C66.3,168.3,65.6,168,64.7,168z"/>
	<path fill="#3C3C3B" d="M71.8,167.2h1v1.4c0.4-0.6,0.9-1,1.4-1.2c0.5-0.3,1.1-0.4,1.6-0.4c0.6,0,1.1,0.2,1.6,0.5
		c0.5,0.3,0.8,0.7,1,1.2c0.2,0.5,0.3,1.3,0.3,2.4v4.2h-1v-3.8c0-0.9,0-1.5-0.1-1.9c-0.1-0.5-0.4-0.9-0.7-1.2
		c-0.3-0.3-0.8-0.4-1.3-0.4c-0.6,0-1.2,0.2-1.7,0.6c-0.5,0.4-0.8,0.9-1,1.5c-0.1,0.4-0.1,1.1-0.1,2.2v3h-1V167.2z"/>
	<path fill="#3C3C3B" d="M88.7,172.6l0.9,0.5c-0.3,0.6-0.6,1-1,1.4c-0.4,0.3-0.8,0.6-1.3,0.8c-0.5,0.2-1,0.3-1.6,0.3
		c-1.3,0-2.3-0.4-3.1-1.3c-0.7-0.9-1.1-1.8-1.1-2.9c0-1,0.3-1.9,0.9-2.7c0.8-1,1.9-1.5,3.2-1.5c1.4,0,2.5,0.5,3.3,1.6
		c0.6,0.7,0.9,1.7,0.9,2.8h-7.3c0,0.9,0.3,1.7,0.9,2.3c0.6,0.6,1.3,0.9,2.1,0.9c0.4,0,0.8-0.1,1.2-0.2c0.4-0.1,0.7-0.3,1-0.6
		C88.1,173.5,88.4,173.1,88.7,172.6z M88.7,170.4c-0.1-0.6-0.3-1-0.6-1.3c-0.3-0.3-0.6-0.6-1.1-0.8c-0.4-0.2-0.9-0.3-1.4-0.3
		c-0.8,0-1.5,0.3-2,0.8c-0.4,0.4-0.7,0.9-0.9,1.7H88.7z"/>
	<path fill="#3C3C3B" d="M96.8,168.1l-0.7,0.7c-0.6-0.5-1.1-0.8-1.6-0.8c-0.3,0-0.6,0.1-0.9,0.3c-0.2,0.2-0.4,0.5-0.4,0.8
		c0,0.3,0.1,0.5,0.3,0.7c0.2,0.2,0.6,0.5,1.2,0.9c0.8,0.4,1.3,0.8,1.6,1.2c0.3,0.4,0.4,0.8,0.4,1.3c0,0.7-0.2,1.2-0.7,1.7
		c-0.5,0.5-1,0.7-1.7,0.7c-0.5,0-0.9-0.1-1.3-0.3c-0.4-0.2-0.8-0.5-1.1-0.8l0.7-0.7c0.5,0.6,1.1,0.9,1.7,0.9c0.4,0,0.8-0.1,1.1-0.4
		c0.3-0.3,0.4-0.6,0.4-0.9c0-0.3-0.1-0.6-0.3-0.8c-0.2-0.2-0.6-0.5-1.3-0.9c-0.7-0.4-1.2-0.7-1.5-1.1c-0.3-0.4-0.4-0.8-0.4-1.3
		c0-0.6,0.2-1.1,0.6-1.5c0.4-0.4,0.9-0.6,1.6-0.6C95.3,167,96,167.4,96.8,168.1z"/>
	<path fill="#3C3C3B" d="M100.5,173.3l1,0.5l-1.5,2.8l-0.7-0.3L100.5,173.3z"/>
	<path fill="#3C3C3B" d="M113.5,164.4h1.1v7.4c0,1.1-0.1,1.9-0.3,2.4c-0.2,0.4-0.5,0.8-0.9,1.1c-0.4,0.3-0.9,0.4-1.5,0.4
		c-0.4,0-0.9-0.1-1.3-0.3c-0.4-0.2-0.9-0.5-1.4-0.9l0.6-0.9c0.6,0.4,1,0.7,1.4,0.8c0.2,0.1,0.5,0.2,0.7,0.2c0.3,0,0.6-0.1,0.8-0.3
		c0.3-0.2,0.4-0.4,0.5-0.7c0.1-0.3,0.2-0.9,0.2-1.8V164.4z"/>
	<path fill="#3C3C3B" d="M124.8,172.6l0.9,0.5c-0.3,0.6-0.6,1-1,1.4c-0.4,0.3-0.8,0.6-1.3,0.8c-0.5,0.2-1,0.3-1.6,0.3
		c-1.3,0-2.3-0.4-3.1-1.3c-0.7-0.9-1.1-1.8-1.1-2.9c0-1,0.3-1.9,0.9-2.7c0.8-1,1.9-1.5,3.2-1.5c1.4,0,2.5,0.5,3.3,1.6
		c0.6,0.7,0.9,1.7,0.9,2.8h-7.3c0,0.9,0.3,1.7,0.9,2.3c0.6,0.6,1.3,0.9,2.1,0.9c0.4,0,0.8-0.1,1.2-0.2c0.4-0.1,0.7-0.3,1-0.6
		C124.1,173.5,124.4,173.1,124.8,172.6z M124.8,170.4c-0.1-0.6-0.3-1-0.6-1.3c-0.3-0.3-0.6-0.6-1-0.8c-0.4-0.2-0.9-0.3-1.4-0.3
		c-0.8,0-1.5,0.3-2,0.8c-0.4,0.4-0.7,0.9-0.9,1.7H124.8z"/>
	<path fill="#3C3C3B" d="M136.8,167.2v8.1h-1v-1.4c-0.4,0.5-0.9,0.9-1.5,1.2c-0.5,0.3-1.1,0.4-1.8,0.4c-1.1,0-2.1-0.4-2.9-1.2
		c-0.8-0.8-1.2-1.8-1.2-3c0-1.2,0.4-2.2,1.2-3c0.8-0.8,1.8-1.2,2.9-1.2c0.7,0,1.3,0.1,1.8,0.4c0.5,0.3,1,0.7,1.4,1.3v-1.5H136.8z
		 M132.6,168c-0.6,0-1.1,0.1-1.6,0.4s-0.9,0.7-1.2,1.2c-0.3,0.5-0.4,1.1-0.4,1.6c0,0.6,0.1,1.1,0.4,1.6c0.3,0.5,0.7,0.9,1.2,1.2
		c0.5,0.3,1,0.4,1.6,0.4c0.6,0,1.1-0.1,1.6-0.4c0.5-0.3,0.9-0.7,1.2-1.2c0.3-0.5,0.4-1,0.4-1.7c0-0.9-0.3-1.7-0.9-2.3
		C134.3,168.3,133.5,168,132.6,168z"/>
	<path fill="#3C3C3B" d="M140,167.2h1v1.4c0.4-0.6,0.9-1,1.4-1.2c0.5-0.3,1.1-0.4,1.6-0.4c0.6,0,1.1,0.2,1.6,0.5
		c0.5,0.3,0.8,0.7,1,1.2s0.3,1.3,0.3,2.4v4.2h-1v-3.8c0-0.9,0-1.5-0.1-1.9c-0.1-0.5-0.4-0.9-0.7-1.2c-0.3-0.3-0.8-0.4-1.3-0.4
		c-0.6,0-1.2,0.2-1.7,0.6c-0.5,0.4-0.8,0.9-1,1.5c-0.1,0.4-0.1,1.1-0.1,2.2v3h-1V167.2z"/>
	<path fill="#3C3C3B" d="M154.2,168.1l-0.7,0.7c-0.6-0.5-1.1-0.8-1.6-0.8c-0.3,0-0.6,0.1-0.9,0.3c-0.2,0.2-0.4,0.5-0.4,0.8
		c0,0.3,0.1,0.5,0.3,0.7c0.2,0.2,0.6,0.5,1.2,0.9c0.8,0.4,1.3,0.8,1.6,1.2c0.3,0.4,0.4,0.8,0.4,1.3c0,0.7-0.2,1.2-0.7,1.7
		c-0.5,0.5-1,0.7-1.7,0.7c-0.5,0-0.9-0.1-1.3-0.3c-0.4-0.2-0.8-0.5-1.1-0.8l0.7-0.7c0.5,0.6,1.1,0.9,1.7,0.9c0.4,0,0.8-0.1,1.1-0.4
		c0.3-0.3,0.4-0.6,0.4-0.9c0-0.3-0.1-0.6-0.3-0.8c-0.2-0.2-0.6-0.5-1.3-0.9c-0.7-0.4-1.2-0.7-1.5-1.1c-0.3-0.4-0.4-0.8-0.4-1.3
		c0-0.6,0.2-1.1,0.6-1.5c0.4-0.4,0.9-0.6,1.6-0.6C152.7,167,153.5,167.4,154.2,168.1z"/>
	<path fill="#3C3C3B" d="M158,173.3l1,0.5l-1.5,2.8l-0.7-0.3L158,173.3z"/>
	<path fill="#3C3C3B" d="M168.3,161.2h1.6l-2.2,2.3h-1L168.3,161.2z M167.2,164.4h1.1v10.9h-1.1V164.4z"/>
	<path fill="#3C3C3B" d="M171.5,167.2h1v1.4c0.4-0.6,0.9-1,1.4-1.2c0.5-0.3,1.1-0.4,1.6-0.4c0.6,0,1.1,0.2,1.6,0.5
		c0.5,0.3,0.8,0.7,1,1.2s0.3,1.3,0.3,2.4v4.2h-1v-3.8c0-0.9,0-1.5-0.1-1.9c-0.1-0.5-0.4-0.9-0.7-1.2c-0.3-0.3-0.8-0.4-1.3-0.4
		c-0.6,0-1.2,0.2-1.7,0.6c-0.5,0.4-0.8,0.9-1,1.5c-0.1,0.4-0.1,1.1-0.1,2.2v3h-1V167.2z"/>
	<path fill="#3C3C3B" d="M189.7,164.1v11.2h-1v-1.4c-0.4,0.5-0.9,0.9-1.5,1.2c-0.5,0.3-1.1,0.4-1.8,0.4c-1.1,0-2.1-0.4-2.9-1.2
		c-0.8-0.8-1.2-1.8-1.2-3c0-1.2,0.4-2.2,1.2-3c0.8-0.8,1.8-1.2,2.9-1.2c0.7,0,1.3,0.1,1.8,0.4c0.5,0.3,1,0.7,1.4,1.3v-4.6H189.7z
		 M185.6,168c-0.6,0-1.1,0.1-1.6,0.4c-0.5,0.3-0.9,0.7-1.2,1.2c-0.3,0.5-0.4,1.1-0.4,1.6c0,0.6,0.1,1.1,0.4,1.6
		c0.3,0.5,0.7,0.9,1.2,1.2c0.5,0.3,1,0.4,1.6,0.4c0.6,0,1.1-0.1,1.6-0.4c0.5-0.3,0.9-0.7,1.2-1.2c0.3-0.5,0.4-1,0.4-1.7
		c0-0.9-0.3-1.7-0.9-2.3C187.2,168.3,186.5,168,185.6,168z"/>
	<path fill="#3C3C3B" d="M193.3,163.9c0.2,0,0.4,0.1,0.6,0.3c0.2,0.2,0.3,0.4,0.3,0.6c0,0.2-0.1,0.4-0.3,0.6
		c-0.2,0.2-0.4,0.3-0.6,0.3c-0.2,0-0.4-0.1-0.6-0.3c-0.2-0.2-0.3-0.4-0.3-0.6c0-0.2,0.1-0.4,0.3-0.6
		C192.9,164,193.1,163.9,193.3,163.9z M192.8,167.2h1v8.1h-1V167.2z"/>
	<path fill="#3C3C3B" d="M203.9,167.2h1v6.4c0,1.1-0.1,2-0.3,2.5c-0.3,0.7-0.7,1.3-1.4,1.7c-0.7,0.4-1.5,0.6-2.4,0.6
		c-0.7,0-1.3-0.1-1.9-0.3c-0.6-0.2-1-0.5-1.3-0.8c-0.3-0.3-0.7-0.8-1-1.4h1.1c0.3,0.5,0.7,0.9,1.2,1.2c0.5,0.3,1.1,0.4,1.8,0.4
		c0.7,0,1.3-0.1,1.8-0.4c0.5-0.3,0.8-0.6,1-1c0.2-0.4,0.3-1,0.3-1.9v-0.4c-0.4,0.5-0.9,0.9-1.4,1.1c-0.6,0.3-1.2,0.4-1.8,0.4
		c-0.7,0-1.4-0.2-2.1-0.6c-0.7-0.4-1.2-0.9-1.5-1.5c-0.4-0.6-0.5-1.3-0.5-2.1s0.2-1.4,0.6-2.1c0.4-0.6,0.9-1.2,1.5-1.5
		c0.7-0.4,1.3-0.6,2.1-0.6c0.6,0,1.2,0.1,1.7,0.4c0.5,0.3,1,0.7,1.5,1.2V167.2z M200.8,168c-0.6,0-1.1,0.1-1.6,0.4
		c-0.5,0.3-0.9,0.7-1.2,1.2c-0.3,0.5-0.4,1-0.4,1.6c0,0.9,0.3,1.6,0.9,2.2c0.6,0.6,1.4,0.9,2.3,0.9c1,0,1.7-0.3,2.3-0.9
		c0.6-0.6,0.9-1.3,0.9-2.3c0-0.6-0.1-1.2-0.4-1.6c-0.3-0.5-0.6-0.9-1.1-1.1C201.9,168.1,201.4,168,200.8,168z"/>
	<path fill="#3C3C3B" d="M211.9,167c1.2,0,2.3,0.5,3.1,1.3c0.7,0.8,1.1,1.8,1.1,2.9c0,1.1-0.4,2.1-1.2,3c-0.8,0.8-1.8,1.3-3,1.3
		c-1.2,0-2.2-0.4-3-1.3c-0.8-0.8-1.2-1.8-1.2-3c0-1.1,0.4-2.1,1.1-2.9C209.6,167.4,210.6,167,211.9,167z M211.9,168
		c-0.9,0-1.6,0.3-2.2,1c-0.6,0.6-0.9,1.4-0.9,2.3c0,0.6,0.1,1.1,0.4,1.6c0.3,0.5,0.7,0.9,1.1,1.2c0.5,0.3,1,0.4,1.6,0.4
		c0.6,0,1.1-0.1,1.6-0.4c0.5-0.3,0.9-0.7,1.1-1.2c0.3-0.5,0.4-1,0.4-1.6c0-0.9-0.3-1.7-0.9-2.3C213.5,168.3,212.7,168,211.9,168z"/>
	<path fill="#3C3C3B" d="M222.9,168.1l-0.7,0.7c-0.6-0.5-1.1-0.8-1.6-0.8c-0.3,0-0.6,0.1-0.9,0.3c-0.2,0.2-0.4,0.5-0.4,0.8
		c0,0.3,0.1,0.5,0.3,0.7c0.2,0.2,0.6,0.5,1.2,0.9c0.8,0.4,1.3,0.8,1.6,1.2c0.3,0.4,0.4,0.8,0.4,1.3c0,0.7-0.2,1.2-0.7,1.7
		c-0.5,0.5-1,0.7-1.7,0.7c-0.5,0-0.9-0.1-1.3-0.3c-0.4-0.2-0.8-0.5-1.1-0.8l0.7-0.7c0.5,0.6,1.1,0.9,1.7,0.9c0.4,0,0.8-0.1,1.1-0.4
		c0.3-0.3,0.4-0.6,0.4-0.9c0-0.3-0.1-0.6-0.3-0.8c-0.2-0.2-0.6-0.5-1.3-0.9c-0.7-0.4-1.2-0.7-1.5-1.1c-0.3-0.4-0.4-0.8-0.4-1.3
		c0-0.6,0.2-1.1,0.6-1.5c0.4-0.4,0.9-0.6,1.6-0.6C221.4,167,222.2,167.4,222.9,168.1z"/>
	<path fill="#3C3C3B" d="M226.7,173.3l1,0.5l-1.5,2.8l-0.7-0.3L226.7,173.3z"/>
	<path fill="#3C3C3B" d="M233.1,173.2l0.9-0.6c0.7,1.2,1.4,1.8,2.3,1.8c0.4,0,0.7-0.1,1-0.3c0.3-0.2,0.6-0.4,0.7-0.7
		c0.2-0.3,0.3-0.6,0.3-0.9c0-0.4-0.1-0.7-0.4-1.1c-0.3-0.5-1-1.1-1.9-1.7c-0.9-0.7-1.5-1.2-1.7-1.5c-0.4-0.5-0.6-1.1-0.6-1.7
		c0-0.5,0.1-0.9,0.3-1.3c0.2-0.4,0.5-0.7,1-0.9c0.4-0.2,0.9-0.3,1.3-0.3c0.5,0,1,0.1,1.4,0.4c0.4,0.3,0.9,0.7,1.4,1.4l-0.9,0.7
		c-0.4-0.5-0.8-0.9-1-1.1c-0.3-0.2-0.6-0.3-0.9-0.3c-0.4,0-0.8,0.1-1.1,0.4c-0.3,0.3-0.4,0.6-0.4,1c0,0.2,0,0.5,0.1,0.7
		c0.1,0.2,0.3,0.5,0.5,0.7c0.1,0.1,0.6,0.5,1.4,1.1c0.9,0.7,1.6,1.3,1.9,1.9c0.4,0.5,0.5,1.1,0.5,1.6c0,0.8-0.3,1.5-0.9,2.1
		c-0.6,0.6-1.3,0.9-2.2,0.9c-0.7,0-1.3-0.2-1.8-0.5C234.1,174.7,233.6,174.1,233.1,173.2z"/>
	<path fill="#3C3C3B" d="M241.6,164.1h1v4.6c0.4-0.6,0.9-1,1.4-1.2c0.5-0.3,1.1-0.4,1.6-0.4c0.6,0,1.1,0.2,1.6,0.5
		c0.5,0.3,0.8,0.7,1,1.2c0.2,0.5,0.3,1.3,0.3,2.4v4.2h-1v-3.8c0-0.9,0-1.5-0.1-1.9c-0.1-0.5-0.4-0.9-0.7-1.2
		c-0.3-0.3-0.8-0.4-1.3-0.4c-0.6,0-1.2,0.2-1.7,0.6c-0.5,0.4-0.8,0.9-1,1.5c-0.1,0.4-0.1,1.1-0.1,2.2v3h-1V164.1z"/>
	<path fill="#3C3C3B" d="M254.7,167c1.2,0,2.3,0.5,3.1,1.3c0.7,0.8,1.1,1.8,1.1,2.9c0,1.1-0.4,2.1-1.2,3c-0.8,0.8-1.8,1.3-3,1.3
		c-1.2,0-2.2-0.4-3-1.3c-0.8-0.8-1.2-1.8-1.2-3c0-1.1,0.4-2.1,1.1-2.9C252.4,167.4,253.5,167,254.7,167z M254.7,168
		c-0.9,0-1.6,0.3-2.2,1c-0.6,0.6-0.9,1.4-0.9,2.3c0,0.6,0.1,1.1,0.4,1.6c0.3,0.5,0.7,0.9,1.1,1.2c0.5,0.3,1,0.4,1.6,0.4
		c0.6,0,1.1-0.1,1.6-0.4c0.5-0.3,0.9-0.7,1.1-1.2c0.3-0.5,0.4-1,0.4-1.6c0-0.9-0.3-1.7-0.9-2.3C256.3,168.3,255.6,168,254.7,168z"/>
	<path fill="#3C3C3B" d="M260.5,167.2h1.1v1.2c0.3-0.5,0.7-0.8,1-1c0.4-0.2,0.7-0.3,1.1-0.3c0.3,0,0.6,0.1,0.9,0.3l-0.5,0.9
		c-0.2-0.1-0.4-0.1-0.5-0.1c-0.3,0-0.7,0.1-1,0.4c-0.3,0.3-0.6,0.7-0.7,1.3c-0.1,0.5-0.2,1.4-0.2,2.8v2.7h-1.1V167.2z"/>
	<path fill="#3C3C3B" d="M266.3,164.2h1v3h1.6v0.9h-1.6v7.2h-1v-7.2h-1.4v-0.9h1.4V164.2z"/>
</g>
<g>
	<path fill="#3C3C3B" d="M18.7,184.2l-0.9,0.7c-0.5-0.6-1-1.1-1.7-1.4c-0.7-0.3-1.4-0.5-2.2-0.5c-0.9,0-1.7,0.2-2.4,0.6
		c-0.7,0.4-1.3,1-1.7,1.7c-0.4,0.7-0.6,1.5-0.6,2.4c0,1.3,0.5,2.4,1.4,3.3c0.9,0.9,2.1,1.3,3.5,1.3c1.5,0,2.8-0.6,3.8-1.8l0.9,0.7
		c-0.5,0.7-1.2,1.2-2,1.6c-0.8,0.4-1.7,0.6-2.7,0.6c-1.9,0-3.4-0.6-4.5-1.9c-0.9-1.1-1.4-2.4-1.4-3.9c0-1.6,0.6-2.9,1.7-4
		c1.1-1.1,2.5-1.6,4.2-1.6c1,0,1.9,0.2,2.8,0.6C17.5,182.9,18.1,183.5,18.7,184.2z"/>
	<path fill="#3C3C3B" d="M21.6,181.9h1v4.6c0.4-0.6,0.9-1,1.4-1.2c0.5-0.3,1.1-0.4,1.6-0.4c0.6,0,1.1,0.2,1.6,0.5
		c0.5,0.3,0.8,0.7,1,1.2c0.2,0.5,0.3,1.3,0.3,2.4v4.2h-1v-3.8c0-0.9,0-1.5-0.1-1.9c-0.1-0.5-0.4-0.9-0.7-1.2
		c-0.3-0.3-0.8-0.4-1.3-0.4c-0.6,0-1.2,0.2-1.7,0.6c-0.5,0.4-0.8,0.9-1,1.5c-0.1,0.4-0.1,1.1-0.1,2.2v3h-1V181.9z"/>
	<path fill="#3C3C3B" d="M39.8,185v8.1h-1v-1.4c-0.4,0.5-0.9,0.9-1.5,1.2c-0.5,0.3-1.1,0.4-1.8,0.4c-1.1,0-2.1-0.4-2.9-1.2
		c-0.8-0.8-1.2-1.8-1.2-3c0-1.2,0.4-2.2,1.2-3c0.8-0.8,1.8-1.2,2.9-1.2c0.7,0,1.3,0.1,1.8,0.4c0.5,0.3,1,0.7,1.4,1.3V185H39.8z
		 M35.7,185.8c-0.6,0-1.1,0.1-1.6,0.4c-0.5,0.3-0.9,0.7-1.2,1.2c-0.3,0.5-0.4,1.1-0.4,1.6c0,0.6,0.1,1.1,0.4,1.6
		c0.3,0.5,0.7,0.9,1.2,1.2c0.5,0.3,1,0.4,1.6,0.4c0.6,0,1.1-0.1,1.6-0.4c0.5-0.3,0.9-0.7,1.2-1.2c0.3-0.5,0.4-1,0.4-1.7
		c0-0.9-0.3-1.7-0.9-2.3C37.3,186.1,36.6,185.8,35.7,185.8z"/>
	<path fill="#3C3C3B" d="M51.1,185v11h-1v-4.3c-0.4,0.5-0.9,0.9-1.5,1.2c-0.5,0.3-1.1,0.4-1.8,0.4c-1.1,0-2.1-0.4-2.9-1.2
		c-0.8-0.8-1.2-1.8-1.2-3c0-1.2,0.4-2.2,1.2-3c0.8-0.8,1.8-1.2,2.9-1.2c0.7,0,1.3,0.1,1.8,0.4c0.5,0.3,1,0.7,1.4,1.3V185H51.1z
		 M46.9,185.8c-0.6,0-1.1,0.1-1.6,0.4c-0.5,0.3-0.9,0.7-1.2,1.2c-0.3,0.5-0.4,1.1-0.4,1.6c0,0.6,0.1,1.1,0.4,1.6
		c0.3,0.5,0.7,0.9,1.2,1.2c0.5,0.3,1,0.4,1.6,0.4c0.6,0,1.1-0.1,1.6-0.4c0.5-0.3,0.9-0.7,1.2-1.2c0.3-0.5,0.4-1,0.4-1.7
		c0-0.9-0.3-1.7-0.9-2.3C48.6,186.1,47.8,185.8,46.9,185.8z"/>
	<path fill="#3C3C3B" d="M54.1,185h1v3.8c0,0.9,0.1,1.6,0.1,1.9c0.1,0.5,0.4,0.9,0.9,1.2c0.4,0.3,0.9,0.4,1.5,0.4
		c0.6,0,1.1-0.1,1.5-0.4c0.4-0.3,0.7-0.6,0.8-1.1c0.1-0.3,0.2-1,0.2-2V185h1.1v4c0,1.1-0.1,1.9-0.4,2.5c-0.3,0.6-0.6,1-1.2,1.3
		c-0.5,0.3-1.2,0.5-2,0.5s-1.4-0.2-2-0.5c-0.5-0.3-0.9-0.8-1.2-1.3c-0.3-0.6-0.4-1.4-0.4-2.6V185z"/>
	<path fill="#3C3C3B" d="M71.2,190.4l0.9,0.5c-0.3,0.6-0.6,1-1,1.4c-0.4,0.3-0.8,0.6-1.3,0.8c-0.5,0.2-1,0.3-1.6,0.3
		c-1.3,0-2.3-0.4-3.1-1.3c-0.7-0.9-1.1-1.8-1.1-2.9c0-1,0.3-1.9,0.9-2.7c0.8-1,1.9-1.5,3.2-1.5c1.4,0,2.5,0.5,3.3,1.6
		c0.6,0.7,0.9,1.7,0.9,2.8h-7.3c0,0.9,0.3,1.7,0.9,2.3c0.6,0.6,1.3,0.9,2.1,0.9c0.4,0,0.8-0.1,1.2-0.2c0.4-0.1,0.7-0.3,1-0.6
		C70.6,191.3,70.9,190.9,71.2,190.4z M71.2,188.2c-0.1-0.6-0.3-1-0.6-1.3c-0.3-0.3-0.6-0.6-1-0.8c-0.4-0.2-0.9-0.3-1.4-0.3
		c-0.8,0-1.5,0.3-2,0.8c-0.4,0.4-0.7,0.9-0.9,1.7H71.2z"/>
	<path fill="#3C3C3B" d="M76.1,182h1v3h1.6v0.9h-1.6v7.2h-1v-7.2h-1.4V185h1.4V182z"/>
	<path fill="#3C3C3B" d="M89.3,185v8.1h-1v-1.4c-0.4,0.5-0.9,0.9-1.5,1.2c-0.5,0.3-1.1,0.4-1.8,0.4c-1.1,0-2.1-0.4-2.9-1.2
		c-0.8-0.8-1.2-1.8-1.2-3c0-1.2,0.4-2.2,1.2-3c0.8-0.8,1.8-1.2,2.9-1.2c0.7,0,1.3,0.1,1.8,0.4c0.5,0.3,1,0.7,1.4,1.3V185H89.3z
		 M85.1,185.8c-0.6,0-1.1,0.1-1.6,0.4c-0.5,0.3-0.9,0.7-1.2,1.2c-0.3,0.5-0.4,1.1-0.4,1.6c0,0.6,0.1,1.1,0.4,1.6
		c0.3,0.5,0.7,0.9,1.2,1.2c0.5,0.3,1,0.4,1.6,0.4c0.6,0,1.1-0.1,1.6-0.4c0.5-0.3,0.9-0.7,1.2-1.2c0.3-0.5,0.4-1,0.4-1.7
		c0-0.9-0.3-1.7-0.9-2.3C86.8,186.1,86,185.8,85.1,185.8z"/>
	<path fill="#3C3C3B" d="M96.6,185.9l-0.7,0.7c-0.6-0.5-1.1-0.8-1.6-0.8c-0.3,0-0.6,0.1-0.9,0.3c-0.2,0.2-0.4,0.5-0.4,0.8
		c0,0.3,0.1,0.5,0.3,0.7c0.2,0.2,0.6,0.5,1.2,0.9c0.8,0.4,1.3,0.8,1.6,1.2c0.3,0.4,0.4,0.8,0.4,1.3c0,0.7-0.2,1.2-0.7,1.7
		c-0.5,0.5-1,0.7-1.7,0.7c-0.5,0-0.9-0.1-1.3-0.3c-0.4-0.2-0.8-0.5-1.1-0.8l0.7-0.7c0.5,0.6,1.1,0.9,1.7,0.9c0.4,0,0.8-0.1,1.1-0.4
		c0.3-0.3,0.4-0.6,0.4-0.9c0-0.3-0.1-0.6-0.3-0.8c-0.2-0.2-0.6-0.5-1.3-0.9c-0.7-0.4-1.2-0.7-1.5-1.1c-0.3-0.4-0.4-0.8-0.4-1.3
		c0-0.6,0.2-1.1,0.6-1.5c0.4-0.4,0.9-0.6,1.6-0.6C95.1,184.8,95.8,185.2,96.6,185.9z"/>
	<path fill="#3C3C3B" d="M100.3,191.1l1,0.5l-1.5,2.8l-0.7-0.3L100.3,191.1z"/>
	<path fill="#3C3C3B" d="M109.7,182.2h6.2v1.1h-5.2v3.4h5.1v1.1h-5.1v4.3h5.1v1.1h-6.2V182.2z"/>
	<path fill="#3C3C3B" d="M118.6,185h1v1.4c0.4-0.6,0.9-1,1.4-1.2c0.5-0.3,1.1-0.4,1.6-0.4c0.6,0,1.1,0.2,1.6,0.5
		c0.5,0.3,0.8,0.7,1,1.2c0.2,0.5,0.3,1.3,0.3,2.4v4.2h-1v-3.8c0-0.9,0-1.5-0.1-1.9c-0.1-0.5-0.4-0.9-0.7-1.2
		c-0.3-0.3-0.8-0.4-1.3-0.4c-0.6,0-1.2,0.2-1.7,0.6c-0.5,0.4-0.8,0.9-1,1.5c-0.1,0.4-0.1,1.1-0.1,2.2v3h-1V185z"/>
	<path fill="#3C3C3B" d="M129.6,182h1v3h1.6v0.9h-1.6v7.2h-1v-7.2h-1.4V185h1.4V182z"/>
	<path fill="#3C3C3B" d="M141.6,190.4l0.9,0.5c-0.3,0.6-0.6,1-1,1.4c-0.4,0.3-0.8,0.6-1.3,0.8c-0.5,0.2-1,0.3-1.6,0.3
		c-1.3,0-2.3-0.4-3.1-1.3c-0.7-0.9-1.1-1.8-1.1-2.9c0-1,0.3-1.9,0.9-2.7c0.8-1,1.9-1.5,3.2-1.5c1.4,0,2.5,0.5,3.3,1.6
		c0.6,0.7,0.9,1.7,0.9,2.8h-7.3c0,0.9,0.3,1.7,0.9,2.3c0.6,0.6,1.3,0.9,2.1,0.9c0.4,0,0.8-0.1,1.2-0.2c0.4-0.1,0.7-0.3,1-0.6
		C141,191.3,141.3,190.9,141.6,190.4z M141.6,188.2c-0.1-0.6-0.3-1-0.6-1.3c-0.3-0.3-0.6-0.6-1.1-0.8c-0.4-0.2-0.9-0.3-1.4-0.3
		c-0.8,0-1.5,0.3-2,0.8c-0.4,0.4-0.7,0.9-0.9,1.7H141.6z"/>
	<path fill="#3C3C3B" d="M145.2,185h1.1v1.2c0.3-0.5,0.6-0.8,1-1c0.4-0.2,0.7-0.3,1.1-0.3c0.3,0,0.6,0.1,0.9,0.3l-0.5,0.9
		c-0.2-0.1-0.4-0.1-0.5-0.1c-0.3,0-0.7,0.1-1,0.4c-0.3,0.3-0.6,0.7-0.7,1.3c-0.1,0.5-0.2,1.4-0.2,2.8v2.7h-1.1V185z"/>
	<path fill="#3C3C3B" d="M151.4,181.7c0.2,0,0.4,0.1,0.6,0.3c0.2,0.2,0.3,0.4,0.3,0.6c0,0.2-0.1,0.4-0.3,0.6
		c-0.2,0.2-0.4,0.3-0.6,0.3c-0.2,0-0.4-0.1-0.6-0.3c-0.2-0.2-0.3-0.4-0.3-0.6c0-0.2,0.1-0.4,0.3-0.6
		C151,181.8,151.2,181.7,151.4,181.7z M150.9,185h1v8.1h-1V185z"/>
	<path fill="#3C3C3B" d="M154.3,185h5.9l-4.6,7.1h4.4v0.9h-6.2l4.6-7.2h-4.1V185z"/>
	<path fill="#3C3C3B" d="M166.2,184.8c1.2,0,2.3,0.5,3.1,1.3c0.7,0.8,1.1,1.8,1.1,2.9c0,1.1-0.4,2.1-1.2,3c-0.8,0.8-1.8,1.3-3,1.3
		c-1.2,0-2.2-0.4-3-1.3c-0.8-0.8-1.2-1.8-1.2-3c0-1.1,0.4-2.1,1.1-2.9C163.9,185.3,164.9,184.8,166.2,184.8z M166.2,185.8
		c-0.9,0-1.6,0.3-2.2,1c-0.6,0.6-0.9,1.4-0.9,2.3c0,0.6,0.1,1.1,0.4,1.6c0.3,0.5,0.7,0.9,1.1,1.2c0.5,0.3,1,0.4,1.6,0.4
		c0.6,0,1.1-0.1,1.6-0.4c0.5-0.3,0.9-0.7,1.1-1.2c0.3-0.5,0.4-1,0.4-1.6c0-0.9-0.3-1.7-0.9-2.3C167.7,186.2,167,185.8,166.2,185.8z"
		/>
	<path fill="#3C3C3B" d="M177.2,185.9l-0.7,0.7c-0.6-0.5-1.1-0.8-1.6-0.8c-0.3,0-0.6,0.1-0.9,0.3c-0.2,0.2-0.4,0.5-0.4,0.8
		c0,0.3,0.1,0.5,0.3,0.7c0.2,0.2,0.6,0.5,1.2,0.9c0.8,0.4,1.3,0.8,1.6,1.2c0.3,0.4,0.4,0.8,0.4,1.3c0,0.7-0.2,1.2-0.7,1.7
		c-0.5,0.5-1,0.7-1.7,0.7c-0.5,0-0.9-0.1-1.3-0.3c-0.4-0.2-0.8-0.5-1.1-0.8l0.7-0.7c0.5,0.6,1.1,0.9,1.7,0.9c0.4,0,0.8-0.1,1.1-0.4
		c0.3-0.3,0.4-0.6,0.4-0.9c0-0.3-0.1-0.6-0.3-0.8c-0.2-0.2-0.6-0.5-1.3-0.9c-0.7-0.4-1.2-0.7-1.5-1.1c-0.3-0.4-0.4-0.8-0.4-1.3
		c0-0.6,0.2-1.1,0.6-1.5c0.4-0.4,0.9-0.6,1.6-0.6C175.7,184.8,176.5,185.2,177.2,185.9z"/>
	<path fill="#3C3C3B" d="M181,191.1l1,0.5l-1.5,2.8l-0.7-0.3L181,191.1z"/>
	<path fill="#3C3C3B" d="M200.5,184.2l-0.9,0.7c-0.5-0.6-1-1.1-1.7-1.4c-0.7-0.3-1.4-0.5-2.2-0.5c-0.9,0-1.7,0.2-2.4,0.6
		c-0.7,0.4-1.3,1-1.7,1.7c-0.4,0.7-0.6,1.5-0.6,2.4c0,1.3,0.5,2.4,1.4,3.3c0.9,0.9,2.1,1.3,3.5,1.3c1.5,0,2.8-0.6,3.8-1.8l0.9,0.7
		c-0.5,0.7-1.2,1.2-2,1.6c-0.8,0.4-1.7,0.6-2.7,0.6c-1.9,0-3.4-0.6-4.5-1.9c-0.9-1.1-1.4-2.4-1.4-3.9c0-1.6,0.6-2.9,1.7-4
		c1.1-1.1,2.5-1.6,4.2-1.6c1,0,1.9,0.2,2.8,0.6C199.3,182.9,200,183.5,200.5,184.2z"/>
	<path fill="#3C3C3B" d="M207.3,184.8c1.2,0,2.3,0.5,3.1,1.3c0.7,0.8,1.1,1.8,1.1,2.9c0,1.1-0.4,2.1-1.2,3c-0.8,0.8-1.8,1.3-3,1.3
		c-1.2,0-2.2-0.4-3-1.3c-0.8-0.8-1.2-1.8-1.2-3c0-1.1,0.4-2.1,1.1-2.9C205,185.3,206,184.8,207.3,184.8z M207.3,185.8
		c-0.9,0-1.6,0.3-2.2,1c-0.6,0.6-0.9,1.4-0.9,2.3c0,0.6,0.1,1.1,0.4,1.6c0.3,0.5,0.7,0.9,1.1,1.2c0.5,0.3,1,0.4,1.6,0.4
		c0.6,0,1.1-0.1,1.6-0.4c0.5-0.3,0.9-0.7,1.1-1.2c0.3-0.5,0.4-1,0.4-1.6c0-0.9-0.3-1.7-0.9-2.3C208.9,186.2,208.1,185.8,207.3,185.8
		z"/>
	<path fill="#3C3C3B" d="M214.3,185h1v1.4c0.4-0.6,0.9-1,1.4-1.2c0.5-0.3,1.1-0.4,1.6-0.4c0.6,0,1.1,0.2,1.6,0.5
		c0.5,0.3,0.8,0.7,1,1.2c0.2,0.5,0.3,1.3,0.3,2.4v4.2h-1v-3.8c0-0.9,0-1.5-0.1-1.9c-0.1-0.5-0.4-0.9-0.7-1.2s-0.8-0.4-1.3-0.4
		c-0.6,0-1.2,0.2-1.7,0.6c-0.5,0.4-0.8,0.9-1,1.5c-0.1,0.4-0.1,1.1-0.1,2.2v3h-1V185z"/>
	<path fill="#3C3C3B" d="M224.4,185h1.1v9.3c0,0.7-0.1,1.2-0.4,1.5s-0.6,0.5-1,0.5c-0.4,0-0.7-0.1-1.2-0.3v-0.9
		c0.3,0.1,0.5,0.2,0.7,0.2c0.3,0,0.5-0.1,0.6-0.3c0.1-0.1,0.1-0.5,0.1-0.9V185z M224.9,181.7c0.2,0,0.4,0.1,0.6,0.3
		c0.2,0.2,0.2,0.4,0.2,0.6c0,0.2-0.1,0.4-0.2,0.6c-0.2,0.2-0.4,0.3-0.6,0.3s-0.4-0.1-0.6-0.3c-0.2-0.2-0.2-0.4-0.2-0.6
		c0-0.2,0.1-0.4,0.2-0.6C224.4,181.8,224.6,181.7,224.9,181.7z"/>
	<path fill="#3C3C3B" d="M228.3,185h1v3.8c0,0.9,0,1.6,0.1,1.9c0.1,0.5,0.4,0.9,0.9,1.2c0.4,0.3,0.9,0.4,1.5,0.4
		c0.6,0,1.1-0.1,1.5-0.4c0.4-0.3,0.7-0.6,0.8-1.1c0.1-0.3,0.2-1,0.2-2V185h1.1v4c0,1.1-0.1,1.9-0.4,2.5s-0.7,1-1.2,1.3
		c-0.5,0.3-1.2,0.5-2,0.5c-0.8,0-1.4-0.2-2-0.5c-0.5-0.3-0.9-0.8-1.2-1.3c-0.3-0.6-0.4-1.4-0.4-2.6V185z"/>
	<path fill="#3C3C3B" d="M238.6,185h1v1.4c0.4-0.6,0.9-1,1.4-1.2c0.5-0.3,1.1-0.4,1.6-0.4c0.6,0,1.1,0.2,1.6,0.5
		c0.5,0.3,0.8,0.7,1,1.2c0.2,0.5,0.3,1.3,0.3,2.4v4.2h-1v-3.8c0-0.9,0-1.5-0.1-1.9c-0.1-0.5-0.4-0.9-0.7-1.2s-0.8-0.4-1.3-0.4
		c-0.6,0-1.2,0.2-1.7,0.6c-0.5,0.4-0.8,0.9-1,1.5c-0.1,0.4-0.1,1.1-0.1,2.2v3h-1V185z"/>
	<path fill="#3C3C3B" d="M249.7,182h1v3h1.6v0.9h-1.6v7.2h-1v-7.2h-1.4V185h1.4V182z"/>
	<path fill="#3C3C3B" d="M258.6,184.8c1.2,0,2.3,0.5,3.1,1.3c0.7,0.8,1.1,1.8,1.1,2.9c0,1.1-0.4,2.1-1.2,3c-0.8,0.8-1.8,1.3-3,1.3
		c-1.2,0-2.2-0.4-3-1.3c-0.8-0.8-1.2-1.8-1.2-3c0-1.1,0.4-2.1,1.1-2.9C256.4,185.3,257.4,184.8,258.6,184.8z M258.6,185.8
		c-0.9,0-1.6,0.3-2.2,1c-0.6,0.6-0.9,1.4-0.9,2.3c0,0.6,0.1,1.1,0.4,1.6c0.3,0.5,0.7,0.9,1.1,1.2c0.5,0.3,1,0.4,1.6,0.4
		c0.6,0,1.1-0.1,1.6-0.4c0.5-0.3,0.9-0.7,1.1-1.2c0.3-0.5,0.4-1,0.4-1.6c0-0.9-0.3-1.7-0.9-2.3C260.2,186.2,259.5,185.8,258.6,185.8
		z"/>
	<path fill="#3C3C3B" d="M269.7,185.9l-0.7,0.7c-0.6-0.5-1.1-0.8-1.6-0.8c-0.3,0-0.6,0.1-0.9,0.3c-0.2,0.2-0.4,0.5-0.4,0.8
		c0,0.3,0.1,0.5,0.3,0.7c0.2,0.2,0.6,0.5,1.2,0.9c0.8,0.4,1.3,0.8,1.6,1.2c0.3,0.4,0.4,0.8,0.4,1.3c0,0.7-0.2,1.2-0.7,1.7
		c-0.5,0.5-1,0.7-1.7,0.7c-0.5,0-0.9-0.1-1.3-0.3c-0.4-0.2-0.8-0.5-1.1-0.8l0.7-0.7c0.5,0.6,1.1,0.9,1.7,0.9c0.4,0,0.8-0.1,1.1-0.4
		c0.3-0.3,0.4-0.6,0.4-0.9c0-0.3-0.1-0.6-0.3-0.8c-0.2-0.2-0.6-0.5-1.3-0.9c-0.7-0.4-1.2-0.7-1.5-1.1c-0.3-0.4-0.4-0.8-0.4-1.3
		c0-0.6,0.2-1.1,0.6-1.5c0.4-0.4,0.9-0.6,1.6-0.6C268.2,184.8,269,185.2,269.7,185.9z"/>
	<path fill="#3C3C3B" d="M273.6,191.5c0.3,0,0.5,0.1,0.6,0.3c0.2,0.2,0.3,0.4,0.3,0.7c0,0.3-0.1,0.5-0.3,0.6
		c-0.2,0.2-0.4,0.3-0.6,0.3c-0.3,0-0.5-0.1-0.6-0.3c-0.2-0.2-0.3-0.4-0.3-0.6c0-0.3,0.1-0.5,0.3-0.7
		C273.1,191.6,273.3,191.5,273.6,191.5z"/>
</g>
<g>
	<path fill="#3C3C3B" d="M522.4,72.3l-1.1,0.8c-0.6-0.8-1.3-1.4-2.1-1.8c-0.8-0.4-1.7-0.6-2.7-0.6c-1.1,0-2.1,0.3-3,0.8
		c-0.9,0.5-1.6,1.2-2.2,2.1c-0.5,0.9-0.8,1.9-0.8,3c0,1.7,0.6,3,1.7,4.2c1.1,1.1,2.6,1.7,4.3,1.7c1.9,0,3.5-0.7,4.8-2.2l1.1,0.8
		c-0.7,0.9-1.5,1.5-2.5,2c-1,0.5-2.1,0.7-3.4,0.7c-2.4,0-4.3-0.8-5.6-2.4c-1.2-1.3-1.7-3-1.7-4.9c0-2,0.7-3.7,2.1-5
		c1.4-1.4,3.2-2,5.3-2c1.3,0,2.4,0.3,3.4,0.8C520.9,70.7,521.8,71.4,522.4,72.3z"/>
	<path fill="#3C3C3B" d="M536.1,73.3v10.1h-1.3v-1.7c-0.5,0.7-1.2,1.2-1.8,1.5c-0.7,0.3-1.4,0.5-2.2,0.5c-1.4,0-2.6-0.5-3.7-1.6
		c-1-1-1.5-2.3-1.5-3.8c0-1.5,0.5-2.7,1.5-3.7c1-1,2.2-1.5,3.7-1.5c0.8,0,1.6,0.2,2.2,0.5c0.7,0.4,1.3,0.9,1.8,1.6v-1.9H536.1z
		 M530.9,74.3c-0.7,0-1.4,0.2-2,0.5c-0.6,0.4-1.1,0.9-1.5,1.5c-0.4,0.6-0.5,1.3-0.5,2c0,0.7,0.2,1.4,0.5,2c0.4,0.6,0.9,1.2,1.5,1.5
		c0.6,0.4,1.3,0.5,2,0.5c0.7,0,1.4-0.2,2-0.5c0.6-0.4,1.1-0.8,1.5-1.5c0.3-0.6,0.5-1.3,0.5-2.1c0-1.2-0.4-2.1-1.2-2.9
		C533,74.7,532.1,74.3,530.9,74.3z"/>
	<path fill="#3C3C3B" d="M540,69.4h1.3v14H540V69.4z"/>
	<path fill="#3C3C3B" d="M544.3,73.3h7.4l-5.7,8.9h5.5v1.1h-7.8l5.7-8.9h-5.2V73.3z"/>
	<path fill="#3C3C3B" d="M564.3,73.3v10.1H563v-1.7c-0.5,0.7-1.2,1.2-1.8,1.5c-0.7,0.3-1.4,0.5-2.2,0.5c-1.4,0-2.6-0.5-3.7-1.6
		c-1-1-1.5-2.3-1.5-3.8c0-1.5,0.5-2.7,1.5-3.7c1-1,2.2-1.5,3.7-1.5c0.8,0,1.6,0.2,2.2,0.5c0.7,0.4,1.3,0.9,1.8,1.6v-1.9H564.3z
		 M559.1,74.3c-0.7,0-1.4,0.2-2,0.5c-0.6,0.4-1.1,0.9-1.5,1.5c-0.4,0.6-0.5,1.3-0.5,2c0,0.7,0.2,1.4,0.5,2c0.4,0.6,0.9,1.2,1.5,1.5
		c0.6,0.4,1.3,0.5,2,0.5c0.7,0,1.4-0.2,2-0.5c0.6-0.4,1.1-0.8,1.5-1.5c0.3-0.6,0.5-1.3,0.5-2.1c0-1.2-0.4-2.1-1.2-2.9
		C561.2,74.7,560.3,74.3,559.1,74.3z"/>
	<path fill="#3C3C3B" d="M578.4,69.4v14h-1.3v-1.7c-0.5,0.7-1.2,1.2-1.8,1.5c-0.7,0.3-1.4,0.5-2.2,0.5c-1.4,0-2.6-0.5-3.7-1.6
		c-1-1-1.5-2.3-1.5-3.8c0-1.5,0.5-2.7,1.5-3.7c1-1,2.2-1.5,3.7-1.5c0.8,0,1.6,0.2,2.2,0.5c0.7,0.4,1.3,0.9,1.8,1.6v-5.7H578.4z
		 M573.2,74.3c-0.7,0-1.4,0.2-2,0.5c-0.6,0.4-1.1,0.9-1.5,1.5c-0.4,0.6-0.5,1.3-0.5,2c0,0.7,0.2,1.4,0.5,2c0.4,0.6,0.9,1.2,1.5,1.5
		c0.6,0.4,1.3,0.5,2,0.5c0.7,0,1.4-0.2,2-0.5c0.6-0.4,1.1-0.8,1.5-1.5c0.3-0.6,0.5-1.3,0.5-2.1c0-1.2-0.4-2.1-1.2-2.9
		C575.3,74.7,574.4,74.3,573.2,74.3z"/>
	<path fill="#3C3C3B" d="M587.3,73c1.6,0,2.8,0.6,3.9,1.7c0.9,1,1.4,2.2,1.4,3.6c0,1.4-0.5,2.6-1.5,3.7c-1,1.1-2.2,1.6-3.8,1.6
		c-1.5,0-2.8-0.5-3.8-1.6c-1-1.1-1.5-2.3-1.5-3.7c0-1.4,0.5-2.6,1.4-3.6C584.4,73.6,585.7,73,587.3,73z M587.2,74.3
		c-1.1,0-2,0.4-2.8,1.2c-0.8,0.8-1.2,1.8-1.2,2.9c0,0.7,0.2,1.4,0.5,2c0.4,0.6,0.8,1.1,1.4,1.5c0.6,0.3,1.3,0.5,2,0.5s1.4-0.2,2-0.5
		c0.6-0.3,1.1-0.8,1.4-1.5c0.4-0.6,0.5-1.3,0.5-2c0-1.1-0.4-2.1-1.2-2.9C589.2,74.7,588.3,74.3,587.2,74.3z"/>
	<path fill="#3C3C3B" d="M597.5,81.3c0.3,0,0.6,0.1,0.8,0.3c0.2,0.2,0.3,0.5,0.3,0.8c0,0.3-0.1,0.6-0.3,0.8
		c-0.2,0.2-0.5,0.3-0.8,0.3c-0.3,0-0.6-0.1-0.8-0.3c-0.2-0.2-0.3-0.5-0.3-0.8c0-0.3,0.1-0.6,0.3-0.8S597.2,81.3,597.5,81.3z"/>
</g>
<g>
	<path fill="#3C3C3B" d="M362.2,67.5h3.4v17.2h-1.7V69.2h-2.7L362.2,67.5z"/>
	<path fill="#3C3C3B" d="M381.8,84.7l2.5-17.2h0.3l7,14.1l6.9-14.1h0.3l2.5,17.2h-1.7l-1.7-12.3l-6.1,12.3h-0.4l-6.1-12.4l-1.7,12.4
		H381.8z"/>
	<path fill="#3C3C3B" d="M406,67.5h9.8v1.7h-8.1v5.4h8.1v1.7h-8.1V83h8.1v1.7H406V67.5z"/>
	<path fill="#3C3C3B" d="M418.4,81.5l1.5-0.9c1,1.9,2.2,2.8,3.6,2.8c0.6,0,1.1-0.1,1.6-0.4c0.5-0.3,0.9-0.6,1.2-1.1
		c0.3-0.5,0.4-0.9,0.4-1.4c0-0.6-0.2-1.1-0.6-1.7c-0.5-0.8-1.5-1.7-2.9-2.8c-1.4-1.1-2.3-1.9-2.7-2.3c-0.6-0.8-0.9-1.7-0.9-2.6
		c0-0.7,0.2-1.4,0.5-2c0.4-0.6,0.9-1.1,1.5-1.5c0.6-0.4,1.4-0.5,2.1-0.5c0.8,0,1.6,0.2,2.3,0.6c0.7,0.4,1.5,1.1,2.2,2.2l-1.4,1.1
		c-0.6-0.9-1.2-1.4-1.7-1.7c-0.5-0.3-1-0.4-1.5-0.4c-0.7,0-1.3,0.2-1.7,0.6c-0.4,0.4-0.7,0.9-0.7,1.6c0,0.4,0.1,0.7,0.2,1.1
		c0.2,0.4,0.4,0.7,0.9,1.1c0.2,0.2,1,0.8,2.2,1.7c1.5,1.1,2.5,2.1,3.1,2.9c0.6,0.9,0.8,1.7,0.8,2.6c0,1.2-0.5,2.3-1.4,3.2
		c-0.9,0.9-2.1,1.4-3.5,1.4c-1,0-2-0.3-2.8-0.8C419.9,83.8,419.1,82.8,418.4,81.5z"/>
</g>
<g>
	<path fill="#3C3C3B" d="M362.2,119.8h3.4V137h-1.7v-15.5h-2.7L362.2,119.8z"/>
	<path fill="#3C3C3B" d="M381.8,137l2.5-17.2h0.3l7,14.1l6.9-14.1h0.3l2.5,17.2h-1.7l-1.7-12.3l-6.1,12.3h-0.4l-6.1-12.4l-1.7,12.4
		H381.8z"/>
	<path fill="#3C3C3B" d="M406,119.8h9.8v1.7h-8.1v5.4h8.1v1.7h-8.1v6.7h8.1v1.7H406V119.8z"/>
	<path fill="#3C3C3B" d="M418.4,133.8l1.5-0.9c1,1.9,2.2,2.8,3.6,2.8c0.6,0,1.1-0.1,1.6-0.4c0.5-0.3,0.9-0.6,1.2-1.1
		c0.3-0.5,0.4-0.9,0.4-1.4c0-0.6-0.2-1.1-0.6-1.7c-0.5-0.8-1.5-1.7-2.9-2.8c-1.4-1.1-2.3-1.9-2.7-2.3c-0.6-0.8-0.9-1.7-0.9-2.6
		c0-0.7,0.2-1.4,0.5-2c0.4-0.6,0.9-1.1,1.5-1.5c0.6-0.4,1.4-0.5,2.1-0.5c0.8,0,1.6,0.2,2.3,0.6c0.7,0.4,1.5,1.1,2.2,2.2l-1.4,1.1
		c-0.6-0.9-1.2-1.4-1.7-1.7c-0.5-0.3-1-0.4-1.5-0.4c-0.7,0-1.3,0.2-1.7,0.6c-0.4,0.4-0.7,0.9-0.7,1.6c0,0.4,0.1,0.7,0.2,1.1
		c0.2,0.4,0.4,0.7,0.9,1.1c0.2,0.2,1,0.8,2.2,1.7c1.5,1.1,2.5,2.1,3.1,2.9c0.6,0.9,0.8,1.7,0.8,2.6c0,1.2-0.5,2.3-1.4,3.2
		c-0.9,0.9-2.1,1.4-3.5,1.4c-1,0-2-0.3-2.8-0.8C419.9,136,419.1,135.1,418.4,133.8z"/>
</g>
<g>
	<path fill="#3C3C3B" d="M348,177.4h-1.6c0-1.7,0.6-3.1,1.7-4.2c1.1-1.1,2.4-1.6,4-1.6c1.6,0,2.9,0.5,3.8,1.5c1,1,1.5,2.2,1.5,3.6
		c0,1-0.2,1.9-0.7,2.7c-0.5,0.9-1.4,2-2.7,3.5l-4.3,4.6h7.9v1.7h-11.7l6.6-7.1c1.3-1.4,2.2-2.5,2.6-3.2c0.4-0.7,0.6-1.4,0.6-2.2
		c0-1-0.4-1.8-1.1-2.5c-0.7-0.7-1.6-1-2.6-1c-1.1,0-2,0.4-2.7,1.1C348.5,175,348.1,176.1,348,177.4z"/>
	<path fill="#3C3C3B" d="M369.2,189.2l2.5-17.2h0.3l7,14.1l6.9-14.1h0.3l2.5,17.2h-1.7l-1.7-12.3l-6.1,12.3h-0.4l-6.1-12.4
		l-1.7,12.4H369.2z"/>
	<path fill="#3C3C3B" d="M393.4,172h9.8v1.7h-8.1v5.4h8.1v1.7h-8.1v6.7h8.1v1.7h-9.8V172z"/>
	<path fill="#3C3C3B" d="M405.9,186l1.5-0.9c1,1.9,2.2,2.8,3.6,2.8c0.6,0,1.1-0.1,1.6-0.4s0.9-0.6,1.2-1.1c0.3-0.5,0.4-0.9,0.4-1.4
		c0-0.6-0.2-1.1-0.6-1.7c-0.5-0.8-1.5-1.7-2.9-2.8c-1.4-1.1-2.3-1.9-2.7-2.3c-0.6-0.8-0.9-1.7-0.9-2.6c0-0.7,0.2-1.4,0.5-2
		c0.4-0.6,0.9-1.1,1.5-1.5c0.7-0.4,1.4-0.5,2.1-0.5c0.8,0,1.6,0.2,2.3,0.6c0.7,0.4,1.4,1.1,2.2,2.2l-1.4,1.1
		c-0.6-0.9-1.2-1.4-1.7-1.7c-0.5-0.3-1-0.4-1.5-0.4c-0.7,0-1.3,0.2-1.7,0.6c-0.4,0.4-0.7,0.9-0.7,1.6c0,0.4,0.1,0.7,0.2,1.1
		c0.2,0.4,0.4,0.7,0.9,1.1c0.2,0.2,1,0.8,2.2,1.7c1.5,1.1,2.5,2.1,3.1,2.9c0.6,0.9,0.8,1.7,0.8,2.6c0,1.2-0.5,2.3-1.4,3.2
		c-0.9,0.9-2.1,1.4-3.4,1.4c-1,0-2-0.3-2.8-0.8C407.4,188.2,406.6,187.3,405.9,186z"/>
	<path fill="#3C3C3B" d="M421,172h9.8v1.7h-8.1v5.4h8.1v1.7h-8.1v6.7h8.1v1.7H421V172z"/>
	<path fill="#3C3C3B" d="M433.4,186l1.5-0.9c1,1.9,2.2,2.8,3.6,2.8c0.6,0,1.1-0.1,1.6-0.4s0.9-0.6,1.2-1.1c0.3-0.5,0.4-0.9,0.4-1.4
		c0-0.6-0.2-1.1-0.6-1.7c-0.5-0.8-1.5-1.7-2.9-2.8c-1.4-1.1-2.3-1.9-2.7-2.3c-0.6-0.8-0.9-1.7-0.9-2.6c0-0.7,0.2-1.4,0.5-2
		c0.4-0.6,0.9-1.1,1.5-1.5c0.7-0.4,1.4-0.5,2.1-0.5c0.8,0,1.6,0.2,2.3,0.6c0.7,0.4,1.4,1.1,2.2,2.2l-1.4,1.1
		c-0.6-0.9-1.2-1.4-1.7-1.7c-0.5-0.3-1-0.4-1.5-0.4c-0.7,0-1.3,0.2-1.7,0.6c-0.4,0.4-0.7,0.9-0.7,1.6c0,0.4,0.1,0.7,0.2,1.1
		c0.2,0.4,0.4,0.7,0.9,1.1c0.2,0.2,1,0.8,2.2,1.7c1.5,1.1,2.5,2.1,3.1,2.9c0.6,0.9,0.8,1.7,0.8,2.6c0,1.2-0.5,2.3-1.4,3.2
		c-0.9,0.9-2.1,1.4-3.4,1.4c-1,0-2-0.3-2.8-0.8C434.9,188.2,434.1,187.3,433.4,186z"/>
</g>
<g>
	<path fill="#3C3C3B" d="M842.3,72.5h-1.6c0-1.7,0.6-3.1,1.7-4.2c1.1-1.1,2.4-1.6,4-1.6c1.6,0,2.9,0.5,3.8,1.5c1,1,1.5,2.2,1.5,3.6
		c0,1-0.2,1.9-0.7,2.7c-0.5,0.9-1.4,2-2.7,3.5l-4.3,4.6h7.9v1.7h-11.7l6.6-7.1c1.3-1.4,2.2-2.5,2.6-3.2c0.4-0.7,0.6-1.4,0.6-2.2
		c0-1-0.4-1.8-1.1-2.5c-0.7-0.7-1.6-1-2.6-1c-1.1,0-2,0.4-2.7,1.1C842.8,70.1,842.4,71.1,842.3,72.5z"/>
	<path fill="#3C3C3B" d="M863.5,84.3l2.5-17.2h0.3l7,14.1l6.9-14.1h0.3l2.5,17.2h-1.7L879.5,72l-6.1,12.3H873l-6.1-12.4l-1.7,12.4
		H863.5z"/>
	<path fill="#3C3C3B" d="M887.7,67.1h9.8v1.7h-8.1v5.4h8.1v1.7h-8.1v6.7h8.1v1.7h-9.8V67.1z"/>
	<path fill="#3C3C3B" d="M900.2,81.1l1.5-0.9c1,1.9,2.2,2.8,3.6,2.8c0.6,0,1.1-0.1,1.6-0.4c0.5-0.3,0.9-0.6,1.2-1.1
		c0.3-0.5,0.4-0.9,0.4-1.4c0-0.6-0.2-1.1-0.6-1.7c-0.5-0.8-1.5-1.7-2.9-2.8c-1.4-1.1-2.3-1.9-2.7-2.3c-0.6-0.8-0.9-1.7-0.9-2.6
		c0-0.7,0.2-1.4,0.5-2c0.4-0.6,0.9-1.1,1.5-1.5c0.6-0.4,1.4-0.5,2.1-0.5c0.8,0,1.6,0.2,2.3,0.6c0.7,0.4,1.4,1.1,2.2,2.2l-1.4,1.1
		c-0.6-0.9-1.2-1.4-1.7-1.7c-0.5-0.3-1-0.4-1.5-0.4c-0.7,0-1.3,0.2-1.7,0.6c-0.4,0.4-0.7,0.9-0.7,1.6c0,0.4,0.1,0.7,0.2,1.1
		c0.2,0.4,0.4,0.7,0.9,1.1c0.2,0.2,1,0.8,2.2,1.7c1.5,1.1,2.5,2.1,3.1,2.9c0.6,0.9,0.8,1.7,0.8,2.6c0,1.2-0.5,2.3-1.4,3.2
		c-0.9,0.9-2.1,1.4-3.5,1.4c-1,0-2-0.3-2.8-0.8C901.7,83.3,900.9,82.4,900.2,81.1z"/>
	<path fill="#3C3C3B" d="M915.3,67.1h9.8v1.7H917v5.4h8.1v1.7H917v6.7h8.1v1.7h-9.8V67.1z"/>
	<path fill="#3C3C3B" d="M927.7,81.1l1.5-0.9c1,1.9,2.2,2.8,3.6,2.8c0.6,0,1.1-0.1,1.6-0.4c0.5-0.3,0.9-0.6,1.2-1.1
		c0.3-0.5,0.4-0.9,0.4-1.4c0-0.6-0.2-1.1-0.6-1.7c-0.5-0.8-1.5-1.7-2.9-2.8c-1.4-1.1-2.3-1.9-2.7-2.3c-0.6-0.8-0.9-1.7-0.9-2.6
		c0-0.7,0.2-1.4,0.5-2c0.4-0.6,0.9-1.1,1.5-1.5c0.6-0.4,1.4-0.5,2.1-0.5c0.8,0,1.6,0.2,2.3,0.6c0.7,0.4,1.4,1.1,2.2,2.2l-1.4,1.1
		c-0.6-0.9-1.2-1.4-1.7-1.7c-0.5-0.3-1-0.4-1.5-0.4c-0.7,0-1.3,0.2-1.7,0.6c-0.4,0.4-0.7,0.9-0.7,1.6c0,0.4,0.1,0.7,0.2,1.1
		c0.2,0.4,0.4,0.7,0.9,1.1c0.2,0.2,1,0.8,2.2,1.7c1.5,1.1,2.5,2.1,3.1,2.9c0.6,0.9,0.8,1.7,0.8,2.6c0,1.2-0.5,2.3-1.4,3.2
		c-0.9,0.9-2.1,1.4-3.5,1.4c-1,0-2-0.3-2.8-0.8C929.2,83.3,928.4,82.4,927.7,81.1z"/>
</g>
<g>
	<path fill="#3C3C3B" d="M522.9,124l-1.1,1c-0.8-0.7-1.6-1.3-2.5-1.7c-0.9-0.4-1.8-0.6-2.6-0.6c-1.1,0-2.1,0.3-3.1,0.8
		c-1,0.5-1.7,1.2-2.2,2.1c-0.5,0.9-0.8,1.8-0.8,2.8c0,1,0.3,2,0.8,2.9c0.6,0.9,1.3,1.6,2.3,2.2c1,0.5,2,0.8,3.2,0.8
		c1.4,0,2.6-0.4,3.6-1.2c1-0.8,1.5-1.8,1.7-3.1h-4.3v-1.3h5.9c0,2.1-0.6,3.8-1.9,5c-1.2,1.2-2.9,1.9-5,1.9c-2.5,0-4.5-0.9-6-2.6
		c-1.1-1.3-1.7-2.8-1.7-4.6c0-1.3,0.3-2.5,1-3.6c0.6-1.1,1.5-2,2.7-2.6c1.1-0.6,2.4-0.9,3.8-0.9c1.2,0,2.2,0.2,3.3,0.6
		C520.9,122.4,521.9,123.1,522.9,124z"/>
	<path fill="#3C3C3B" d="M537.2,125.2v10.1h-1.3v-1.7c-0.5,0.7-1.2,1.2-1.8,1.5c-0.7,0.3-1.4,0.5-2.2,0.5c-1.4,0-2.6-0.5-3.7-1.6
		c-1-1-1.5-2.3-1.5-3.8c0-1.5,0.5-2.7,1.5-3.7c1-1,2.2-1.5,3.7-1.5c0.8,0,1.6,0.2,2.2,0.5c0.7,0.4,1.3,0.9,1.8,1.6v-1.9H537.2z
		 M532,126.2c-0.7,0-1.4,0.2-2,0.5c-0.6,0.4-1.1,0.9-1.5,1.5c-0.4,0.6-0.5,1.3-0.5,2c0,0.7,0.2,1.4,0.5,2c0.4,0.6,0.9,1.2,1.5,1.5
		c0.6,0.4,1.3,0.5,2,0.5c0.7,0,1.4-0.2,2-0.5s1.1-0.8,1.5-1.5c0.3-0.6,0.5-1.3,0.5-2.1c0-1.2-0.4-2.1-1.2-2.9
		C534.1,126.6,533.2,126.2,532,126.2z"/>
	<path fill="#3C3C3B" d="M545.4,121.4v1.3c-0.5-0.2-0.9-0.3-1.2-0.3c-0.3,0-0.5,0.1-0.6,0.2c-0.2,0.1-0.3,0.2-0.3,0.4
		c0,0.1-0.1,0.5-0.1,1.1l0,1.4h2.1v1.1h-2.1l0,9h-1.3v-9h-1.3v-1.1h1.3v-1.6c0-0.7,0.1-1.2,0.2-1.5c0.1-0.3,0.4-0.6,0.7-0.7
		c0.3-0.2,0.7-0.3,1.2-0.3C544.3,121.1,544.8,121.2,545.4,121.4z"/>
	<path fill="#3C3C3B" d="M558.4,125.2v10.1h-1.3v-1.7c-0.5,0.7-1.2,1.2-1.8,1.5c-0.7,0.3-1.4,0.5-2.2,0.5c-1.4,0-2.6-0.5-3.7-1.6
		c-1-1-1.5-2.3-1.5-3.8c0-1.5,0.5-2.7,1.5-3.7c1-1,2.2-1.5,3.7-1.5c0.8,0,1.6,0.2,2.2,0.5c0.7,0.4,1.3,0.9,1.8,1.6v-1.9H558.4z
		 M553.2,126.2c-0.7,0-1.4,0.2-2,0.5c-0.6,0.4-1.1,0.9-1.5,1.5c-0.4,0.6-0.5,1.3-0.5,2c0,0.7,0.2,1.4,0.5,2c0.4,0.6,0.9,1.2,1.5,1.5
		c0.6,0.4,1.3,0.5,2,0.5c0.7,0,1.4-0.2,2-0.5c0.6-0.4,1.1-0.8,1.5-1.5c0.3-0.6,0.5-1.3,0.5-2.1c0-1.2-0.4-2.1-1.2-2.9
		C555.3,126.6,554.3,126.2,553.2,126.2z"/>
	<path fill="#3C3C3B" d="M567.5,126.3l-0.8,0.9c-0.7-0.7-1.4-1-2-1c-0.4,0-0.8,0.1-1.1,0.4c-0.3,0.3-0.5,0.6-0.5,1
		c0,0.3,0.1,0.6,0.4,0.9c0.2,0.3,0.8,0.7,1.6,1.1c1,0.5,1.6,1,2,1.4c0.3,0.5,0.5,1,0.5,1.6c0,0.8-0.3,1.5-0.9,2.1
		c-0.6,0.6-1.3,0.9-2.2,0.9c-0.6,0-1.1-0.1-1.7-0.4c-0.5-0.3-1-0.6-1.3-1l0.8-0.9c0.7,0.7,1.4,1.1,2.1,1.1c0.5,0,1-0.2,1.3-0.5
		c0.4-0.3,0.5-0.7,0.5-1.2c0-0.4-0.1-0.7-0.4-1c-0.2-0.3-0.8-0.6-1.6-1.1c-0.9-0.5-1.5-0.9-1.9-1.4c-0.3-0.5-0.5-1-0.5-1.6
		c0-0.8,0.3-1.4,0.8-1.9c0.5-0.5,1.2-0.8,2-0.8C565.6,125,566.6,125.4,567.5,126.3z"/>
	<path fill="#3C3C3B" d="M572.4,133.3c0.3,0,0.6,0.1,0.8,0.3c0.2,0.2,0.3,0.5,0.3,0.8c0,0.3-0.1,0.6-0.3,0.8
		c-0.2,0.2-0.5,0.3-0.8,0.3s-0.6-0.1-0.8-0.3c-0.2-0.2-0.3-0.5-0.3-0.8c0-0.3,0.1-0.6,0.3-0.8C571.8,133.4,572,133.3,572.4,133.3z"
		/>
</g>
<g>
	<path fill="#3C3C3B" d="M845.8,120.9h3.4v17.2h-1.7v-15.5h-2.7L845.8,120.9z"/>
	<path fill="#3C3C3B" d="M867.8,120.9v1.6h-6.1l-0.9,4.7c0.7-0.2,1.4-0.3,2-0.3c1.6,0,2.9,0.5,3.9,1.6c1,1,1.5,2.4,1.5,4
		c0,1.1-0.3,2.2-0.8,3.1c-0.5,0.9-1.2,1.7-2.1,2.2c-0.9,0.5-1.9,0.8-3.1,0.8c-1.4,0-2.6-0.4-3.5-1.3c-1-0.9-1.5-2-1.7-3.3h1.8
		c0.1,0.7,0.4,1.2,0.7,1.6c0.3,0.4,0.7,0.7,1.3,1c0.5,0.3,1.1,0.4,1.7,0.4c1.1,0,2.1-0.4,2.9-1.3c0.8-0.9,1.2-1.9,1.2-3.2
		c0-1.2-0.4-2.1-1.1-2.8c-0.7-0.7-1.7-1.1-2.9-1.1c-1,0-2.2,0.3-3.7,0.9l1.6-8.5H867.8z"/>
	<path fill="#3C3C3B" d="M880.9,138.1v-17.2h3.6c2.6,0,4.4,0.2,5.6,0.6c1.7,0.6,3,1.6,3.9,3c0.9,1.4,1.4,3.2,1.4,5.1
		c0,1.7-0.4,3.2-1.1,4.5c-0.7,1.3-1.7,2.3-2.9,2.9c-1.2,0.6-2.8,0.9-5,0.9H880.9z M882.5,136.5h2c2.4,0,4-0.1,4.9-0.4
		c1.3-0.4,2.3-1.2,3-2.3c0.7-1.1,1.1-2.4,1.1-4c0-1.7-0.4-3.1-1.2-4.2c-0.8-1.2-1.9-2-3.4-2.4c-1.1-0.3-2.8-0.5-5.3-0.5h-1.2V136.5z
		"/>
	<path fill="#3C3C3B" d="M901.5,116h2.5l-3.4,3.6H899L901.5,116z M899.8,120.9h1.7v17.2h-1.7V120.9z"/>
	<path fill="#3C3C3B" d="M913.9,120.9l8,17.2h-1.9l-2.7-5.7H910l-2.7,5.7h-1.9l8.1-17.2H913.9z M913.7,124.6l-2.9,6.2h5.9
		L913.7,124.6z"/>
	<path fill="#3C3C3B" d="M924.3,134.9l1.5-0.9c1,1.9,2.2,2.8,3.6,2.8c0.6,0,1.1-0.1,1.6-0.4c0.5-0.3,0.9-0.6,1.2-1.1
		c0.3-0.5,0.4-0.9,0.4-1.4c0-0.6-0.2-1.1-0.6-1.7c-0.5-0.8-1.5-1.7-2.9-2.8c-1.4-1.1-2.3-1.9-2.7-2.3c-0.6-0.8-0.9-1.7-0.9-2.6
		c0-0.7,0.2-1.4,0.5-2c0.4-0.6,0.9-1.1,1.5-1.5c0.6-0.4,1.4-0.5,2.1-0.5c0.8,0,1.6,0.2,2.3,0.6c0.7,0.4,1.4,1.1,2.2,2.2l-1.4,1.1
		c-0.6-0.9-1.2-1.4-1.7-1.7c-0.5-0.3-1-0.4-1.5-0.4c-0.7,0-1.3,0.2-1.7,0.6c-0.4,0.4-0.7,0.9-0.7,1.6c0,0.4,0.1,0.7,0.2,1.1
		c0.2,0.4,0.4,0.7,0.9,1.1c0.2,0.2,1,0.8,2.2,1.7c1.5,1.1,2.5,2.1,3.1,2.9c0.6,0.9,0.8,1.7,0.8,2.6c0,1.2-0.5,2.3-1.4,3.2
		c-0.9,0.9-2.1,1.4-3.5,1.4c-1,0-2-0.3-2.8-0.8C925.8,137.2,925,136.2,924.3,134.9z"/>
</g>
<g>
	<path fill="#3C3C3B" d="M509.8,173.6h2.7c1.1,0,1.9,0.1,2.5,0.4c0.6,0.3,1,0.7,1.4,1.2c0.3,0.5,0.5,1.1,0.5,1.8
		c0,0.6-0.1,1.2-0.4,1.7c-0.3,0.5-0.7,0.9-1.3,1.2c0.7,0.2,1.3,0.5,1.6,0.8c0.4,0.3,0.7,0.7,0.9,1.2c0.2,0.5,0.3,1,0.3,1.5
		c0,1.1-0.4,2-1.2,2.8c-0.8,0.8-1.9,1.1-3.2,1.1h-3.7V173.6z M511.1,175v4.4h0.8c0.9,0,1.6-0.1,2.1-0.3c0.4-0.2,0.8-0.5,1.1-0.8
		c0.3-0.4,0.4-0.8,0.4-1.3c0-0.6-0.2-1.1-0.7-1.5c-0.4-0.4-1.1-0.5-2.1-0.5H511.1z M511.1,180.7v5.2h1.7c1,0,1.7-0.1,2.2-0.3
		c0.5-0.2,0.8-0.5,1.1-0.9c0.3-0.4,0.4-0.9,0.4-1.3c0-0.6-0.2-1.1-0.6-1.6c-0.4-0.5-0.9-0.8-1.6-0.9c-0.5-0.1-1.3-0.2-2.4-0.2H511.1
		z"/>
	<path fill="#3C3C3B" d="M522,173c0.3,0,0.5,0.1,0.8,0.3c0.2,0.2,0.3,0.5,0.3,0.8c0,0.3-0.1,0.5-0.3,0.8c-0.2,0.2-0.5,0.3-0.8,0.3
		c-0.3,0-0.5-0.1-0.7-0.3c-0.2-0.2-0.3-0.5-0.3-0.8c0-0.3,0.1-0.6,0.3-0.8C521.4,173.1,521.7,173,522,173z M521.3,177.2h1.3v10.1
		h-1.3V177.2z"/>
	<path fill="#3C3C3B" d="M531.5,178.3l-0.8,0.9c-0.7-0.7-1.4-1-2-1c-0.4,0-0.8,0.1-1.1,0.4c-0.3,0.3-0.5,0.6-0.5,1
		c0,0.3,0.1,0.6,0.4,0.9c0.2,0.3,0.8,0.7,1.6,1.1c1,0.5,1.6,1,2,1.4c0.3,0.5,0.5,1,0.5,1.6c0,0.8-0.3,1.5-0.9,2.1
		c-0.6,0.6-1.3,0.9-2.2,0.9c-0.6,0-1.1-0.1-1.7-0.4c-0.5-0.3-1-0.6-1.3-1l0.8-0.9c0.7,0.7,1.4,1.1,2.1,1.1c0.5,0,1-0.2,1.3-0.5
		c0.4-0.3,0.5-0.7,0.5-1.2c0-0.4-0.1-0.7-0.4-1c-0.2-0.3-0.8-0.6-1.6-1.1c-0.9-0.5-1.5-0.9-1.9-1.4c-0.3-0.5-0.5-1-0.5-1.6
		c0-0.8,0.3-1.4,0.8-1.9c0.5-0.5,1.2-0.8,2-0.8C529.6,176.9,530.6,177.4,531.5,178.3z"/>
	<path fill="#3C3C3B" d="M534.8,177.2h1.3v4.7c0,1.1,0.1,1.9,0.2,2.4c0.2,0.6,0.5,1.1,1.1,1.5c0.5,0.4,1.1,0.5,1.9,0.5
		c0.7,0,1.3-0.2,1.8-0.5c0.5-0.4,0.9-0.8,1-1.4c0.1-0.4,0.2-1.2,0.2-2.5v-4.7h1.3v4.9c0,1.4-0.2,2.4-0.5,3.1
		c-0.3,0.7-0.8,1.3-1.5,1.7c-0.7,0.4-1.5,0.6-2.5,0.6c-1,0-1.8-0.2-2.5-0.6c-0.7-0.4-1.1-1-1.5-1.7c-0.3-0.7-0.5-1.8-0.5-3.2V177.2z
		"/>
	<path fill="#3C3C3B" d="M548.7,173.4h1.3v3.7h2.1v1.1H550v9h-1.3v-9H547v-1.1h1.8V173.4z"/>
	<path fill="#3C3C3B" d="M563.7,183.9l1.1,0.6c-0.4,0.7-0.8,1.3-1.2,1.7c-0.5,0.4-1,0.8-1.6,1c-0.6,0.2-1.3,0.3-2,0.3
		c-1.6,0-2.9-0.5-3.9-1.6c-0.9-1.1-1.4-2.3-1.4-3.7c0-1.3,0.4-2.4,1.2-3.4c1-1.3,2.3-1.9,4-1.9c1.7,0,3.1,0.7,4.1,2
		c0.7,0.9,1.1,2.1,1.1,3.4H556c0,1.2,0.4,2.1,1.1,2.9c0.7,0.7,1.6,1.1,2.7,1.1c0.5,0,1-0.1,1.5-0.3c0.5-0.2,0.9-0.4,1.2-0.7
		C562.9,185.1,563.3,184.6,563.7,183.9z M563.7,181.2c-0.2-0.7-0.4-1.2-0.8-1.7c-0.3-0.4-0.8-0.7-1.3-1c-0.5-0.3-1.1-0.4-1.7-0.4
		c-1,0-1.8,0.3-2.6,1c-0.5,0.5-0.9,1.2-1.2,2.1H563.7z"/>
	<path fill="#3C3C3B" d="M568.2,177.2h1.3v1.5c0.4-0.6,0.8-1,1.3-1.3c0.4-0.3,0.9-0.4,1.4-0.4c0.4,0,0.7,0.1,1.1,0.3l-0.7,1.1
		c-0.3-0.1-0.5-0.2-0.7-0.2c-0.4,0-0.8,0.2-1.3,0.5c-0.4,0.4-0.7,0.9-0.9,1.7c-0.2,0.6-0.2,1.7-0.2,3.5v3.4h-1.3V177.2z"/>
	<path fill="#3C3C3B" d="M576.6,172.5h2l-2.7,2.9h-1.3L576.6,172.5z M575.3,177.2h1.3v10.1h-1.3V177.2z"/>
	<path fill="#3C3C3B" d="M590.5,177.2v10.1h-1.3v-1.7c-0.5,0.7-1.2,1.2-1.8,1.5c-0.7,0.3-1.4,0.5-2.2,0.5c-1.4,0-2.6-0.5-3.7-1.6
		c-1-1-1.5-2.3-1.5-3.8c0-1.5,0.5-2.7,1.5-3.7c1-1,2.2-1.5,3.7-1.5c0.8,0,1.6,0.2,2.2,0.5c0.7,0.4,1.3,0.9,1.8,1.6v-1.9H590.5z
		 M585.3,178.2c-0.7,0-1.4,0.2-2,0.5c-0.6,0.4-1.1,0.9-1.5,1.5c-0.4,0.6-0.5,1.3-0.5,2c0,0.7,0.2,1.4,0.5,2c0.4,0.6,0.9,1.2,1.5,1.5
		c0.6,0.4,1.3,0.5,2,0.5c0.7,0,1.4-0.2,2-0.5c0.6-0.4,1.1-0.8,1.5-1.5c0.3-0.6,0.5-1.3,0.5-2.1c0-1.2-0.4-2.1-1.2-2.9
		C587.3,178.6,586.4,178.2,585.3,178.2z"/>
	<path fill="#3C3C3B" d="M599.6,178.3l-0.8,0.9c-0.7-0.7-1.4-1-2-1c-0.4,0-0.8,0.1-1.1,0.4c-0.3,0.3-0.5,0.6-0.5,1
		c0,0.3,0.1,0.6,0.4,0.9c0.2,0.3,0.8,0.7,1.6,1.1c1,0.5,1.6,1,2,1.4c0.3,0.5,0.5,1,0.5,1.6c0,0.8-0.3,1.5-0.9,2.1
		c-0.6,0.6-1.3,0.9-2.2,0.9c-0.6,0-1.1-0.1-1.7-0.4c-0.5-0.3-1-0.6-1.3-1l0.8-0.9c0.7,0.7,1.4,1.1,2.1,1.1c0.5,0,1-0.2,1.3-0.5
		c0.4-0.3,0.5-0.7,0.5-1.2c0-0.4-0.1-0.7-0.4-1c-0.2-0.3-0.8-0.6-1.6-1.1c-0.9-0.5-1.5-0.9-1.9-1.4c-0.3-0.5-0.5-1-0.5-1.6
		c0-0.8,0.3-1.4,0.8-1.9c0.5-0.5,1.2-0.8,2-0.8C597.7,176.9,598.6,177.4,599.6,178.3z"/>
	<path fill="#3C3C3B" d="M608.3,177.2h1.4l3.5,7.8l3.4-7.8h1.4l-6,13.8h-1.4l1.9-4.5L608.3,177.2z"/>
	<path fill="#3C3C3B" d="M637.1,177.2v10.1h-1.3v-1.7c-0.5,0.7-1.2,1.2-1.8,1.5c-0.7,0.3-1.4,0.5-2.2,0.5c-1.4,0-2.6-0.5-3.7-1.6
		c-1-1-1.5-2.3-1.5-3.8c0-1.5,0.5-2.7,1.5-3.7c1-1,2.2-1.5,3.7-1.5c0.8,0,1.6,0.2,2.2,0.5c0.7,0.4,1.3,0.9,1.8,1.6v-1.9H637.1z
		 M631.9,178.2c-0.7,0-1.4,0.2-2,0.5c-0.6,0.4-1.1,0.9-1.5,1.5c-0.4,0.6-0.5,1.3-0.5,2c0,0.7,0.2,1.4,0.5,2c0.4,0.6,0.9,1.2,1.5,1.5
		s1.3,0.5,2,0.5c0.7,0,1.4-0.2,2-0.5c0.6-0.4,1.1-0.8,1.5-1.5c0.3-0.6,0.5-1.3,0.5-2.1c0-1.2-0.4-2.1-1.2-2.9
		C634,178.6,633,178.2,631.9,178.2z"/>
	<path fill="#3C3C3B" d="M650.9,179.3l-1,0.6c-0.9-1.2-2.1-1.8-3.6-1.8c-1.2,0-2.2,0.4-3.1,1.2c-0.8,0.8-1.2,1.7-1.2,2.9
		c0,0.7,0.2,1.4,0.6,2.1c0.4,0.6,0.9,1.2,1.5,1.5c0.7,0.4,1.4,0.5,2.2,0.5c1.5,0,2.7-0.6,3.6-1.8l1,0.7c-0.5,0.7-1.1,1.3-1.9,1.7
		c-0.8,0.4-1.7,0.6-2.8,0.6c-1.6,0-2.9-0.5-4-1.5c-1.1-1-1.6-2.2-1.6-3.7c0-1,0.2-1.9,0.7-2.7c0.5-0.8,1.2-1.5,2-2
		c0.9-0.5,1.8-0.7,2.9-0.7c0.7,0,1.3,0.1,1.9,0.3c0.6,0.2,1.1,0.5,1.6,0.8C650.3,178.4,650.6,178.8,650.9,179.3z"/>
	<path fill="#3C3C3B" d="M664.3,179.3l-1,0.6c-0.9-1.2-2.1-1.8-3.6-1.8c-1.2,0-2.2,0.4-3.1,1.2c-0.8,0.8-1.2,1.7-1.2,2.9
		c0,0.7,0.2,1.4,0.6,2.1c0.4,0.6,0.9,1.2,1.5,1.5c0.7,0.4,1.4,0.5,2.2,0.5c1.5,0,2.7-0.6,3.6-1.8l1,0.7c-0.5,0.7-1.1,1.3-1.9,1.7
		c-0.8,0.4-1.7,0.6-2.8,0.6c-1.6,0-2.9-0.5-4-1.5c-1.1-1-1.6-2.2-1.6-3.7c0-1,0.2-1.9,0.7-2.7c0.5-0.8,1.2-1.5,2-2
		c0.9-0.5,1.8-0.7,2.9-0.7c0.7,0,1.3,0.1,1.9,0.3c0.6,0.2,1.1,0.5,1.6,0.8C663.7,178.4,664,178.8,664.3,179.3z"/>
	<path fill="#3C3C3B" d="M676.5,183.9l1.1,0.6c-0.4,0.7-0.8,1.3-1.2,1.7c-0.5,0.4-1,0.8-1.6,1c-0.6,0.2-1.3,0.3-2,0.3
		c-1.6,0-2.9-0.5-3.9-1.6c-0.9-1.1-1.4-2.3-1.4-3.7c0-1.3,0.4-2.4,1.2-3.4c1-1.3,2.3-1.9,4-1.9c1.7,0,3.1,0.7,4.1,2
		c0.7,0.9,1.1,2.1,1.1,3.4h-9.1c0,1.2,0.4,2.1,1.1,2.9c0.7,0.7,1.6,1.1,2.7,1.1c0.5,0,1-0.1,1.5-0.3c0.5-0.2,0.9-0.4,1.2-0.7
		C675.7,185.1,676.1,184.6,676.5,183.9z M676.5,181.2c-0.2-0.7-0.4-1.2-0.8-1.7c-0.3-0.4-0.8-0.7-1.3-1c-0.5-0.3-1.1-0.4-1.7-0.4
		c-1,0-1.8,0.3-2.6,1c-0.5,0.5-0.9,1.2-1.2,2.1H676.5z"/>
	<path fill="#3C3C3B" d="M686.5,178.3l-0.8,0.9c-0.7-0.7-1.4-1-2-1c-0.4,0-0.8,0.1-1.1,0.4c-0.3,0.3-0.5,0.6-0.5,1
		c0,0.3,0.1,0.6,0.4,0.9c0.2,0.3,0.8,0.7,1.6,1.1c1,0.5,1.6,1,2,1.4c0.3,0.5,0.5,1,0.5,1.6c0,0.8-0.3,1.5-0.9,2.1
		c-0.6,0.6-1.3,0.9-2.2,0.9c-0.6,0-1.1-0.1-1.7-0.4c-0.5-0.3-1-0.6-1.3-1l0.8-0.9c0.7,0.7,1.4,1.1,2.1,1.1c0.5,0,1-0.2,1.3-0.5
		c0.4-0.3,0.5-0.7,0.5-1.2c0-0.4-0.1-0.7-0.4-1c-0.2-0.3-0.8-0.6-1.6-1.1c-0.9-0.5-1.5-0.9-1.9-1.4c-0.3-0.5-0.5-1-0.5-1.6
		c0-0.8,0.3-1.4,0.8-1.9c0.5-0.5,1.2-0.8,2-0.8C684.6,176.9,685.6,177.4,686.5,178.3z"/>
	<path fill="#3C3C3B" d="M694.7,176.9c1.6,0,2.8,0.6,3.9,1.7c0.9,1,1.4,2.2,1.4,3.6c0,1.4-0.5,2.6-1.5,3.7c-1,1.1-2.2,1.6-3.8,1.6
		c-1.5,0-2.8-0.5-3.8-1.6c-1-1.1-1.5-2.3-1.5-3.7c0-1.4,0.5-2.6,1.4-3.6C691.8,177.5,693.1,176.9,694.7,176.9z M694.7,178.2
		c-1.1,0-2,0.4-2.8,1.2c-0.8,0.8-1.2,1.8-1.2,2.9c0,0.7,0.2,1.4,0.5,2c0.4,0.6,0.8,1.1,1.4,1.5c0.6,0.3,1.3,0.5,2,0.5s1.4-0.2,2-0.5
		c0.6-0.3,1.1-0.8,1.4-1.5c0.4-0.6,0.5-1.3,0.5-2c0-1.1-0.4-2.1-1.2-2.9C696.7,178.6,695.8,178.2,694.7,178.2z"/>
	<path fill="#3C3C3B" d="M703,177.2h1.3v1.5c0.4-0.6,0.8-1,1.3-1.3c0.4-0.3,0.9-0.4,1.4-0.4c0.4,0,0.7,0.1,1.1,0.3l-0.7,1.1
		c-0.3-0.1-0.5-0.2-0.7-0.2c-0.4,0-0.8,0.2-1.3,0.5c-0.4,0.4-0.7,0.9-0.9,1.7c-0.2,0.6-0.2,1.7-0.2,3.5v3.4H703V177.2z"/>
	<path fill="#3C3C3B" d="M710.8,173c0.3,0,0.5,0.1,0.8,0.3c0.2,0.2,0.3,0.5,0.3,0.8c0,0.3-0.1,0.5-0.3,0.8c-0.2,0.2-0.5,0.3-0.8,0.3
		c-0.3,0-0.5-0.1-0.7-0.3c-0.2-0.2-0.3-0.5-0.3-0.8c0-0.3,0.1-0.6,0.3-0.8C710.2,173.1,710.5,173,710.8,173z M710.1,177.2h1.3v10.1
		h-1.3V177.2z"/>
	<path fill="#3C3C3B" d="M720,176.9c1.6,0,2.8,0.6,3.9,1.7c0.9,1,1.4,2.2,1.4,3.6c0,1.4-0.5,2.6-1.5,3.7c-1,1.1-2.2,1.6-3.8,1.6
		c-1.5,0-2.8-0.5-3.8-1.6c-1-1.1-1.5-2.3-1.5-3.7c0-1.4,0.5-2.6,1.4-3.6C717.2,177.5,718.5,176.9,720,176.9z M720,178.2
		c-1.1,0-2,0.4-2.8,1.2c-0.8,0.8-1.2,1.8-1.2,2.9c0,0.7,0.2,1.4,0.5,2c0.4,0.6,0.8,1.1,1.4,1.5c0.6,0.3,1.3,0.5,2,0.5s1.4-0.2,2-0.5
		c0.6-0.3,1.1-0.8,1.4-1.5c0.4-0.6,0.5-1.3,0.5-2c0-1.1-0.4-2.1-1.2-2.9C722,178.6,721.1,178.2,720,178.2z"/>
	<path fill="#3C3C3B" d="M733.9,178.3l-0.8,0.9c-0.7-0.7-1.4-1-2-1c-0.4,0-0.8,0.1-1.1,0.4c-0.3,0.3-0.5,0.6-0.5,1
		c0,0.3,0.1,0.6,0.4,0.9c0.2,0.3,0.8,0.7,1.6,1.1c1,0.5,1.6,1,2,1.4c0.3,0.5,0.5,1,0.5,1.6c0,0.8-0.3,1.5-0.9,2.1
		c-0.6,0.6-1.3,0.9-2.2,0.9c-0.6,0-1.1-0.1-1.7-0.4c-0.5-0.3-1-0.6-1.3-1l0.8-0.9c0.7,0.7,1.4,1.1,2.1,1.1c0.5,0,1-0.2,1.3-0.5
		c0.4-0.3,0.5-0.7,0.5-1.2c0-0.4-0.1-0.7-0.4-1c-0.2-0.3-0.8-0.6-1.6-1.1c-0.9-0.5-1.5-0.9-1.9-1.4c-0.3-0.5-0.5-1-0.5-1.6
		c0-0.8,0.3-1.4,0.8-1.9c0.5-0.5,1.2-0.8,2-0.8C732,176.9,732.9,177.4,733.9,178.3z"/>
	<path fill="#3C3C3B" d="M738.7,185.2c0.3,0,0.6,0.1,0.8,0.3c0.2,0.2,0.3,0.5,0.3,0.8c0,0.3-0.1,0.6-0.3,0.8
		c-0.2,0.2-0.5,0.3-0.8,0.3c-0.3,0-0.6-0.1-0.8-0.3c-0.2-0.2-0.3-0.5-0.3-0.8c0-0.3,0.1-0.6,0.3-0.8
		C738.1,185.3,738.4,185.2,738.7,185.2z"/>
</g>
<g>
	<path fill="#3C3C3B" d="M859.9,180.6c1.2,0.6,2,1.2,2.5,2c0.5,0.7,0.8,1.6,0.8,2.5c0,1.3-0.4,2.5-1.3,3.5c-1.1,1.2-2.6,1.9-4.5,1.9
		c-1.9,0-3.3-0.5-4.3-1.6c-1-1.1-1.5-2.3-1.5-3.6c0-1,0.3-1.8,0.8-2.6c0.5-0.8,1.4-1.4,2.6-2c-0.8-0.4-1.5-1-1.9-1.6
		c-0.4-0.6-0.6-1.3-0.6-2.1c0-0.7,0.2-1.5,0.7-2.2c0.4-0.7,1.1-1.3,1.9-1.7c0.8-0.4,1.6-0.6,2.6-0.6c0.9,0,1.7,0.2,2.5,0.6
		c0.8,0.4,1.4,1,1.8,1.7c0.4,0.7,0.6,1.5,0.6,2.2c0,0.8-0.2,1.5-0.6,2.1C861.3,179.7,860.7,180.2,859.9,180.6z M857.4,181.5
		c-1.2,0-2.2,0.4-3,1.2c-0.8,0.8-1.2,1.7-1.2,2.7c0,0.6,0.2,1.2,0.5,1.8c0.3,0.6,0.8,1,1.4,1.3c0.6,0.3,1.3,0.5,2.1,0.5
		c1.3,0,2.2-0.4,3-1.1c0.7-0.7,1.1-1.6,1.1-2.6c0-1-0.4-1.8-1.2-2.5C859.4,181.9,858.5,181.5,857.4,181.5z M857.3,174.1
		c-0.9,0-1.7,0.3-2.3,0.8c-0.6,0.6-0.9,1.2-0.9,2c0,0.8,0.3,1.5,1,2.1c0.7,0.6,1.4,0.9,2.3,0.9c0.6,0,1.1-0.1,1.6-0.4
		c0.5-0.3,0.9-0.7,1.2-1.2c0.3-0.5,0.4-1,0.4-1.5c0-0.7-0.3-1.3-0.8-1.9S858.4,174.1,857.3,174.1z"/>
	<path fill="#3C3C3B" d="M875.5,190.1v-17.2h3.6c2.6,0,4.4,0.2,5.6,0.6c1.7,0.6,3,1.6,3.9,3c0.9,1.4,1.4,3.2,1.4,5.1
		c0,1.7-0.4,3.2-1.1,4.5c-0.7,1.3-1.7,2.3-2.9,2.9s-2.9,0.9-5,0.9H875.5z M877.1,188.4h2c2.4,0,4-0.1,4.9-0.4c1.3-0.4,2.3-1.2,3-2.3
		c0.7-1.1,1.1-2.4,1.1-4c0-1.7-0.4-3.1-1.2-4.2c-0.8-1.2-1.9-2-3.4-2.4c-1.1-0.3-2.8-0.5-5.3-0.5h-1.2V188.4z"/>
	<path fill="#3C3C3B" d="M896.1,167.9h2.5l-3.4,3.6h-1.6L896.1,167.9z M894.5,172.9h1.7v17.2h-1.7V172.9z"/>
	<path fill="#3C3C3B" d="M908.5,172.9l8,17.2h-1.9l-2.7-5.6h-7.4l-2.7,5.6H900l8.1-17.2H908.5z M908.3,176.5l-2.9,6.2h5.9
		L908.3,176.5z"/>
	<path fill="#3C3C3B" d="M918.9,186.9l1.5-0.9c1,1.9,2.2,2.8,3.6,2.8c0.6,0,1.1-0.1,1.6-0.4c0.5-0.3,0.9-0.6,1.2-1.1
		c0.3-0.5,0.4-0.9,0.4-1.4c0-0.6-0.2-1.1-0.6-1.7c-0.5-0.8-1.5-1.7-2.9-2.8c-1.4-1.1-2.3-1.9-2.7-2.3c-0.6-0.8-0.9-1.7-0.9-2.6
		c0-0.7,0.2-1.4,0.5-2c0.4-0.6,0.9-1.1,1.5-1.5c0.6-0.4,1.4-0.5,2.1-0.5c0.8,0,1.6,0.2,2.3,0.6c0.7,0.4,1.4,1.1,2.2,2.2l-1.4,1.1
		c-0.6-0.9-1.2-1.4-1.7-1.7c-0.5-0.3-1-0.4-1.5-0.4c-0.7,0-1.3,0.2-1.7,0.6c-0.4,0.4-0.7,0.9-0.7,1.6c0,0.4,0.1,0.7,0.2,1.1
		c0.2,0.4,0.4,0.7,0.9,1.1c0.2,0.2,1,0.8,2.2,1.7c1.5,1.1,2.5,2.1,3.1,2.9c0.6,0.9,0.8,1.7,0.8,2.6c0,1.2-0.5,2.3-1.4,3.2
		c-0.9,0.9-2.1,1.4-3.5,1.4c-1,0-2-0.3-2.8-0.8C920.4,189.1,919.6,188.2,918.9,186.9z"/>
</g>
<g>
	<path fill="#3C3C3B" d="M62.4,12.4h4c2.2,0,3.8,0.2,4.7,0.6c1,0.4,1.7,1.1,2.3,2c0.6,0.9,0.8,2,0.8,3.2c0,1.4-0.4,2.6-1.1,3.5
		c-0.7,0.9-1.7,1.6-3,1.9c-0.7,0.2-2.1,0.3-4,0.3v8.5h-3.8V12.4z M66.2,20.3h1.2c1,0,1.6-0.1,2-0.2c0.4-0.1,0.7-0.4,0.9-0.7
		c0.2-0.3,0.3-0.7,0.3-1.1c0-0.8-0.3-1.3-0.9-1.7c-0.4-0.3-1.2-0.4-2.4-0.4h-1.1V20.3z"/>
	<path fill="#3C3C3B" d="M84.4,12.4h4c2.2,0,3.8,0.2,4.7,0.6c0.9,0.4,1.7,1.1,2.3,2c0.6,0.9,0.9,2,0.9,3.3c0,1.3-0.3,2.4-0.9,3.3
		c-0.6,0.9-1.6,1.6-2.9,2l4.7,8.9h-4.2L88.6,24h-0.3v8.5h-3.8V12.4z M88.2,20.3h1.2c1.2,0,2-0.2,2.5-0.5c0.5-0.3,0.7-0.8,0.7-1.6
		c0-0.4-0.1-0.8-0.3-1.1c-0.2-0.3-0.5-0.6-0.9-0.7c-0.4-0.1-1.1-0.2-2.1-0.2h-1V20.3z"/>
	<path fill="#3C3C3B" d="M115.9,11.9c2.8,0,5.3,1,7.3,3.1c2,2.1,3.1,4.6,3.1,7.5c0,2.9-1,5.4-3,7.4s-4.5,3-7.3,3c-3,0-5.5-1-7.5-3.1
		c-2-2.1-3-4.5-3-7.4c0-1.9,0.5-3.7,1.4-5.3c0.9-1.6,2.2-2.9,3.8-3.8C112.3,12.4,114,11.9,115.9,11.9z M115.9,15.6
		c-1.9,0-3.4,0.6-4.7,1.9c-1.3,1.3-1.9,2.9-1.9,4.9c0,2.2,0.8,4,2.4,5.3c1.2,1,2.7,1.5,4.3,1.5c1.8,0,3.3-0.7,4.6-2
		c1.3-1.3,1.9-2.9,1.9-4.8c0-1.9-0.6-3.5-1.9-4.8C119.3,16.3,117.7,15.6,115.9,15.6z"/>
	<path fill="#3C3C3B" d="M136,12.4h4.5c2.9,0,5.1,0.4,6.5,1.1c1.4,0.7,2.6,1.9,3.5,3.5c0.9,1.6,1.4,3.5,1.4,5.7c0,1.5-0.3,3-0.8,4.3
		c-0.5,1.3-1.2,2.4-2.1,3.2c-0.9,0.9-1.9,1.4-2.9,1.8c-1.1,0.3-2.9,0.5-5.5,0.5H136V12.4z M139.8,16.1v12.6h1.8c1.7,0,3-0.2,3.8-0.6
		c0.8-0.4,1.4-1.1,1.9-2c0.5-0.9,0.7-2.1,0.7-3.5c0-2.1-0.6-3.8-1.8-4.9c-1.1-1.1-2.8-1.6-5.2-1.6H139.8z"/>
	<path fill="#3C3C3B" d="M161.5,12.4h3.8v13c0,1.1,0.1,1.9,0.3,2.4c0.2,0.5,0.5,0.8,1,1.1c0.4,0.3,1,0.4,1.6,0.4
		c0.7,0,1.3-0.2,1.7-0.5c0.5-0.3,0.8-0.7,1-1.2c0.2-0.5,0.3-1.4,0.3-2.7V12.4h3.8v11.9c0,2-0.1,3.4-0.3,4.2
		c-0.2,0.8-0.7,1.5-1.3,2.3c-0.6,0.7-1.4,1.3-2.2,1.6c-0.8,0.3-1.8,0.5-2.9,0.5c-1.5,0-2.7-0.3-3.8-1c-1.1-0.7-1.8-1.5-2.3-2.5
		c-0.5-1-0.7-2.7-0.7-5.1V12.4z"/>
	<path fill="#3C3C3B" d="M204,15.9l-2.7,2.5c-1.8-1.9-3.9-2.9-6.1-2.9c-1.9,0-3.5,0.7-4.8,2c-1.3,1.3-2,2.9-2,4.8
		c0,1.3,0.3,2.5,0.9,3.6c0.6,1,1.4,1.8,2.5,2.4c1.1,0.6,2.2,0.9,3.5,0.9c1.1,0,2.1-0.2,3-0.6c0.9-0.4,1.9-1.2,3-2.3l2.6,2.7
		c-1.5,1.4-2.9,2.4-4.2,3c-1.3,0.6-2.8,0.8-4.5,0.8c-3.1,0-5.7-1-7.6-3c-2-2-3-4.5-3-7.6c0-2,0.5-3.8,1.4-5.3
		c0.9-1.6,2.2-2.8,3.9-3.7c1.7-0.9,3.5-1.4,5.4-1.4c1.7,0,3.2,0.3,4.8,1C201.6,13.7,202.9,14.7,204,15.9z"/>
	<path fill="#3C3C3B" d="M211.5,12.4h11.1v3.8h-3.7v16.3h-3.9V16.2h-3.6V12.4z"/>
	<path fill="#3C3C3B" d="M240.8,11.9c2.8,0,5.3,1,7.3,3.1c2,2.1,3.1,4.6,3.1,7.5c0,2.9-1,5.4-3,7.4c-2,2-4.5,3-7.3,3
		c-3,0-5.5-1-7.5-3.1c-2-2.1-3-4.5-3-7.4c0-1.9,0.5-3.7,1.4-5.3c0.9-1.6,2.2-2.9,3.8-3.8C237.2,12.4,238.9,11.9,240.8,11.9z
		 M240.8,15.6c-1.9,0-3.4,0.6-4.7,1.9c-1.3,1.3-1.9,2.9-1.9,4.9c0,2.2,0.8,4,2.4,5.3c1.2,1,2.7,1.5,4.3,1.5c1.8,0,3.3-0.7,4.6-2
		c1.3-1.3,1.9-2.9,1.9-4.8c0-1.9-0.6-3.5-1.9-4.8C244.2,16.3,242.6,15.6,240.8,15.6z"/>
</g>
<g>
	<path fill="#3C3C3B" d="M330.9,12.4H342v3.8h-3.7v16.3h-3.9V16.2h-3.6V12.4z"/>
	<path fill="#3C3C3B" d="M350.5,12.4h3.8v20h-3.8V12.4z"/>
	<path fill="#3C3C3B" d="M364.7,12.4h10.9v3.7h-7.1v3.6h7.1v3.7h-7.1v5.3h7.1v3.7h-10.9V12.4z"/>
	<path fill="#3C3C3B" d="M387.3,12.4h3.7l4.6,14l4.7-14h3.7l3.4,20h-3.7l-2.1-12.7l-4.3,12.7h-3.4l-4.2-12.7l-2.2,12.7h-3.7
		L387.3,12.4z"/>
	<path fill="#3C3C3B" d="M416.6,12.4h4c2.2,0,3.8,0.2,4.7,0.6c1,0.4,1.7,1.1,2.3,2c0.6,0.9,0.8,2,0.8,3.2c0,1.4-0.4,2.6-1.1,3.5
		c-0.7,0.9-1.7,1.6-3,1.9c-0.7,0.2-2.1,0.3-4,0.3v8.5h-3.8V12.4z M420.4,20.3h1.2c1,0,1.6-0.1,2-0.2c0.4-0.1,0.7-0.4,0.9-0.7
		c0.2-0.3,0.3-0.7,0.3-1.1c0-0.8-0.3-1.3-0.9-1.7c-0.4-0.3-1.2-0.4-2.4-0.4h-1.1V20.3z"/>
	<path fill="#3C3C3B" d="M447.8,11.9c2.8,0,5.3,1,7.3,3.1c2,2.1,3.1,4.6,3.1,7.5c0,2.9-1,5.4-3,7.4c-2,2-4.5,3-7.3,3
		c-3,0-5.5-1-7.5-3.1c-2-2.1-3-4.5-3-7.4c0-1.9,0.5-3.7,1.4-5.3c0.9-1.6,2.2-2.9,3.8-3.8C444.1,12.4,445.9,11.9,447.8,11.9z
		 M447.7,15.6c-1.9,0-3.4,0.6-4.7,1.9c-1.3,1.3-1.9,2.9-1.9,4.9c0,2.2,0.8,4,2.4,5.3c1.2,1,2.7,1.5,4.3,1.5c1.8,0,3.3-0.7,4.6-2
		c1.3-1.3,1.9-2.9,1.9-4.8c0-1.9-0.6-3.5-1.9-4.8C451.1,16.3,449.5,15.6,447.7,15.6z"/>
</g>
<g>
	<path fill="#3C3C3B" d="M555.7,12.4h4c2.2,0,3.8,0.2,4.7,0.6c1,0.4,1.7,1.1,2.3,2c0.6,0.9,0.8,2,0.8,3.2c0,1.4-0.4,2.6-1.1,3.5
		c-0.7,0.9-1.7,1.6-3,1.9c-0.7,0.2-2.1,0.3-4,0.3v8.5h-3.8V12.4z M559.5,20.3h1.2c1,0,1.6-0.1,2-0.2c0.4-0.1,0.7-0.4,0.9-0.7
		c0.2-0.3,0.3-0.7,0.3-1.1c0-0.8-0.3-1.3-0.9-1.7c-0.4-0.3-1.2-0.4-2.4-0.4h-1.1V20.3z"/>
	<path fill="#3C3C3B" d="M577.7,12.4h4c2.2,0,3.8,0.2,4.7,0.6c0.9,0.4,1.7,1.1,2.3,2c0.6,0.9,0.9,2,0.9,3.3c0,1.3-0.3,2.4-0.9,3.3
		c-0.6,0.9-1.6,1.6-2.9,2l4.7,8.9h-4.2l-4.5-8.5h-0.4v8.5h-3.8V12.4z M581.5,20.3h1.2c1.2,0,2-0.2,2.5-0.5c0.5-0.3,0.7-0.8,0.7-1.6
		c0-0.4-0.1-0.8-0.3-1.1c-0.2-0.3-0.5-0.6-0.9-0.7c-0.4-0.1-1.1-0.2-2.1-0.2h-1V20.3z"/>
	<path fill="#3C3C3B" d="M609.2,11.9c2.8,0,5.3,1,7.3,3.1c2,2.1,3.1,4.6,3.1,7.5c0,2.9-1,5.4-3,7.4c-2,2-4.5,3-7.3,3
		c-3,0-5.5-1-7.5-3.1c-2-2.1-3-4.5-3-7.4c0-1.9,0.5-3.7,1.4-5.3c0.9-1.6,2.2-2.9,3.8-3.8C605.6,12.4,607.3,11.9,609.2,11.9z
		 M609.1,15.6c-1.9,0-3.4,0.6-4.7,1.9c-1.3,1.3-1.9,2.9-1.9,4.9c0,2.2,0.8,4,2.4,5.3c1.2,1,2.7,1.5,4.3,1.5c1.8,0,3.3-0.7,4.6-2
		c1.3-1.3,1.9-2.9,1.9-4.8c0-1.9-0.6-3.5-1.9-4.8C612.5,16.3,611,15.6,609.1,15.6z"/>
	<path fill="#3C3C3B" d="M629.3,12.4h4.5c2.9,0,5.1,0.4,6.5,1.1c1.4,0.7,2.6,1.9,3.5,3.5c0.9,1.6,1.4,3.5,1.4,5.7
		c0,1.5-0.3,3-0.8,4.3c-0.5,1.3-1.2,2.4-2.1,3.2c-0.9,0.9-1.9,1.4-2.9,1.8c-1.1,0.3-2.9,0.5-5.5,0.5h-4.6V12.4z M633.1,16.1v12.6
		h1.8c1.7,0,3-0.2,3.8-0.6c0.8-0.4,1.4-1.1,1.9-2c0.5-0.9,0.7-2.1,0.7-3.5c0-2.1-0.6-3.8-1.8-4.9c-1.1-1.1-2.8-1.6-5.2-1.6H633.1z"
		/>
	<path fill="#3C3C3B" d="M654.8,12.4h3.8v13c0,1.1,0.1,1.9,0.3,2.4c0.2,0.5,0.5,0.8,1,1.1c0.5,0.3,1,0.4,1.6,0.4
		c0.7,0,1.3-0.2,1.7-0.5c0.5-0.3,0.8-0.7,1-1.2c0.2-0.5,0.3-1.4,0.3-2.7V12.4h3.8v11.9c0,2-0.1,3.4-0.3,4.2
		c-0.2,0.8-0.7,1.5-1.3,2.3c-0.6,0.7-1.4,1.3-2.2,1.6c-0.8,0.3-1.8,0.5-2.9,0.5c-1.5,0-2.7-0.3-3.8-1c-1.1-0.7-1.8-1.5-2.3-2.5
		c-0.5-1-0.7-2.7-0.7-5.1V12.4z"/>
	<path fill="#3C3C3B" d="M697.3,15.9l-2.7,2.5c-1.8-1.9-3.9-2.9-6.1-2.9c-1.9,0-3.5,0.7-4.8,2c-1.3,1.3-2,2.9-2,4.8
		c0,1.3,0.3,2.5,0.9,3.6c0.6,1,1.4,1.8,2.5,2.4c1.1,0.6,2.2,0.9,3.5,0.9c1.1,0,2.1-0.2,3-0.6c0.9-0.4,1.9-1.2,3-2.3l2.6,2.7
		c-1.5,1.4-2.9,2.4-4.2,3c-1.3,0.6-2.8,0.8-4.5,0.8c-3.1,0-5.7-1-7.6-3c-2-2-3-4.5-3-7.6c0-2,0.5-3.8,1.4-5.3
		c0.9-1.6,2.2-2.8,3.9-3.7c1.7-0.9,3.5-1.4,5.4-1.4c1.7,0,3.2,0.3,4.8,1C694.9,13.7,696.2,14.7,697.3,15.9z"/>
	<path fill="#3C3C3B" d="M704.8,12.4h11.1v3.8h-3.6v16.3h-3.9V16.2h-3.6V12.4z"/>
	<path fill="#3C3C3B" d="M734.1,11.9c2.8,0,5.3,1,7.3,3.1c2,2.1,3.1,4.6,3.1,7.5c0,2.9-1,5.4-3,7.4c-2,2-4.5,3-7.3,3
		c-3,0-5.5-1-7.5-3.1c-2-2.1-3-4.5-3-7.4c0-1.9,0.5-3.7,1.4-5.3c0.9-1.6,2.2-2.9,3.8-3.8C730.5,12.4,732.2,11.9,734.1,11.9z
		 M734,15.6c-1.9,0-3.4,0.6-4.7,1.9c-1.3,1.3-1.9,2.9-1.9,4.9c0,2.2,0.8,4,2.4,5.3c1.2,1,2.7,1.5,4.3,1.5c1.8,0,3.3-0.7,4.6-2
		c1.3-1.3,1.9-2.9,1.9-4.8c0-1.9-0.6-3.5-1.9-4.8C737.4,16.3,735.9,15.6,734,15.6z"/>
</g>
<g>
	<path fill="#3C3C3B" d="M826.1,12.4h11.1v3.8h-3.6v16.3h-3.9V16.2h-3.6V12.4z"/>
	<path fill="#3C3C3B" d="M845.7,12.4h3.8v20h-3.8V12.4z"/>
	<path fill="#3C3C3B" d="M859.9,12.4h10.9v3.7h-7.2v3.6h7.2v3.7h-7.2v5.3h7.2v3.7h-10.9V12.4z"/>
	<path fill="#3C3C3B" d="M882.5,12.4h3.7l4.6,14l4.7-14h3.7l3.4,20h-3.7l-2.1-12.7l-4.3,12.7h-3.4l-4.2-12.7l-2.2,12.7H879
		L882.5,12.4z"/>
	<path fill="#3C3C3B" d="M911.7,12.4h4c2.2,0,3.8,0.2,4.7,0.6c1,0.4,1.7,1.1,2.3,2c0.6,0.9,0.8,2,0.8,3.2c0,1.4-0.4,2.6-1.1,3.5
		c-0.7,0.9-1.7,1.6-3,1.9c-0.7,0.2-2.1,0.3-4,0.3v8.5h-3.8V12.4z M915.5,20.3h1.2c1,0,1.6-0.1,2-0.2c0.4-0.1,0.7-0.4,0.9-0.7
		c0.2-0.3,0.3-0.7,0.3-1.1c0-0.8-0.3-1.3-0.9-1.7c-0.4-0.3-1.2-0.4-2.4-0.4h-1.1V20.3z"/>
	<path fill="#3C3C3B" d="M942.9,11.9c2.8,0,5.3,1,7.3,3.1c2,2.1,3.1,4.6,3.1,7.5c0,2.9-1,5.4-3,7.4c-2,2-4.5,3-7.3,3
		c-3,0-5.5-1-7.5-3.1c-2-2.1-3-4.5-3-7.4c0-1.9,0.5-3.7,1.4-5.3c0.9-1.6,2.2-2.9,3.8-3.8C939.3,12.4,941.1,11.9,942.9,11.9z
		 M942.9,15.6c-1.9,0-3.4,0.6-4.7,1.9c-1.3,1.3-1.9,2.9-1.9,4.9c0,2.2,0.8,4,2.4,5.3c1.2,1,2.7,1.5,4.3,1.5c1.8,0,3.3-0.7,4.6-2
		c1.3-1.3,1.9-2.9,1.9-4.8c0-1.9-0.6-3.5-1.9-4.8C946.3,16.3,944.7,15.6,942.9,15.6z"/>
</g>
<g>
	<path fill="#3C3C3B" d="M216.7,124.4h1.1l2.8,6.2l2.7-6.2h1.1l-4.8,11h-1.1l1.6-3.6L216.7,124.4z"/>
	<path fill="#3C3C3B" d="M231.3,132.5l1.6-10.9h0.2l4.4,8.9l4.4-8.9h0.2l1.6,10.9h-1.1l-1.1-7.8l-3.9,7.8h-0.3l-3.9-7.9l-1.1,7.9
		H231.3z"/>
	<path fill="#3C3C3B" d="M254.6,124.4v8.1h-1v-1.4c-0.4,0.5-0.9,0.9-1.5,1.2c-0.5,0.3-1.1,0.4-1.8,0.4c-1.1,0-2.1-0.4-2.9-1.2
		c-0.8-0.8-1.2-1.8-1.2-3c0-1.2,0.4-2.2,1.2-3c0.8-0.8,1.8-1.2,2.9-1.2c0.7,0,1.3,0.1,1.8,0.4c0.5,0.3,1,0.7,1.4,1.3v-1.5H254.6z
		 M250.4,125.2c-0.6,0-1.1,0.1-1.6,0.4c-0.5,0.3-0.9,0.7-1.2,1.2c-0.3,0.5-0.4,1.1-0.4,1.6c0,0.6,0.1,1.1,0.4,1.6
		c0.3,0.5,0.7,0.9,1.2,1.2c0.5,0.3,1,0.4,1.6,0.4c0.6,0,1.1-0.1,1.6-0.4c0.5-0.3,0.9-0.7,1.2-1.2c0.3-0.5,0.4-1,0.4-1.7
		c0-0.9-0.3-1.7-0.9-2.3C252.1,125.5,251.3,125.2,250.4,125.2z"/>
	<path fill="#3C3C3B" d="M257.6,121.3h1v11.2h-1V121.3z"/>
	<path fill="#3C3C3B" d="M268.5,129.8l0.9,0.5c-0.3,0.6-0.6,1-1,1.4c-0.4,0.3-0.8,0.6-1.3,0.8c-0.5,0.2-1,0.3-1.6,0.3
		c-1.3,0-2.3-0.4-3.1-1.3c-0.7-0.9-1.1-1.8-1.1-2.9c0-1,0.3-1.9,0.9-2.7c0.8-1,1.9-1.5,3.2-1.5c1.4,0,2.5,0.5,3.3,1.6
		c0.6,0.7,0.9,1.7,0.9,2.8h-7.3c0,0.9,0.3,1.7,0.9,2.3c0.6,0.6,1.3,0.9,2.1,0.9c0.4,0,0.8-0.1,1.2-0.2c0.4-0.1,0.7-0.3,1-0.6
		C267.9,130.7,268.2,130.3,268.5,129.8z M268.5,127.6c-0.1-0.6-0.3-1-0.6-1.3c-0.3-0.3-0.6-0.6-1-0.8c-0.4-0.2-0.9-0.3-1.4-0.3
		c-0.8,0-1.5,0.3-2,0.8c-0.4,0.4-0.7,0.9-0.9,1.7H268.5z"/>
	<path fill="#3C3C3B" d="M273.4,121.4h1v3h1.6v0.9h-1.6v7.2h-1v-7.2H272v-0.9h1.4V121.4z"/>
	<path fill="#3C3C3B" d="M286.6,124.4v8.1h-1v-1.4c-0.4,0.5-0.9,0.9-1.5,1.2c-0.5,0.3-1.1,0.4-1.8,0.4c-1.1,0-2.1-0.4-2.9-1.2
		c-0.8-0.8-1.2-1.8-1.2-3c0-1.2,0.4-2.2,1.2-3c0.8-0.8,1.8-1.2,2.9-1.2c0.7,0,1.3,0.1,1.8,0.4c0.5,0.3,1,0.7,1.4,1.3v-1.5H286.6z
		 M282.5,125.2c-0.6,0-1.1,0.1-1.6,0.4c-0.5,0.3-0.9,0.7-1.2,1.2c-0.3,0.5-0.4,1.1-0.4,1.6c0,0.6,0.1,1.1,0.4,1.6
		c0.3,0.5,0.7,0.9,1.2,1.2c0.5,0.3,1,0.4,1.6,0.4c0.6,0,1.1-0.1,1.6-0.4c0.5-0.3,0.9-0.7,1.2-1.2c0.3-0.5,0.4-1,0.4-1.7
		c0-0.9-0.3-1.7-0.9-2.3C284.1,125.5,283.4,125.2,282.5,125.2z"/>
	<path fill="#3C3C3B" d="M293.9,125.3l-0.7,0.7c-0.6-0.5-1.1-0.8-1.6-0.8c-0.3,0-0.6,0.1-0.9,0.3c-0.2,0.2-0.4,0.5-0.4,0.8
		c0,0.3,0.1,0.5,0.3,0.7c0.2,0.2,0.6,0.5,1.2,0.9c0.8,0.4,1.3,0.8,1.6,1.2c0.3,0.4,0.4,0.8,0.4,1.3c0,0.7-0.2,1.2-0.7,1.7
		c-0.5,0.5-1,0.7-1.7,0.7c-0.5,0-0.9-0.1-1.3-0.3c-0.4-0.2-0.8-0.5-1.1-0.8l0.7-0.7c0.5,0.6,1.1,0.9,1.7,0.9c0.4,0,0.8-0.1,1.1-0.4
		c0.3-0.3,0.4-0.6,0.4-0.9c0-0.3-0.1-0.6-0.3-0.8c-0.2-0.2-0.6-0.5-1.3-0.9c-0.7-0.4-1.2-0.7-1.5-1.1c-0.3-0.4-0.4-0.8-0.4-1.3
		c0-0.6,0.2-1.1,0.6-1.5c0.4-0.4,0.9-0.6,1.6-0.6C292.4,124.2,293.1,124.6,293.9,125.3z"/>
	<path fill="#3C3C3B" d="M297.8,130.8c0.3,0,0.5,0.1,0.6,0.3c0.2,0.2,0.3,0.4,0.3,0.7c0,0.3-0.1,0.5-0.3,0.6
		c-0.2,0.2-0.4,0.3-0.6,0.3c-0.3,0-0.5-0.1-0.6-0.3c-0.2-0.2-0.3-0.4-0.3-0.6c0-0.3,0.1-0.5,0.3-0.7
		C297.3,130.9,297.5,130.8,297.8,130.8z"/>
</g>
</svg>
