<?xml version="1.0" encoding="utf-8"?>
<!-- Generator: Adobe Illustrator 18.1.1, SVG Export Plug-In . SVG Version: 6.00 Build 0)  -->
<svg version="1.2" baseProfile="tiny" id="Capa_1" xmlns="http://www.w3.org/2000/svg" xmlns:xlink="http://www.w3.org/1999/xlink"
	 x="0px" y="0px" viewBox="0 133.4 100 66.7" xml:space="preserve">
<g id="colombia" display="none">
	<rect y="133.4" display="inline" fill="#FFE609" width="100" height="33.3"/>
	<rect y="166.7" display="inline" fill="#283170" width="100" height="16.7"/>
	<rect y="183.4" display="inline" fill="#CE1B2D" width="100" height="16.7"/>
</g>
<g id="honduras" display="none">
	
		<rect y="133.4" display="inline" fill="none" stroke="#69B42E" stroke-width="0.1" stroke-miterlimit="10" width="100" height="66.7"/>
	
		<rect y="133.4" display="inline" fill="none" stroke="#69B42E" stroke-width="0.1" stroke-miterlimit="10" width="100" height="66.7"/>
	<rect y="133.4" display="inline" fill="#2670B7" width="100" height="22.2"/>
	<rect y="155.6" display="inline" fill="#FFFFFF" width="100" height="22.2"/>
	<rect y="177.9" display="inline" fill="#2670B7" width="100" height="22.2"/>
	<g display="inline">
		<polygon fill="#2670B7" points="32.9,162.2 32.2,164.5 34.1,163.1 35.9,164.5 35.2,162.2 37.1,160.9 34.8,160.9 34.1,158.8 
			33.4,160.9 31.1,160.9 		"/>
		<polygon fill="#2670B7" points="34.8,170.6 34.1,168.4 33.4,170.6 31.1,170.6 32.9,171.9 32.2,174.1 34.1,172.8 35.9,174.1 
			35.2,171.9 37.1,170.6 		"/>
	</g>
	<g display="inline">
		<polygon fill="#2670B7" points="64.8,162.2 64.1,164.5 65.9,163.1 67.8,164.5 67.1,162.2 68.9,160.9 66.6,160.9 65.9,158.8 
			65.2,160.9 62.9,160.9 		"/>
		<polygon fill="#2670B7" points="66.6,170.6 65.9,168.4 65.2,170.6 62.9,170.6 64.8,171.9 64.1,174.1 65.9,172.8 67.8,174.1 
			67.1,171.9 68.9,170.6 		"/>
	</g>
	<g display="inline">
		<polygon fill="#2670B7" points="50.7,166.1 50,163.9 49.3,166.1 47,166.1 48.8,167.5 48.1,169.6 50,168.2 51.8,169.6 51.1,167.5 
			53,166.1 		"/>
	</g>
</g>
<g id="guatemala" display="none">
	
		<rect y="133.4" display="inline" fill="none" stroke="#69B42E" stroke-width="0.1" stroke-miterlimit="10" width="100" height="66.7"/>
	<rect y="133.4" display="inline" fill="#4897D0" width="33.3" height="66.7"/>
	<rect x="66.7" y="133.4" display="inline" fill="#4897D0" width="33.3" height="66.7"/>
	<rect x="33.3" y="133.4" display="inline" fill="#FFFFFF" width="33.3" height="66.7"/>
</g>
<g id="salvador" display="none">
	
		<rect y="133.2" display="inline" fill="none" stroke="#69B42E" stroke-width="0.1" stroke-miterlimit="10" width="99.9" height="66.6"/>
	<rect y="133.4" display="inline" fill="#253885" width="99.9" height="22.2"/>
	<rect y="155.6" display="inline" fill="#FFFFFF" width="99.9" height="22.2"/>
	<rect y="177.8" display="inline" fill="#253885" width="99.9" height="22.2"/>
</g>
<g id="costarica" display="none">
	<rect y="133.2" display="inline" fill="#243770" width="100" height="10.5"/>
	<rect y="143.9" display="inline" fill="#FFFFFF" width="100" height="11.3"/>
	<rect y="177.5" display="inline" fill="#FFFFFF" width="100" height="11.3"/>
	<rect y="155.2" display="inline" fill="#CF1327" width="100" height="22.4"/>
	<rect y="188.5" display="inline" fill="#243770" width="100" height="11.5"/>
</g>
<g id="espana">
	<rect y="133.4" fill="#E52520" width="100" height="16.8"/>
	<rect y="183.2" fill="#E52520" width="100" height="16.8"/>
	<rect y="150" fill="#F3E600" width="100" height="33.3"/>
</g>
<g id="estados_unidos" display="none">
</g>
</svg>
