<?xml version="1.0" encoding="utf-8"?>
<!-- Generator: Adobe Illustrator 18.1.1, SVG Export Plug-In . SVG Version: 6.00 Build 0)  -->
<svg version="1.2" baseProfile="tiny" id="Capa_1" xmlns="http://www.w3.org/2000/svg" xmlns:xlink="http://www.w3.org/1999/xlink"
	 x="0px" y="0px" viewBox="0 66.7 100 66.7" xml:space="preserve">
<g id="colombia" display="none">
	<rect y="66.7" display="inline" fill="#FFE609" width="100" height="33.3"/>
	<rect y="100" display="inline" fill="#283170" width="100" height="16.7"/>
	<rect y="116.7" display="inline" fill="#CE1B2D" width="100" height="16.7"/>
</g>
<g id="honduras" display="none">
	
		<rect y="66.7" display="inline" fill="none" stroke="#69B42E" stroke-width="0.1" stroke-miterlimit="10" width="100" height="66.7"/>
	
		<rect y="66.7" display="inline" fill="none" stroke="#69B42E" stroke-width="0.1" stroke-miterlimit="10" width="100" height="66.7"/>
	<rect y="66.7" display="inline" fill="#2670B7" width="100" height="22.2"/>
	<rect y="88.9" display="inline" fill="#FFFFFF" width="100" height="22.2"/>
	<rect y="111.2" display="inline" fill="#2670B7" width="100" height="22.2"/>
	<g display="inline">
		<polygon fill="#2670B7" points="32.9,95.6 32.2,97.8 34.1,96.4 35.9,97.8 35.2,95.6 37.1,94.2 34.8,94.2 34.1,92.1 33.4,94.2 
			31.1,94.2 		"/>
		<polygon fill="#2670B7" points="34.8,103.9 34.1,101.7 33.4,103.9 31.1,103.9 32.9,105.2 32.2,107.4 34.1,106.1 35.9,107.4 
			35.2,105.2 37.1,103.9 		"/>
	</g>
	<g display="inline">
		<polygon fill="#2670B7" points="64.8,95.6 64.1,97.8 65.9,96.4 67.8,97.8 67.1,95.6 68.9,94.2 66.6,94.2 65.9,92.1 65.2,94.2 
			62.9,94.2 		"/>
		<polygon fill="#2670B7" points="66.6,103.9 65.9,101.7 65.2,103.9 62.9,103.9 64.8,105.2 64.1,107.4 65.9,106.1 67.8,107.4 
			67.1,105.2 68.9,103.9 		"/>
	</g>
	<g display="inline">
		<polygon fill="#2670B7" points="50.7,99.4 50,97.2 49.3,99.4 47,99.4 48.8,100.8 48.1,102.9 50,101.6 51.8,102.9 51.1,100.8 
			53,99.4 		"/>
	</g>
</g>
<g id="guatemala">
	<rect y="66.7" fill="none" stroke="#69B42E" stroke-width="0.1" stroke-miterlimit="10" width="100" height="66.7"/>
	<rect y="66.7" fill="#4897D0" width="33.3" height="66.7"/>
	<rect x="66.7" y="66.7" fill="#4897D0" width="33.3" height="66.7"/>
	<rect x="33.3" y="66.7" fill="#FFFFFF" width="33.3" height="66.7"/>
</g>
<g id="salvador" display="none">
	
		<rect y="66.6" display="inline" fill="none" stroke="#69B42E" stroke-width="0.1" stroke-miterlimit="10" width="99.9" height="66.6"/>
	<rect y="66.7" display="inline" fill="#253885" width="99.9" height="22.2"/>
	<rect y="88.9" display="inline" fill="#FFFFFF" width="99.9" height="22.2"/>
	<rect y="111.1" display="inline" fill="#253885" width="99.9" height="22.2"/>
</g>
<g id="costarica" display="none">
	<rect y="66.6" display="inline" fill="#243770" width="100" height="10.5"/>
	<rect y="77.2" display="inline" fill="#FFFFFF" width="100" height="11.3"/>
	<rect y="110.8" display="inline" fill="#FFFFFF" width="100" height="11.3"/>
	<rect y="88.5" display="inline" fill="#CF1327" width="100" height="22.4"/>
	<rect y="121.8" display="inline" fill="#243770" width="100" height="11.5"/>
</g>
</svg>
